<svg id="Capa_1" enable-background="new 0 0 510 510" height="512" viewBox="0 0 510 510" width="512" xmlns="http://www.w3.org/2000/svg" xmlns:xlink="http://www.w3.org/1999/xlink"><linearGradient id="lg1"><stop offset="0" stop-color="#09a755"/><stop offset=".6075" stop-color="#01998d"/><stop offset="1" stop-color="#006e66"/></linearGradient><linearGradient id="SVGID_1_" gradientUnits="userSpaceOnUse" x1="57" x2="462.031" xlink:href="#lg1" y1="60.003" y2="60.003"/><linearGradient id="lg2"><stop offset="0" stop-color="#46cc8d"/><stop offset=".5484" stop-color="#0ab69f"/><stop offset="1" stop-color="#01998d"/></linearGradient><linearGradient id="SVGID_2_" gradientUnits="userSpaceOnUse" x1="22" x2="479.63" xlink:href="#lg2" y1="105" y2="105"/><linearGradient id="lg3"><stop offset="0" stop-color="#b0e7c9"/><stop offset=".593" stop-color="#46cc8d"/><stop offset="1" stop-color="#0ab69f"/></linearGradient><linearGradient id="SVGID_3_" gradientUnits="userSpaceOnUse" x1="1.602" x2="502.582" xlink:href="#lg3" y1="299.997" y2="299.997"/><linearGradient id="SVGID_4_" gradientUnits="userSpaceOnUse" x1="401" x2="504.005" xlink:href="#lg2" y1="299.997" y2="299.997"/><linearGradient id="SVGID_5_" gradientTransform="matrix(-1 0 0 1 510 0)" gradientUnits="userSpaceOnUse" x1="-23.244" x2="532.83" y1="299.997" y2="299.997"><stop offset="0" stop-color="#006e66"/><stop offset=".3925" stop-color="#01998d"/><stop offset="1" stop-color="#09a755"/></linearGradient><linearGradient id="SVGID_6_" gradientUnits="userSpaceOnUse" x1="154.667" x2="345.352" xlink:href="#lg3" y1="299.997" y2="299.997"/><linearGradient id="SVGID_7_" gradientUnits="userSpaceOnUse" x1="250" x2="365.004" xlink:href="#lg2" y1="299.997" y2="299.997"/><linearGradient id="SVGID_8_" gradientUnits="userSpaceOnUse" x1="50.333" x2="130.333" y1="299.997" y2="299.997"><stop offset="0" stop-color="#fff9df"/><stop offset=".593" stop-color="#ffe177"/><stop offset="1" stop-color="#feb137"/></linearGradient><linearGradient id="SVGID_9_" gradientUnits="userSpaceOnUse" x1="379.667" x2="459.667" y1="299.997" y2="299.997"><stop offset="0" stop-color="#ffe177"/><stop offset="1" stop-color="#feb137"/></linearGradient><linearGradient id="SVGID_10_" gradientUnits="userSpaceOnUse" x1="382" x2="469.006" xlink:href="#lg1" y1="299.997" y2="299.997"/><g><path d="m460 85.003h-410v-26.5c0-12.979 10.521-23.5 23.5-23.5h363c12.979 0 23.5 10.521 23.5 23.5z" fill="url(#SVGID_1_)"/><path d="m485 130h-460v-26.5c0-12.979 10.521-23.5 23.5-23.5h413c12.979 0 23.5 10.521 23.5 23.5z" fill="url(#SVGID_2_)"/><g><path d="m478.077 474.997h-446.154c-17.631 0-31.923-14.292-31.923-31.923v-286.154c0-17.63 14.292-31.923 31.923-31.923h446.154c17.63 0 31.923 14.292 31.923 31.923v286.154c0 17.631-14.292 31.923-31.923 31.923z" fill="url(#SVGID_3_)"/><path d="m478.077 124.997h-41.025c17.63 0 31.923 14.292 31.923 31.923v286.155c0 17.63-14.292 31.923-31.923 31.923h41.025c17.63 0 31.923-14.292 31.923-31.923v-286.155c0-17.631-14.292-31.923-31.923-31.923z" fill="url(#SVGID_4_)"/><path d="m38.742 209.308c16.199-5.905 29.035-19.012 34.8-35.538 2.956-8.474 11.123-14.017 20.097-14.017h322.722c8.974 0 17.142 5.544 20.097 14.017 5.764 16.526 18.601 29.633 34.8 35.538 8.334 3.038 13.742 11.139 13.742 20.009v141.359c0 8.871-5.408 16.972-13.742 20.009-16.199 5.905-29.035 19.012-34.8 35.538-2.956 8.474-11.123 14.017-20.097 14.017h-322.722c-8.974 0-17.142-5.544-20.097-14.017-5.764-16.526-18.601-29.633-34.8-35.538-8.334-3.037-13.742-11.138-13.742-20.009v-141.358c0-8.871 5.408-16.972 13.742-20.01z" fill="url(#SVGID_5_)"/><circle cx="255" cy="299.997" fill="url(#SVGID_6_)" r="100"/><path d="m255 199.997c-6.854 0-13.546.691-20.012 2.005 45.639 9.27 79.988 49.621 79.988 97.995s-34.349 88.725-79.988 97.995c6.466 1.313 13.158 2.005 20.012 2.005 55.228 0 100-44.771 100-100s-44.772-100-100-100z" fill="url(#SVGID_7_)"/><g><path d="m112.833 282.497h-45c-9.665 0-17.5 7.835-17.5 17.5 0 9.665 7.835 17.5 17.5 17.5h45c9.665 0 17.5-7.835 17.5-17.5 0-9.665-7.835-17.5-17.5-17.5z" fill="url(#SVGID_8_)"/><path d="m442.167 282.497h-45c-9.665 0-17.5 7.835-17.5 17.5 0 9.665 7.835 17.5 17.5 17.5h45c9.665 0 17.5-7.835 17.5-17.5 0-9.665-7.835-17.5-17.5-17.5z" fill="url(#SVGID_9_)"/></g><path d="m471.258 209.308c-.771-.281-1.527-.593-2.282-.907v183.191c.755-.313 1.511-.625 2.282-.907 8.334-3.038 13.742-11.139 13.742-20.009v-141.358c0-8.871-5.408-16.972-13.742-20.01z" fill="url(#SVGID_10_)"/></g></g></svg>