<svg id="Capa_1" enable-background="new 0 0 510 510" height="512" viewBox="0 0 510 510" width="512" xmlns="http://www.w3.org/2000/svg" xmlns:xlink="http://www.w3.org/1999/xlink"><linearGradient id="lg1"><stop offset="0" stop-color="#f2fbff"/><stop offset=".593" stop-color="#faf7f7"/><stop offset="1" stop-color="#f3eae6"/></linearGradient><linearGradient id="SVGID_1_" gradientUnits="userSpaceOnUse" x1="220.46" x2="438.548" xlink:href="#lg1" y1="454.239" y2="454.239"/><linearGradient id="lg2"><stop offset="0" stop-color="#f3eae6"/><stop offset="1" stop-color="#cdbfba"/></linearGradient><linearGradient id="SVGID_2_" gradientUnits="userSpaceOnUse" x1="273.734" x2="387.227" xlink:href="#lg2" y1="438.307" y2="438.307"/><linearGradient id="SVGID_3_" gradientUnits="userSpaceOnUse" x1="42.667" x2="112.492" xlink:href="#lg1" y1="478.331" y2="478.331"/><linearGradient id="lg3"><stop offset="0" stop-color="#fe99a0"/><stop offset=".593" stop-color="#fe646f"/><stop offset="1" stop-color="#e41f2d"/></linearGradient><linearGradient id="SVGID_4_" gradientUnits="userSpaceOnUse" x1="71.58" x2="174.474" xlink:href="#lg3" y1="298.799" y2="298.799"/><linearGradient id="lg4"><stop offset="0" stop-color="#fe646f"/><stop offset=".7043" stop-color="#e41f2d"/><stop offset="1" stop-color="#c41926"/></linearGradient><linearGradient id="SVGID_5_" gradientUnits="userSpaceOnUse" x1="308" x2="435.142" xlink:href="#lg4" y1="298.799" y2="298.799"/><linearGradient id="SVGID_6_" gradientUnits="userSpaceOnUse" x1="148.691" x2="358.869" xlink:href="#lg1" y1="173.832" y2="173.832"/><linearGradient id="SVGID_7_" gradientUnits="userSpaceOnUse" x1="146" x2="406.732" xlink:href="#lg2" y1="173.834" y2="173.834"/><linearGradient id="SVGID_8_" gradientUnits="userSpaceOnUse" x1="158.508" x2="349.278" xlink:href="#lg3" y1="57.747" y2="57.747"/><linearGradient id="SVGID_9_" gradientUnits="userSpaceOnUse" x1="176.053" x2="332.135" y1="227.358" y2="227.358"><stop offset="0" stop-color="#fff9df"/><stop offset=".593" stop-color="#ffe177"/><stop offset="1" stop-color="#feb137"/></linearGradient><linearGradient id="SVGID_10_" gradientUnits="userSpaceOnUse" x1="230" x2="334.077" y1="227.358" y2="227.358"><stop offset="0" stop-color="#ffe177"/><stop offset="1" stop-color="#feb137"/></linearGradient><linearGradient id="SVGID_11_" gradientUnits="userSpaceOnUse" x1="209.62" x2="299.338" y1="227.358" y2="227.358"><stop offset="0" stop-color="#01d0fb"/><stop offset=".6075" stop-color="#26a6fe"/><stop offset="1" stop-color="#0182fc"/></linearGradient><linearGradient id="SVGID_12_" gradientUnits="userSpaceOnUse" x1="242.677" x2="299.821" y1="227.358" y2="227.358"><stop offset="0" stop-color="#01bffa"/><stop offset="1" stop-color="#5b5cff"/></linearGradient><linearGradient id="SVGID_13_" gradientUnits="userSpaceOnUse" x1="148.691" x2="358.869" xlink:href="#lg3" y1="371.325" y2="371.325"/><linearGradient id="SVGID_14_" gradientUnits="userSpaceOnUse" x1="256" x2="366.005" xlink:href="#lg4" y1="371.325" y2="371.325"/><linearGradient id="SVGID_15_" gradientUnits="userSpaceOnUse" x1="235.358" x2="350.399" xlink:href="#lg4" y1="57.749" y2="57.749"/><g><g><path d="m448.545 510c12.284 0 19.751-13.672 12.982-23.923-9.977-15.109-27.104-25.077-46.567-25.077-4.997 0-9.836.667-14.444 1.899-12.577-23.169-37.118-38.899-65.333-38.899-2.732 0-5.427.158-8.083.445v-25.968h-144.2v32.783c-26.539.114-49.623 14.579-61.646 36.28-7.816-4.169-16.737-6.54-26.215-6.54-19.462 0-36.589 9.968-46.567 25.077-6.768 10.251.7 23.923 12.983 23.923z" fill="url(#SVGID_1_)"/><path d="m335.183 424c-2.767 0-5.496.161-8.183.46v-18.21-7.773h-144.1v32.783h122.017c25.145 0 48.361 14.5 58.429 37.541.297.679.582 1.364.858 2.056.329.828.644 1.663.944 2.505 1.723 4.837 7.802 6.378 11.537 2.854 6.621-6.249 14.771-10.894 23.832-13.317-12.578-23.169-37.119-38.899-65.334-38.899z" fill="url(#SVGID_2_)"/><path d="m109.207 495.662c1.955 0 3.595-1.451 3.856-3.389 1.194-8.87 4.028-17.22 8.191-24.734-7.816-4.169-16.737-6.54-26.215-6.54-7.055 0-13.797 1.323-20.01 3.712 13.574 5.219 24.592 15.587 30.658 28.712.634 1.37 2.012 2.239 3.52 2.239z" fill="url(#SVGID_3_)"/></g><g><g><path d="m127.888 246.599-16.926 16.926c-22.057 22.057-34.448 51.972-34.448 83.165 0 10.829 8.779 19.608 19.608 19.608h78.718v-135h-10.013c-13.855.001-27.142 5.505-36.939 15.301z" fill="url(#SVGID_4_)"/><path d="m382.112 246.599 16.926 16.926c22.057 22.057 34.448 51.972 34.448 83.165 0 10.829-8.779 19.608-19.608 19.608h-78.718v-135h10.013c13.855.001 27.142 5.505 36.939 15.301z" fill="url(#SVGID_5_)"/></g><g><path d="m361.981 178.734v168.929h-213.962v-168.929c0-55.079 21.881-107.901 60.83-146.845l21.809-21.807c13.445-13.443 35.241-13.443 48.686 0l21.809 21.807c38.947 38.945 60.828 91.767 60.828 146.845z" fill="url(#SVGID_6_)"/><path d="m301.152 31.889-21.809-21.807c-12.082-12.08-30.904-13.298-44.353-3.667 1.517 1.087 2.97 2.304 4.333 3.667l21.809 21.807c38.948 38.945 60.83 91.767 60.83 146.845v168.929h40.02v-168.929c-.001-55.078-21.882-107.9-60.83-146.845z" fill="url(#SVGID_7_)"/><path d="m230.657 10.082-21.809 21.807c-23.627 23.625-40.959 52.361-50.95 83.605h194.204c-9.991-31.244-27.323-59.981-50.95-83.605l-21.809-21.807c-13.445-13.443-35.241-13.443-48.686 0z" fill="url(#SVGID_8_)"/><circle cx="255" cy="227.358" fill="url(#SVGID_9_)" r="79.446"/><path d="m255 147.911c-6.912 0-13.617.886-20.01 2.545 34.19 8.871 59.436 39.936 59.436 76.901s-25.247 68.03-59.436 76.901c6.393 1.659 13.098 2.545 20.01 2.545 43.877 0 79.446-35.569 79.446-79.446 0-43.876-35.569-79.446-79.446-79.446z" fill="url(#SVGID_10_)"/><circle cx="255" cy="227.358" fill="url(#SVGID_11_)" r="45.667"/><path d="m255 181.691c-4.338 0-8.53.618-12.505 1.748 19.139 5.44 33.161 23.036 33.161 43.919s-14.022 38.479-33.161 43.919c3.976 1.13 8.167 1.748 12.505 1.748 25.221 0 45.667-20.446 45.667-45.667s-20.446-45.667-45.667-45.667z" fill="url(#SVGID_12_)"/><path d="m148.019 336.403v45.853c0 13.25 10.741 23.991 23.991 23.991h165.981c13.25 0 23.991-10.741 23.991-23.991v-45.853z" fill="url(#SVGID_13_)"/><path d="m321.961 406.246h16.029c13.25 0 23.991-10.741 23.991-23.991v-45.853h-40.02z" fill="url(#SVGID_14_)"/><path d="m301.152 31.889-21.809-21.807c-12.082-12.08-30.904-13.298-44.353-3.667 1.517 1.087 2.97 2.304 4.333 3.667l21.809 21.807c23.627 23.625 40.959 52.361 50.95 83.605h40.02c-9.991-31.244-27.323-59.98-50.95-83.605z" fill="url(#SVGID_15_)"/></g></g></g></svg>