<svg id="Capa_1" enable-background="new 0 0 510 510" height="512" viewBox="0 0 510 510" width="512" xmlns="http://www.w3.org/2000/svg" xmlns:xlink="http://www.w3.org/1999/xlink"><linearGradient id="lg1"><stop offset="0" stop-color="#ffe177"/><stop offset="1" stop-color="#feb137"/></linearGradient><linearGradient id="SVGID_1_" gradientUnits="userSpaceOnUse" x1="225.917" x2="409.548" xlink:href="#lg1" y1="194.505" y2="194.505"/><linearGradient id="SVGID_2_" gradientUnits="userSpaceOnUse" x1="107.333" x2="386.367" xlink:href="#lg1" y1="194.505" y2="194.505"/><linearGradient id="lg2"><stop offset="0" stop-color="#f2fbff"/><stop offset=".593" stop-color="#faf7f7"/><stop offset="1" stop-color="#f3eae6"/></linearGradient><linearGradient id="SVGID_3_" gradientUnits="userSpaceOnUse" x1="156.617" x2="354.341" xlink:href="#lg2" y1="367.075" y2="367.075"/><linearGradient id="SVGID_4_" gradientUnits="userSpaceOnUse" x1="175.333" x2="321.358" y1="480.524" y2="480.524"><stop offset="0" stop-color="#cdbfba"/><stop offset="1" stop-color="#766e6e"/></linearGradient><linearGradient id="SVGID_5_" gradientUnits="userSpaceOnUse" x1="193" x2="353.655" y1="480.524" y2="480.524"><stop offset="0" stop-color="#9e9797"/><stop offset="1" stop-color="#5b5555"/></linearGradient><linearGradient id="SVGID_6_" gradientUnits="userSpaceOnUse" x1="156.617" x2="354.341" xlink:href="#lg2" y1="431.888" y2="431.888"/><linearGradient id="lg3"><stop offset="0" stop-color="#fff9df"/><stop offset=".593" stop-color="#ffe177"/><stop offset="1" stop-color="#feb137"/></linearGradient><linearGradient id="SVGID_7_" gradientUnits="userSpaceOnUse" x1="176.667" x2="374.325" xlink:href="#lg3" y1="173.081" y2="173.081"/><linearGradient id="lg4"><stop offset="0" stop-color="#f3eae6"/><stop offset="1" stop-color="#cdbfba"/></linearGradient><linearGradient id="SVGID_8_" gradientUnits="userSpaceOnUse" x1="278.667" x2="372.193" xlink:href="#lg4" y1="367.075" y2="367.075"/><linearGradient id="SVGID_9_" gradientUnits="userSpaceOnUse" x1="277.333" x2="374" xlink:href="#lg4" y1="431.885" y2="431.885"/><linearGradient id="SVGID_10_" gradientUnits="userSpaceOnUse" x1="437.333" x2="509.853" xlink:href="#lg3" y1="183.245" y2="183.245"/><linearGradient id="SVGID_11_" gradientUnits="userSpaceOnUse" x1="5.333" x2="74.67" xlink:href="#lg3" y1="183.245" y2="183.245"/><linearGradient id="SVGID_12_" gradientUnits="userSpaceOnUse" x1="377.333" x2="455.108" xlink:href="#lg3" y1="339.808" y2="339.808"/><linearGradient id="SVGID_13_" gradientUnits="userSpaceOnUse" x1="68" x2="140.691" xlink:href="#lg3" y1="26.682" y2="26.682"/><linearGradient id="SVGID_14_" gradientUnits="userSpaceOnUse" x1="60.667" x2="147.766" xlink:href="#lg3" y1="339.808" y2="339.808"/><linearGradient id="SVGID_15_" gradientUnits="userSpaceOnUse" x1="378.667" x2="446.719" xlink:href="#lg3" y1="26.683" y2="26.683"/><g><g><path d="m431.05 176.05c0-96.539-77.704-174.929-173.98-176.038-96.674-1.114-176.703 76.76-178.101 173.431-.746 51.558 20.676 98.124 55.346 130.78 14.27 13.441 22.124 32.341 22.124 51.944v32.842h197.122v-33.141c0-19.446 7.804-38.189 21.975-51.505 34.172-32.112 55.514-77.72 55.514-128.313z" fill="url(#SVGID_1_)"/><path d="m257.07.012c-7.443-.086-14.787.3-22.005 1.124 87.772 9.968 155.965 84.476 155.965 174.914 0 50.593-21.342 96.201-55.514 128.314-14.171 13.316-21.975 32.06-21.975 51.505v33.141h40.02v-33.141c0-19.446 7.804-38.189 21.975-51.505 34.172-32.113 55.514-77.72 55.514-128.314 0-96.539-77.704-174.929-173.98-176.038z" fill="url(#SVGID_2_)"/><path d="m340.612 334.669h-171.224c-17.898 0-32.406 14.509-32.406 32.406 0 17.898 14.509 32.406 32.406 32.406h171.225c17.898 0 32.406-14.509 32.406-32.406 0-17.897-14.509-32.406-32.407-32.406z" fill="url(#SVGID_3_)"/><path d="m161.372 451.047c16.73 34.873 52.366 58.953 93.628 58.953s76.898-24.08 93.628-58.953z" fill="url(#SVGID_4_)"/><path d="m308.608 451.047c-13.953 29.086-41.065 50.651-73.618 57.011 6.476 1.265 13.163 1.942 20.01 1.942 41.262 0 76.898-24.08 93.628-58.953z" fill="url(#SVGID_5_)"/><path d="m340.612 399.482h-171.224c-17.898 0-32.406 14.509-32.406 32.406 0 17.898 14.509 32.406 32.406 32.406h171.225c17.898 0 32.406-14.509 32.406-32.406 0-17.898-14.509-32.406-32.407-32.406z" fill="url(#SVGID_6_)"/></g><path d="m271.561 145.764v-49.854c22.196 1.707 28.683 12.634 39.95 12.634 15.026 0 21.171-18.781 21.171-28 0-23.561-39.952-29.024-61.122-29.707v-8.537c0-4.78-6.488-9.219-12.975-9.219-7.512 0-12.975 4.439-12.975 9.219v9.561c-36.195 5.121-68.293 25.951-68.293 69.317 0 43.707 36.878 58.39 68.293 70.341v55.317c-25.268-4.439-36.879-24.585-51.221-24.585-12.975 0-23.218 17.073-23.218 28.682 0 21.854 33.463 43.024 74.439 44.39v8.536c0 4.781 5.463 9.22 12.975 9.22 6.488 0 12.975-4.439 12.975-9.22v-9.903c39.95-6.488 67.268-32.097 67.268-74.438.001-46.096-36.195-62.145-67.267-73.754zm-22.537-8.195c-12.975-5.463-21.854-11.61-21.854-21.512 0-8.195 6.489-16.048 21.854-19.122zm19.122 108.926v-45.756c12.293 5.805 20.829 12.975 20.829 24.244.001 12.292-9.219 18.78-20.829 21.512z" fill="url(#SVGID_7_)"/><path d="m340.612 334.669h-40.02c17.898 0 32.406 14.509 32.406 32.406 0 17.898-14.509 32.406-32.406 32.406h40.02c17.898 0 32.406-14.509 32.406-32.406.001-17.897-14.508-32.406-32.406-32.406z" fill="url(#SVGID_8_)"/><path d="m373.02 431.89c0 17.9-14.51 32.4-32.41 32.4h-40.02c17.9 0 32.41-14.5 32.41-32.4 0-2.55-.29-5.02-.85-7.4h-194.32c3.35-14.33 16.21-25.01 31.56-25.01h171.22c8.95 0 17.05 3.63 22.92 9.49 5.86 5.87 9.49 13.97 9.49 22.92z" fill="url(#SVGID_9_)"/><g><g><path d="m499.985 193.26h-47.143c-5.531 0-10.015-4.484-10.015-10.015s4.484-10.015 10.015-10.015h47.143c5.531 0 10.015 4.484 10.015 10.015s-4.484 10.015-10.015 10.015z" fill="url(#SVGID_10_)"/><path d="m57.159 193.26h-47.144c-5.531 0-10.015-4.484-10.015-10.015s4.484-10.015 10.015-10.015h47.144c5.531 0 10.015 4.484 10.015 10.015s-4.484 10.015-10.015 10.015z" fill="url(#SVGID_11_)"/></g><g><path d="m428.231 366.491c-2.563 0-5.126-.978-7.082-2.933l-33.336-33.336c-3.911-3.911-3.911-10.252 0-14.163 3.912-3.91 10.251-3.91 14.163 0l33.336 33.336c3.911 3.911 3.911 10.252 0 14.163-1.956 1.955-4.518 2.933-7.081 2.933z" fill="url(#SVGID_12_)"/><path d="m115.105 53.365c-2.563 0-5.126-.978-7.081-2.933l-33.336-33.336c-3.911-3.911-3.911-10.252 0-14.163s10.252-3.911 14.163 0l33.336 33.335c3.911 3.911 3.911 10.252 0 14.163-1.956 1.956-4.519 2.934-7.082 2.934z" fill="url(#SVGID_13_)"/></g><g><path d="m81.769 366.491c-2.563 0-5.126-.978-7.082-2.933-3.911-3.911-3.911-10.252 0-14.163l33.336-33.336c3.911-3.91 10.252-3.91 14.163 0 3.911 3.911 3.911 10.252 0 14.163l-33.336 33.336c-1.955 1.955-4.518 2.933-7.081 2.933z" fill="url(#SVGID_14_)"/><path d="m394.895 53.365c-2.563 0-5.126-.978-7.082-2.933-3.911-3.911-3.911-10.252 0-14.163l33.336-33.335c3.913-3.911 10.252-3.91 14.163 0 3.911 3.911 3.911 10.252 0 14.163l-33.336 33.335c-1.956 1.955-4.519 2.933-7.081 2.933z" fill="url(#SVGID_15_)"/></g></g></g></svg>