<svg id="Capa_1" enable-background="new 0 0 510 510" height="512" viewBox="0 0 510 510" width="512" xmlns="http://www.w3.org/2000/svg" xmlns:xlink="http://www.w3.org/1999/xlink"><linearGradient id="lg1"><stop offset="0" stop-color="#ffc2b5"/><stop offset="1" stop-color="#ff89a8"/></linearGradient><linearGradient id="SVGID_1_" gradientUnits="userSpaceOnUse" x1="151.338" x2="221.854" xlink:href="#lg1" y1="442.823" y2="442.823"/><linearGradient id="SVGID_2_" gradientUnits="userSpaceOnUse" x1="132.544" x2="450.571" y1="222.461" y2="222.461"><stop offset="0" stop-color="#cdbfba"/><stop offset="1" stop-color="#766e6e"/></linearGradient><linearGradient id="lg2"><stop offset="0" stop-color="#9e9797"/><stop offset="1" stop-color="#5b5555"/></linearGradient><linearGradient id="SVGID_3_" gradientUnits="userSpaceOnUse" x1="142.667" x2="280.602" xlink:href="#lg2" y1="331.205" y2="331.205"/><linearGradient id="SVGID_4_" gradientUnits="userSpaceOnUse" x1="343.333" x2="433.688" xlink:href="#lg2" y1="222.461" y2="222.461"/><linearGradient id="SVGID_5_" gradientUnits="userSpaceOnUse" x1="161.687" x2="421.352" y1="222.461" y2="222.461"><stop offset="0" stop-color="#b0e7c9"/><stop offset=".593" stop-color="#46cc8d"/><stop offset="1" stop-color="#0ab69f"/></linearGradient><linearGradient id="lg3"><stop offset="0" stop-color="#46cc8d"/><stop offset=".5484" stop-color="#0ab69f"/><stop offset="1" stop-color="#01998d"/></linearGradient><linearGradient id="SVGID_6_" gradientUnits="userSpaceOnUse" x1="132" x2="301.189" xlink:href="#lg3" y1="317.705" y2="317.705"/><linearGradient id="SVGID_7_" gradientUnits="userSpaceOnUse" x1="227.81" x2="425.469" xlink:href="#lg3" y1="237.253" y2="237.253"/><linearGradient id="SVGID_8_" gradientUnits="userSpaceOnUse" x1="337" x2="419.006" xlink:href="#lg3" y1="222.461" y2="222.461"/><linearGradient id="SVGID_9_" gradientUnits="userSpaceOnUse" x1="213.019" x2="410.678" y1="222.461" y2="222.461"><stop offset="0" stop-color="#fff9df"/><stop offset=".593" stop-color="#ffe177"/><stop offset="1" stop-color="#feb137"/></linearGradient><linearGradient id="SVGID_10_" gradientUnits="userSpaceOnUse" x1="208.723" x2="251.878" y1="295.446" y2="295.446"><stop offset="0" stop-color="#ffe177"/><stop offset="1" stop-color="#feb137"/></linearGradient><linearGradient id="SVGID_11_" gradientUnits="userSpaceOnUse" x1="75.338" x2="228.103" y1="335.87" y2="335.87"><stop offset="0" stop-color="#ffdcbd"/><stop offset=".0028" stop-color="#ffdcbd"/><stop offset="1" stop-color="#ffa9b1"/></linearGradient><linearGradient id="SVGID_12_" gradientUnits="userSpaceOnUse" x1="129.005" x2="294.823" xlink:href="#lg1" y1="335.87" y2="335.87"/><linearGradient id="SVGID_13_" gradientUnits="userSpaceOnUse" x1="108.189" x2="246.867" y1="488.75" y2="488.75"><stop offset="0" stop-color="#01d0fb"/><stop offset=".6075" stop-color="#26a6fe"/><stop offset="1" stop-color="#0182fc"/></linearGradient><g><path d="m134.338 413h115.5v59.646h-115.5z" fill="url(#SVGID_1_)"/><g><path d="m134.338 413v-381.077c0-17.631 14.292-31.923 31.923-31.923h250.183c17.63 0 31.923 14.292 31.923 31.923v381.077c0 17.63-14.292 31.923-31.923 31.923h-250.183c-17.631 0-31.923-14.292-31.923-31.923z" fill="url(#SVGID_2_)"/><path d="m192.725 342.395 34.904-34.904c23.527-23.527 23.527-61.673 0-85.2-6.407-6.407-16.794-6.407-23.2 0l-66.554 66.554c-1.205 1.205-2.379 2.436-3.537 3.678v120.477c0 17.63 14.292 31.923 31.923 31.923h74.283c3.917-9.006 6.12-18.917 6.184-29.348.211-34.517-22.616-63.724-54.003-73.18z" fill="url(#SVGID_3_)"/><path d="m416.444 0h-40.02c17.63 0 31.923 14.292 31.923 31.923v381.077c0 17.631-14.292 31.923-31.923 31.923h40.02c17.63 0 31.923-14.292 31.923-31.923v-381.077c0-17.631-14.293-31.923-31.923-31.923z" fill="url(#SVGID_4_)"/><g><path d="m163.152 390.885v-336.847c0-14.933 12.105-27.038 27.038-27.038h202.323c14.933 0 27.038 12.105 27.038 27.038v336.846c0 14.933-12.105 27.038-27.038 27.038h-202.322c-14.933.001-27.039-12.105-27.039-27.037z" fill="url(#SVGID_5_)"/><path d="m192.725 342.395 34.904-34.904c23.527-23.527 23.527-61.673 0-85.2-6.407-6.407-16.794-6.407-23.2 0l-41.276 41.276v127.317c0 14.933 12.105 27.038 27.038 27.038h56.463c.029-.781.07-1.56.075-2.348.21-34.516-22.617-63.723-54.004-73.179z" fill="url(#SVGID_6_)"/><path d="m322.705 209.936v-49.854c22.196 1.707 28.683 12.634 39.95 12.634 15.026 0 21.171-18.781 21.171-28 0-23.561-39.952-29.024-61.122-29.707v-8.537c0-4.78-6.488-9.219-12.975-9.219-7.512 0-12.975 4.439-12.975 9.219v9.561c-36.195 5.121-68.293 25.951-68.293 69.317 0 43.707 36.878 58.39 68.293 70.341v55.317c-25.268-4.439-36.879-24.585-51.221-24.585-12.975 0-23.218 17.073-23.218 28.682 0 21.854 33.463 43.024 74.439 44.39v8.536c0 4.781 5.463 9.22 12.975 9.22 6.488 0 12.975-4.439 12.975-9.22v-9.903c39.95-6.488 67.268-32.097 67.268-74.438 0-46.096-36.195-62.145-67.267-73.754zm-22.538-8.196c-12.975-5.463-21.854-11.61-21.854-21.512 0-8.195 6.489-16.048 21.854-19.122zm19.123 108.927v-45.756c12.293 5.805 20.829 12.975 20.829 24.244 0 12.292-9.22 18.78-20.829 21.512z" fill="url(#SVGID_7_)"/><path d="m408.347 32.126v380.67c6.786-4.912 11.206-12.894 11.206-21.912v-336.846c-.001-9.018-4.42-16.999-11.206-21.912z" fill="url(#SVGID_8_)"/></g><path d="m307.914 195.144v-49.854c22.196 1.707 28.683 12.634 39.95 12.634 15.026 0 21.171-18.781 21.171-28 0-23.561-39.952-29.024-61.122-29.707v-8.537c0-4.78-6.488-9.219-12.975-9.219-7.512 0-12.975 4.439-12.975 9.219v9.561c-36.195 5.121-68.293 25.951-68.293 69.317 0 43.707 36.878 58.39 68.293 70.341v55.317c-25.268-4.439-36.879-24.585-51.221-24.585-12.975 0-23.218 17.073-23.218 28.682 0 21.854 33.463 43.024 74.439 44.39v8.536c0 4.781 5.463 9.22 12.975 9.22 6.488 0 12.975-4.439 12.975-9.22v-9.903c39.95-6.488 67.268-32.097 67.268-74.438 0-46.095-36.195-62.144-67.267-73.754zm-22.538-8.195c-12.975-5.463-21.854-11.61-21.854-21.512 0-8.195 6.489-16.048 21.854-19.122zm19.123 108.926v-45.755c12.293 5.805 20.829 12.975 20.829 24.244 0 12.292-9.22 18.78-20.829 21.511z" fill="url(#SVGID_9_)"/><path d="m244.128 276.598c-4.537-2.923-8.824-4.966-13.386-4.966-12.975 0-23.218 17.073-23.218 28.682 0 6.55 3.024 13.034 8.337 18.946l11.769-11.769c8.77-8.77 14.267-19.574 16.498-30.893z" fill="url(#SVGID_10_)"/></g><path d="m174.334 324.004 34.904-34.904c23.527-23.527 23.527-61.673 0-85.2-6.407-6.407-16.794-6.407-23.2 0l-66.554 66.554c-27.543 27.543-43.017 64.9-43.017 103.852v98.34h74.919c41.921 0 76.695-33.542 76.951-75.462.21-34.518-22.616-63.725-54.003-73.18z" fill="url(#SVGID_11_)"/><path d="m174.334 324.004 34.904-34.904c23.527-23.527 23.527-61.673 0-85.2-6.407-6.407-16.794-6.407-23.2 0l-9.244 9.244c15.594 23.404 13.072 55.308-7.576 75.956l-18.703 18.703c-7.237 7.237-5.982 19.35 2.647 24.853 21.26 13.558 35.32 37.403 35.155 64.528-.256 41.92-35.03 75.462-76.951 75.462h40.02c41.921 0 76.695-33.542 76.951-75.462.21-34.518-22.616-63.725-54.003-73.18z" fill="url(#SVGID_12_)"/><path d="m252.157 510h-178.009c-6.912 0-12.514-5.603-12.514-12.514v-10.501c0-10.761 8.724-19.484 19.485-19.484h164.069c10.761 0 19.485 8.724 19.485 19.484v10.501c-.002 6.911-5.605 12.514-12.516 12.514z" fill="url(#SVGID_13_)"/></g></svg>