<svg id="Capa_1" enable-background="new 0 0 510 510" height="512" viewBox="0 0 510 510" width="512" xmlns="http://www.w3.org/2000/svg" xmlns:xlink="http://www.w3.org/1999/xlink"><linearGradient id="lg1"><stop offset="0" stop-color="#ffc2b5"/><stop offset=".2441" stop-color="#ffbbb3"/><stop offset=".6097" stop-color="#ffa6af"/><stop offset="1" stop-color="#ff89a8"/></linearGradient><linearGradient id="SVGID_1_" gradientUnits="userSpaceOnUse" x1="240.881" x2="413.614" xlink:href="#lg1" y1="407.401" y2="407.401"/><linearGradient id="SVGID_2_" gradientUnits="userSpaceOnUse" x1="274.526" x2="464.936" xlink:href="#lg1" y1="418.73" y2="418.73"/><linearGradient id="lg2"><stop offset="0" stop-color="#ffdcbd"/><stop offset=".0028" stop-color="#ffdcbd"/><stop offset="1" stop-color="#ffa9b1"/></linearGradient><linearGradient id="SVGID_3_" gradientUnits="userSpaceOnUse" x1="47.338" x2="534.684" xlink:href="#lg2" y1="427.886" y2="427.886"/><linearGradient id="SVGID_4_" gradientUnits="userSpaceOnUse" x1="48.581" x2="456.05" y1="204.902" y2="204.902"><stop offset="0" stop-color="#01d0fb"/><stop offset=".6075" stop-color="#26a6fe"/><stop offset="1" stop-color="#0182fc"/></linearGradient><linearGradient id="SVGID_5_" gradientUnits="userSpaceOnUse" x1="234.034" x2="457.787" y1="204.901" y2="204.901"><stop offset="0" stop-color="#01bffa"/><stop offset=".2539" stop-color="#1f9efc"/><stop offset=".5724" stop-color="#407afd"/><stop offset=".8326" stop-color="#5464ff"/><stop offset="1" stop-color="#5b5cff"/></linearGradient><linearGradient id="lg3"><stop offset="0" stop-color="#a2e62e"/><stop offset=".7542" stop-color="#09a76d"/><stop offset="1" stop-color="#017b4e"/></linearGradient><linearGradient id="SVGID_6_" gradientUnits="userSpaceOnUse" x1="182.331" x2="447.106" xlink:href="#lg3" y1="244.677" y2="244.677"/><linearGradient id="SVGID_7_" gradientUnits="userSpaceOnUse" x1="303.088" x2="486.38" y1="244.681" y2="244.681"><stop offset="0" stop-color="#09a76d"/><stop offset="1" stop-color="#026841"/></linearGradient><linearGradient id="SVGID_8_" gradientUnits="userSpaceOnUse" x1="19.662" x2="345.08" xlink:href="#lg3" y1="142.36" y2="142.36"/><linearGradient id="SVGID_9_" gradientUnits="userSpaceOnUse" x1="19.662" x2="345.08" xlink:href="#lg3" y1="48.013" y2="48.013"/><linearGradient id="SVGID_10_" gradientUnits="userSpaceOnUse" x1="63.665" x2="346.067" xlink:href="#lg2" y1="370.904" y2="370.904"/><linearGradient id="SVGID_11_" gradientUnits="userSpaceOnUse" x1="6.119" x2="79.95" y1="390.878" y2="390.878"><stop offset="0" stop-color="#f8f6f7"/><stop offset=".1788" stop-color="#f8f6f7"/><stop offset="1" stop-color="#e7e6f5"/></linearGradient><linearGradient id="SVGID_12_" gradientUnits="userSpaceOnUse" x1="-14.296" x2="69.978" y1="390.878" y2="390.878"><stop offset="0" stop-color="#a79ba7"/><stop offset=".7487" stop-color="#7a6d79"/><stop offset="1" stop-color="#685e68"/></linearGradient><g><g><path d="m402.634 347.414-131.33 39.588c-1.239.373-2.481.717-3.723 1.069v80.234c3.612-1.278 7.214-2.604 10.797-4.018l131.364-51.825c13.907-5.486 23.262-20.661 23.262-37.732 0-18.461-14.997-31.95-30.37-27.316z" fill="url(#SVGID_1_)"/><path d="m447.637 352.572-131.33 39.588c-16.059 4.841-32.37 7.903-48.726 9.245v84.4c18.867-3.701 37.529-9.152 55.8-16.36l131.364-51.825c13.907-5.486 23.262-20.661 23.262-37.732 0-18.461-14.997-31.95-30.37-27.316z" fill="url(#SVGID_2_)"/><path d="m47.338 380.247v86.34l103.943 30.603c67.384 19.839 138.269 16.578 204.093-9.391l131.364-51.825c13.907-5.486 23.262-20.661 23.262-37.732 0-18.461-14.997-31.95-30.37-27.316l-131.33 39.588c-60.948 18.372-125.506 11.383-182.487-19.758l-76.25-41.671c-19.645-10.737-42.225 5.927-42.225 31.162z" fill="url(#SVGID_3_)"/><g><g><circle cx="255" cy="204.902" fill="url(#SVGID_4_)" r="204.853"/><path d="m453.633 154.804c-25.126-99.623-119.274-163.612-218.52-153.809 83.54 8.253 156.788 67.725 178.5 153.809 27.668 109.702-38.834 221.062-148.535 248.73-10.078 2.542-20.17 4.282-30.21 5.274 22.92 2.264 46.612.683 70.23-5.274 109.701-27.668 176.203-139.028 148.535-248.73z" fill="url(#SVGID_5_)"/><path d="m303.71 325.766c10.521 41.714 62.234 56.706 93.231 26.875 51.237-49.31 75.328-123.946 56.692-197.836-.157-.623-.317-1.244-.479-1.864-5.931-22.63-28.956-36.279-51.64-30.558-10.954 2.763-20.361 9.763-26.153 19.462l-27.578 46.18c-7.526 12.603-3.411 28.922 9.193 36.448 12.603 7.526 16.719 23.845 9.193 36.448-11.128 18.634-29.201 32.083-50.246 37.391-9.937 2.506-15.96 12.593-13.454 22.529z" fill="url(#SVGID_6_)"/><path d="m453.153 152.94c-5.853-22.331-28.351-35.904-50.741-30.761 4.565 10.376 8.335 21.266 11.2 32.625 20.378 80.798-10.333 162.49-71.758 210.986 18.306 5.575 39.361 1.984 55.086-13.15 51.237-49.31 75.328-123.946 56.692-197.836-.156-.622-.316-1.244-.479-1.864z" fill="url(#SVGID_7_)"/><g><path d="m220.664 25.928c-19.07-11.388-42.757-12.133-62.349-1.667-47.601 25.43-82.549 68.453-98.531 118.498-8.308 26.016 2.285 54.332 25.733 68.335 12.148 7.254 20.917 19.038 24.377 32.757 4.289 17.004 21.549 27.312 38.553 23.023 27.56-6.951 44.268-34.928 37.317-62.488l-3.054-12.107c-5.065-20.084 7.11-40.472 27.194-45.537 9.645-2.432 17.928-8.597 23.028-17.137l9.759-16.342c18.034-30.199 8.173-69.3-22.027-87.335z" fill="url(#SVGID_8_)"/><circle cx="285.761" cy="48.013" fill="url(#SVGID_9_)" r="25.818"/></g></g></g><path d="m85.073 314.67c26.509-13.4 58.626-8.26 79.629 12.743l7.385 7.385c27.7 27.7 65.269 43.262 104.443 43.262h31.019c21.423 0 38.79 17.367 38.79 38.79 0 9.767-7.917 17.684-17.684 17.684h-281.317v-58.507c0-25.932 14.592-49.658 37.735-61.357z" fill="url(#SVGID_10_)"/></g><g><path d="m21.626 488.119v-194.483h26.243c22.566 0 40.859 18.293 40.859 40.859v112.765c0 22.566-18.293 40.859-40.859 40.859z" fill="url(#SVGID_11_)"/><path d="m0 487.739v-193.723c0-12.294 9.967-22.261 22.261-22.261 19.142 0 34.66 15.518 34.66 34.66v168.925c0 19.142-15.518 34.66-34.66 34.66-12.294 0-22.261-9.967-22.261-22.261z" fill="url(#SVGID_12_)"/></g></g></svg>