<svg id="Capa_1" enable-background="new 0 0 510 510" height="512" viewBox="0 0 510 510" width="512" xmlns="http://www.w3.org/2000/svg" xmlns:xlink="http://www.w3.org/1999/xlink"><linearGradient id="lg1"><stop offset="0" stop-color="#ffc2b5"/><stop offset="1" stop-color="#ff89a8"/></linearGradient><linearGradient id="SVGID_1_" gradientUnits="userSpaceOnUse" x1="89.705" x2="160.221" xlink:href="#lg1" y1="442.823" y2="442.823"/><linearGradient id="SVGID_2_" gradientUnits="userSpaceOnUse" x1="70.91" x2="388.938" y1="222.461" y2="222.461"><stop offset="0" stop-color="#cdbfba"/><stop offset="1" stop-color="#766e6e"/></linearGradient><linearGradient id="lg2"><stop offset="0" stop-color="#9e9797"/><stop offset="1" stop-color="#5b5555"/></linearGradient><linearGradient id="SVGID_3_" gradientUnits="userSpaceOnUse" x1="81.033" x2="218.969" xlink:href="#lg2" y1="331.205" y2="331.205"/><linearGradient id="SVGID_4_" gradientUnits="userSpaceOnUse" x1="281.7" x2="372.055" xlink:href="#lg2" y1="222.461" y2="222.461"/><linearGradient id="SVGID_5_" gradientUnits="userSpaceOnUse" x1="100.054" x2="359.719" y1="222.461" y2="222.461"><stop offset="0" stop-color="#b0e7c9"/><stop offset=".593" stop-color="#46cc8d"/><stop offset="1" stop-color="#0ab69f"/></linearGradient><linearGradient id="lg3"><stop offset="0" stop-color="#46cc8d"/><stop offset=".5484" stop-color="#0ab69f"/><stop offset="1" stop-color="#01998d"/></linearGradient><linearGradient id="SVGID_6_" gradientUnits="userSpaceOnUse" x1="131.301" x2="252.438" xlink:href="#lg3" y1="116.118" y2="116.118"/><linearGradient id="SVGID_7_" gradientUnits="userSpaceOnUse" x1="122" x2="243.137" y1="101.452" y2="101.452"><stop offset="0" stop-color="#fff9df"/><stop offset=".593" stop-color="#ffe177"/><stop offset="1" stop-color="#feb137"/></linearGradient><linearGradient id="SVGID_8_" gradientUnits="userSpaceOnUse" x1="232.667" x2="336.667" xlink:href="#lg3" y1="222.461" y2="222.461"/><linearGradient id="SVGID_9_" gradientUnits="userSpaceOnUse" x1="70.367" x2="239.556" xlink:href="#lg3" y1="317.705" y2="317.705"/><linearGradient id="SVGID_10_" gradientUnits="userSpaceOnUse" x1="13.705" x2="166.47" y1="335.87" y2="335.87"><stop offset="0" stop-color="#ffdcbd"/><stop offset=".0028" stop-color="#ffdcbd"/><stop offset="1" stop-color="#ffa9b1"/></linearGradient><linearGradient id="SVGID_11_" gradientUnits="userSpaceOnUse" x1="67.371" x2="233.189" xlink:href="#lg1" y1="335.87" y2="335.87"/><linearGradient id="SVGID_12_" gradientUnits="userSpaceOnUse" x1="46.556" x2="185.233" y1="488.75" y2="488.75"><stop offset="0" stop-color="#01d0fb"/><stop offset=".6075" stop-color="#26a6fe"/><stop offset="1" stop-color="#0182fc"/></linearGradient><linearGradient id="SVGID_13_" gradientUnits="userSpaceOnUse" x1="245" x2="509.371" y1="217.486" y2="217.486"><stop offset="0" stop-color="#f2fbff"/><stop offset=".593" stop-color="#faf7f7"/><stop offset="1" stop-color="#f3eae6"/></linearGradient><linearGradient id="lg4"><stop offset="0" stop-color="#f3eae6"/><stop offset="1" stop-color="#cdbfba"/></linearGradient><linearGradient id="SVGID_14_" gradientUnits="userSpaceOnUse" x1="441.697" x2="509.838" xlink:href="#lg4" y1="192.683" y2="192.683"/><linearGradient id="SVGID_15_" gradientUnits="userSpaceOnUse" x1="300.569" x2="390.754" xlink:href="#lg4" y1="306.181" y2="306.181"/><linearGradient id="SVGID_16_" gradientUnits="userSpaceOnUse" x1="304.377" x2="450.855" y1="192.683" y2="192.683"><stop offset="0" stop-color="#fe99a0"/><stop offset=".593" stop-color="#fe646f"/><stop offset="1" stop-color="#e41f2d"/></linearGradient><linearGradient id="SVGID_17_" gradientUnits="userSpaceOnUse" x1="357.681" x2="450.982" y1="192.685" y2="192.685"><stop offset="0" stop-color="#fe646f"/><stop offset=".7043" stop-color="#e41f2d"/><stop offset="1" stop-color="#c41926"/></linearGradient><g><g><path d="m72.705 413h115.5v59.646h-115.5z" fill="url(#SVGID_1_)"/><g><path d="m72.705 413v-381.077c0-17.631 14.292-31.923 31.922-31.923h250.183c17.63 0 31.923 14.292 31.923 31.923v381.077c0 17.63-14.292 31.923-31.923 31.923h-250.183c-17.63 0-31.922-14.292-31.922-31.923z" fill="url(#SVGID_2_)"/><path d="m131.092 342.395 34.904-34.904c23.527-23.527 23.527-61.673 0-85.2-6.407-6.407-16.794-6.407-23.2 0l-66.554 66.554c-1.205 1.205-2.379 2.436-3.537 3.678v120.477c0 17.63 14.292 31.923 31.923 31.923h74.283c3.917-9.006 6.12-18.917 6.184-29.348.21-34.517-22.617-63.724-54.003-73.18z" fill="url(#SVGID_3_)"/><path d="m354.81 0h-40.02c17.63 0 31.923 14.292 31.923 31.923v381.077c0 17.631-14.292 31.923-31.923 31.923h40.02c17.63 0 31.923-14.292 31.923-31.923v-381.077c0-17.631-14.292-31.923-31.923-31.923z" fill="url(#SVGID_4_)"/><g><path d="m101.519 390.885v-336.847c0-14.933 12.105-27.038 27.038-27.038h202.323c14.933 0 27.038 12.105 27.038 27.038v336.846c0 14.933-12.105 27.038-27.038 27.038h-202.323c-14.933.001-27.038-12.105-27.038-27.037z" fill="url(#SVGID_5_)"/><g><path d="m145.333 67.508h88.998c6.611 0 11.97 5.359 11.97 11.97v52.035c0 6.611-5.359 11.97-11.97 11.97-5.17 0-9.361 4.191-9.361 9.361v1.251c0 9.454-11.431 14.189-18.116 7.504l-15.008-15.008c-1.99-1.99-4.69-3.108-7.504-3.108h-39.009c-6.611 0-11.97-5.359-11.97-11.97v-52.035c.001-6.611 5.36-11.97 11.97-11.97z" fill="url(#SVGID_6_)"/><path d="m136.032 52.842h88.998c6.611 0 11.97 5.359 11.97 11.97v52.035c0 6.611-5.359 11.97-11.97 11.97-5.17 0-9.361 4.191-9.361 9.361v1.251c0 9.454-11.431 14.189-18.116 7.504l-15.008-15.008c-1.99-1.99-4.69-3.108-7.504-3.108h-39.009c-6.611 0-11.97-5.359-11.97-11.97v-52.036c.001-6.61 5.359-11.969 11.97-11.969z" fill="url(#SVGID_7_)"/></g><path d="m346.713 32.126v96.871h-57.455c-15.435 0-27.948 12.513-27.948 27.948v121.498c0 15.435 12.513 27.948 27.948 27.948 12.071 0 21.857 9.786 21.857 21.857v2.921c0 19.151 20.085 29.995 35.598 22.343v59.284c6.786-4.912 11.206-12.894 11.206-21.912v-261.887-74.959c0-9.018-4.419-16.999-11.206-21.912z" fill="url(#SVGID_8_)"/></g><path d="m131.092 342.395 34.904-34.904c23.527-23.527 23.527-61.673 0-85.2-6.407-6.407-16.794-6.407-23.2 0l-41.276 41.276v127.317c0 14.933 12.105 27.038 27.038 27.038h56.463c.029-.781.07-1.56.075-2.348.209-34.516-22.618-63.723-54.004-73.179z" fill="url(#SVGID_9_)"/></g><path d="m112.701 324.004 34.904-34.904c23.527-23.527 23.527-61.673 0-85.2-6.407-6.407-16.794-6.407-23.2 0l-66.555 66.553c-27.543 27.543-43.017 64.9-43.017 103.852v98.34h74.919c41.921 0 76.695-33.542 76.951-75.462.211-34.517-22.616-63.724-54.002-73.179z" fill="url(#SVGID_10_)"/><path d="m112.701 324.004 34.904-34.904c23.527-23.527 23.527-61.673 0-85.2-6.407-6.407-16.794-6.407-23.2 0l-9.244 9.244c15.594 23.404 13.072 55.308-7.576 75.956l-18.703 18.703c-7.237 7.237-5.982 19.35 2.647 24.853 21.26 13.558 35.32 37.403 35.155 64.528-.256 41.92-35.03 75.462-76.951 75.462h40.02c41.921 0 76.695-33.542 76.951-75.462.21-34.518-22.617-63.725-54.003-73.18z" fill="url(#SVGID_11_)"/><path d="m190.523 510h-178.009c-6.911 0-12.514-5.603-12.514-12.514v-10.501c0-10.761 8.724-19.485 19.485-19.485h164.069c10.761 0 19.485 8.724 19.485 19.484v10.501c-.001 6.912-5.604 12.515-12.516 12.515z" fill="url(#SVGID_12_)"/></g><g><path d="m482.052 103.986h-207.803c-15.435 0-27.948 12.513-27.948 27.948v121.498c0 15.435 12.513 27.948 27.948 27.948 12.071 0 21.857 9.786 21.857 21.857v2.921c0 22.075 26.69 33.13 42.299 17.521l35.042-35.042c4.647-4.647 10.949-7.258 17.521-7.258h91.084c15.435 0 27.948-12.513 27.948-27.948v-121.497c0-15.435-12.513-27.948-27.948-27.948z" fill="url(#SVGID_13_)"/><g><path d="m482.052 103.986h-40.02c15.435 0 27.948 12.513 27.948 27.948v121.498c0 15.435-12.513 27.948-27.948 27.948h40.02c15.435 0 27.948-12.513 27.948-27.948v-121.498c0-15.435-12.513-27.948-27.948-27.948z" fill="url(#SVGID_14_)"/><path d="m333.427 288.637-32.414 32.414c8.438 11.152 25.908 14.112 37.392 2.628l35.042-35.042c4.647-4.647 10.949-7.258 17.521-7.258h-40.02c-6.571.001-12.874 2.611-17.521 7.258z" fill="url(#SVGID_15_)"/></g></g><g><path d="m386.493 146.976c-4.607 4.607-12.077 4.607-16.684 0-14.804-14.804-38.805-14.804-53.608 0-14.804 14.804-14.804 38.805 0 53.608l39.685 39.685c12.297 12.297 32.234 12.297 44.531 0l39.685-39.685c14.804-14.804 14.804-38.805 0-53.608-14.805-14.803-38.806-14.803-53.609 0z" fill="url(#SVGID_16_)"/><g><path d="m440.101 146.976c-12.707-12.707-32.187-14.496-46.814-5.387 2.413 1.503 4.698 3.291 6.794 5.387 14.804 14.804 14.804 38.805 0 53.608l-39.685 39.685c-.726.726-1.48 1.405-2.255 2.045 12.37 10.206 30.704 9.526 42.276-2.045l39.685-39.685c14.803-14.803 14.803-38.804-.001-53.608z" fill="url(#SVGID_17_)"/></g></g></g></svg>