<svg id="Capa_1" enable-background="new 0 0 510 510" height="512" viewBox="0 0 510 510" width="512" xmlns="http://www.w3.org/2000/svg" xmlns:xlink="http://www.w3.org/1999/xlink"><linearGradient id="lg1"><stop offset="0" stop-color="#cdbfba"/><stop offset="1" stop-color="#766e6e"/></linearGradient><linearGradient id="SVGID_1_" gradientUnits="userSpaceOnUse" x1="107" x2="399.139" xlink:href="#lg1" y1="428.103" y2="428.103"/><linearGradient id="lg2"><stop offset="0" stop-color="#9e9797"/><stop offset="1" stop-color="#5b5555"/></linearGradient><linearGradient id="SVGID_2_" gradientUnits="userSpaceOnUse" x1="215" x2="316.242" xlink:href="#lg2" y1="391.403" y2="391.403"/><linearGradient id="SVGID_3_" gradientUnits="userSpaceOnUse" x1="1.602" x2="502.582" xlink:href="#lg1" y1="203.897" y2="203.897"/><linearGradient id="SVGID_4_" gradientUnits="userSpaceOnUse" x1="308" x2="505.649" xlink:href="#lg2" y1="203.897" y2="203.897"/><linearGradient id="SVGID_5_" gradientUnits="userSpaceOnUse" x1="-47" x2="418.244" y1="203.897" y2="203.897"><stop offset="0" stop-color="#b0e7c9"/><stop offset=".593" stop-color="#46cc8d"/><stop offset="1" stop-color="#0ab69f"/></linearGradient><linearGradient id="lg3"><stop offset="0" stop-color="#46cc8d"/><stop offset=".5484" stop-color="#0ab69f"/><stop offset="1" stop-color="#01998d"/></linearGradient><linearGradient id="SVGID_6_" gradientUnits="userSpaceOnUse" x1="406" x2="480.027" xlink:href="#lg3" y1="203.897" y2="203.897"/><linearGradient id="SVGID_7_" gradientUnits="userSpaceOnUse" x1="52.514" x2="286.727" xlink:href="#lg3" y1="223.807" y2="223.807"/><linearGradient id="lg4"><stop offset="0" stop-color="#fe99a0"/><stop offset=".593" stop-color="#fe646f"/><stop offset="1" stop-color="#e41f2d"/></linearGradient><linearGradient id="SVGID_8_" gradientUnits="userSpaceOnUse" x1="98" x2="397.526" xlink:href="#lg4" y1="211.909" y2="211.909"/><linearGradient id="lg5"><stop offset="0" stop-color="#fe646f"/><stop offset=".7043" stop-color="#e41f2d"/><stop offset="1" stop-color="#c41926"/></linearGradient><linearGradient id="SVGID_9_" gradientUnits="userSpaceOnUse" x1="166.667" x2="466.961" xlink:href="#lg5" y1="211.912" y2="211.912"/><linearGradient id="SVGID_10_" gradientUnits="userSpaceOnUse" x1="111.895" x2="398.256" xlink:href="#lg4" y1="127.303" y2="127.303"/><linearGradient id="SVGID_11_" gradientUnits="userSpaceOnUse" x1="303" x2="413.164" xlink:href="#lg5" y1="127.303" y2="127.303"/><linearGradient id="SVGID_12_" gradientUnits="userSpaceOnUse" x1="180" x2="278.184" xlink:href="#lg5" y1="240.682" y2="240.682"/><linearGradient id="SVGID_13_" gradientUnits="userSpaceOnUse" x1="284" x2="349.456" xlink:href="#lg5" y1="240.682" y2="240.682"/><linearGradient id="SVGID_14_" gradientUnits="userSpaceOnUse" x1="230" x2="305.36" xlink:href="#lg5" y1="240.682" y2="240.682"/><linearGradient id="SVGID_15_" gradientUnits="userSpaceOnUse" x1="227.814" x2="284.533" xlink:href="#lg5" y1="127.303" y2="127.303"/><linearGradient id="SVGID_16_" gradientUnits="userSpaceOnUse" x1="211.231" x2="326.942" y1="192.492" y2="192.492"><stop offset="0" stop-color="#fff9df"/><stop offset=".593" stop-color="#ffe177"/><stop offset="1" stop-color="#feb137"/></linearGradient><g><g><path d="m374.376 421.103h-23.376c-25.405 0-46-20.595-46-46h-100c0 25.405-20.595 46-46 46h-23.376c-16.347 0-30.164 12.817-30.612 29.157-.465 16.954 13.14 30.843 29.988 30.843h240c16.849 0 30.453-13.889 29.988-30.843-.448-16.341-14.265-29.157-30.612-29.157z" fill="url(#SVGID_1_)"/><path d="m194.853 403.908h120.293c-5.599-6.96-9.208-15.582-9.978-25.011h-100.336c-.771 9.43-4.38 18.051-9.979 25.011z" fill="url(#SVGID_2_)"/><path d="m478.077 378.897h-446.154c-17.631 0-31.923-14.292-31.923-31.922v-286.155c0-17.63 14.292-31.923 31.923-31.923h446.154c17.631 0 31.923 14.293 31.923 31.923v286.154c0 17.631-14.292 31.923-31.923 31.923z" fill="url(#SVGID_3_)"/><path d="m478.077 28.897h-41.025c17.63 0 31.923 14.292 31.923 31.923v286.155c0 17.63-14.292 31.923-31.923 31.923h41.025c17.63 0 31.923-14.292 31.923-31.923v-286.155c0-17.63-14.292-31.923-31.923-31.923z" fill="url(#SVGID_4_)"/><path d="m457.015 343.144h-404.03c-14.903 0-26.985-12.081-26.985-26.985v-224.524c0-14.903 12.082-26.985 26.985-26.985h404.03c14.903 0 26.985 12.082 26.985 26.985v224.524c0 14.904-12.082 26.985-26.985 26.985z" fill="url(#SVGID_5_)"/><path d="m468.975 67.445v272.904c8.902-4.41 15.025-13.583 15.025-24.19v-224.524c0-10.607-6.123-19.78-15.025-24.19z" fill="url(#SVGID_6_)"/></g><path d="m446.577 147.213c0-14.221-11.529-25.75-25.75-25.75h-291.833c-14.221 0-25.75 11.529-25.75 25.75 0 6.759 2.607 12.906 6.866 17.499l33.75 127.115c5.373 20.236 23.689 34.324 44.626 34.324h172.85c19.024 0 35.883-11.633 42.835-28.94 5.54-.008 11.077-2.124 15.303-6.35 8.469-8.469 8.469-22.2 0-30.669l-4.04-4.04 24.277-91.438c4.259-4.595 6.866-10.742 6.866-17.501z" fill="url(#SVGID_7_)"/><g><g><path d="m341.425 306.241h-172.85c-20.937 0-39.253-14.088-44.626-34.324l-33.8-127.307c-3.625-13.651 6.667-27.032 20.792-27.032h288.119c14.124 0 24.416 13.381 20.792 27.032l-33.801 127.308c-5.373 20.235-23.689 34.323-44.626 34.323z" fill="url(#SVGID_8_)"/><path d="m420.24 135.292c-1.76-9.83-10.35-17.71-21.18-17.71h-288.12c-10.83 0-19.42 7.88-21.18 17.71-.55 2.98-.45 6.14.39 9.32l6.252 23.542c1.521 5.727 6.638 9.882 12.564 9.907h.114 135.907l99.25 99.25c-6.953 17.299-23.812 28.93-42.837 28.93h40.02c20.94 0 39.26-14.09 44.63-34.32l25.53-96.17 8.27-31.14c.84-3.179.94-6.339.39-9.319zm-49.29 42.77-13.558 51.065-51.066-51.065z" fill="url(#SVGID_9_)"/><path d="m400.917 101.553h-291.834c-14.221 0-25.75 11.529-25.75 25.75 0 14.221 11.529 25.75 25.75 25.75h291.833c14.221 0 25.75-11.529 25.75-25.75.001-14.221-11.528-25.75-25.749-25.75z" fill="url(#SVGID_10_)"/><path d="m400.917 101.553h-40.02c14.221 0 25.75 11.529 25.75 25.75 0 14.221-11.529 25.75-25.75 25.75h40.02c14.221 0 25.75-11.529 25.75-25.75 0-14.221-11.529-25.75-25.75-25.75z" fill="url(#SVGID_11_)"/></g><g><path d="m187.468 286.682h-11.288c-5.763 0-10.909-3.764-12.493-9.305-.504-1.761-.935-3.582-1.288-5.455l-11.594-61.801c-1.505-8.022 4.649-15.439 12.812-15.439h16.559c6.645 0 12.226 4.998 12.956 11.603l7.257 65.637c.006.054.012.108.018.162.875 7.77-5.119 14.598-12.939 14.598z" fill="url(#SVGID_12_)"/><path d="m346.382 194.682c8.162 0 14.317 7.416 12.812 15.439l-11.594 61.801c-.353 1.873-.784 3.694-1.288 5.455-1.584 5.541-6.73 9.305-12.493 9.305h-11.288c-7.819 0-13.814-6.827-12.94-14.598.006-.054.012-.108.018-.162l7.257-65.637c.73-6.605 6.311-11.603 12.956-11.603z" fill="url(#SVGID_13_)"/><path d="m262.651 194.682c7.389 0 13.301 6.135 13.026 13.519l-2.368 63.721c-.029.797-.062 1.584-.097 2.361-.313 6.945-6.068 12.399-13.02 12.399h-10.387c-6.952 0-12.707-5.454-13.02-12.399-.035-.777-.067-1.564-.097-2.361l-2.368-63.721c-.274-7.384 5.637-13.519 13.026-13.519z" fill="url(#SVGID_14_)"/></g><circle cx="255" cy="127.303" fill="url(#SVGID_15_)" r="24.833"/><path d="m242.645 114.033c-8.469 8.469-8.469 22.2 0 30.669l126.249 126.249c8.469 8.469 22.2 8.469 30.669 0s8.469-22.2 0-30.669l-126.249-126.249c-8.469-8.469-22.2-8.469-30.669 0z" fill="url(#SVGID_16_)"/></g></g></svg>