<svg id="Capa_1" enable-background="new 0 0 510 510" height="512" viewBox="0 0 510 510" width="512" xmlns="http://www.w3.org/2000/svg" xmlns:xlink="http://www.w3.org/1999/xlink"><linearGradient id="lg1"><stop offset="0" stop-color="#ffc2b5"/><stop offset="1" stop-color="#ff89a8"/></linearGradient><linearGradient id="SVGID_1_" gradientUnits="userSpaceOnUse" x1="89.705" x2="160.221" xlink:href="#lg1" y1="382.784" y2="382.784"/><linearGradient id="SVGID_2_" gradientUnits="userSpaceOnUse" x1="58.167" x2="503.408" y1="215" y2="215"><stop offset="0" stop-color="#fff9df"/><stop offset=".593" stop-color="#ffe177"/><stop offset="1" stop-color="#feb137"/></linearGradient><linearGradient id="lg2"><stop offset="0" stop-color="#ffe177"/><stop offset="1" stop-color="#feb137"/></linearGradient><linearGradient id="SVGID_3_" gradientUnits="userSpaceOnUse" x1="-4" x2="195.878" xlink:href="#lg2" y1="262.897" y2="262.897"/><linearGradient id="SVGID_4_" gradientUnits="userSpaceOnUse" x1="180.21" x2="552" xlink:href="#lg2" y1="215" y2="215"/><linearGradient id="lg3"><stop offset="0" stop-color="#feb137"/><stop offset="1" stop-color="#eca026"/></linearGradient><linearGradient id="SVGID_5_" gradientUnits="userSpaceOnUse" x1="123.289" x2="238.383" xlink:href="#lg3" y1="246.436" y2="246.436"/><linearGradient id="SVGID_6_" gradientUnits="userSpaceOnUse" x1="234.855" x2="317.545" xlink:href="#lg3" y1="224.457" y2="224.457"/><linearGradient id="SVGID_7_" gradientUnits="userSpaceOnUse" x1="320.862" x2="381.918" xlink:href="#lg3" y1="224.883" y2="224.883"/><linearGradient id="SVGID_8_" gradientUnits="userSpaceOnUse" x1="392.102" x2="459.136" xlink:href="#lg3" y1="224.883" y2="224.883"/><linearGradient id="lg4"><stop offset="0" stop-color="#fe99a0"/><stop offset=".593" stop-color="#fe646f"/><stop offset="1" stop-color="#e41f2d"/></linearGradient><linearGradient id="SVGID_9_" gradientUnits="userSpaceOnUse" x1="118.647" x2="451.91" xlink:href="#lg4" y1="215" y2="215"/><linearGradient id="lg5"><stop offset="0" stop-color="#fe646f"/><stop offset=".7043" stop-color="#e41f2d"/><stop offset="1" stop-color="#c41926"/></linearGradient><linearGradient id="SVGID_10_" gradientUnits="userSpaceOnUse" x1="125.873" x2="348.771" xlink:href="#lg5" y1="196.303" y2="196.303"/><linearGradient id="SVGID_11_" gradientUnits="userSpaceOnUse" x1="126.748" x2="268.485" xlink:href="#lg5" y1="250.827" y2="250.827"/><linearGradient id="SVGID_12_" gradientUnits="userSpaceOnUse" x1="118.647" x2="451.91" xlink:href="#lg4" y1="214.29" y2="214.29"/><linearGradient id="SVGID_13_" gradientUnits="userSpaceOnUse" x1="118.647" x2="451.91" xlink:href="#lg4" y1="214.716" y2="214.716"/><linearGradient id="SVGID_15_" gradientUnits="userSpaceOnUse" x1="379.333" x2="456.954" xlink:href="#lg2" y1="215" y2="215"/><linearGradient id="SVGID_16_" gradientUnits="userSpaceOnUse" x1="13.705" x2="166.47" y1="275.832" y2="275.832"><stop offset="0" stop-color="#ffdcbd"/><stop offset=".0028" stop-color="#ffdcbd"/><stop offset="1" stop-color="#ffa9b1"/></linearGradient><linearGradient id="SVGID_17_" gradientUnits="userSpaceOnUse" x1="67.371" x2="233.189" xlink:href="#lg1" y1="275.832" y2="275.832"/><linearGradient id="SVGID_18_" gradientUnits="userSpaceOnUse" x1="46.556" x2="185.233" y1="428.711" y2="428.711"><stop offset="0" stop-color="#01d0fb"/><stop offset=".6075" stop-color="#26a6fe"/><stop offset="1" stop-color="#0182fc"/></linearGradient><g><path d="m72.705 352.961h115.5v59.646h-115.5z" fill="url(#SVGID_1_)"/><g><path d="m478.077 369.961h-389.411c-17.63 0-31.923-14.292-31.923-31.923v-246.077c0-17.63 14.292-31.923 31.923-31.923h389.411c17.63 0 31.923 14.292 31.923 31.923v246.077c0 17.631-14.292 31.923-31.923 31.923z" fill="url(#SVGID_2_)"/><path d="m129.478 280.742 34.904-34.904c23.527-23.527 23.527-61.673 0-85.2-6.407-6.407-16.794-6.407-23.2 0l-66.554 66.554c-6.692 6.692-12.666 13.968-17.884 21.701v89.146c0 17.631 14.292 31.923 31.923 31.923h92.97c1.165-5.165 1.81-10.527 1.844-16.039.21-34.519-22.617-63.726-54.003-73.181z" fill="url(#SVGID_3_)"/><path d="m108.858 136.084c13.072-5.138 23.431-16.544 28.082-30.924 2.385-7.374 8.976-12.198 16.218-12.198h260.427c7.242 0 13.833 4.824 16.218 12.198 4.652 14.381 15.01 25.786 28.082 30.924 6.725 2.644 11.09 9.693 11.09 17.412v123.009c0 7.719-4.364 14.768-11.09 17.412-13.072 5.138-23.431 16.544-28.082 30.924-2.385 7.374-8.976 12.198-16.218 12.198h-260.427c-7.242 0-13.833-4.824-16.218-12.198-4.652-14.381-15.01-25.786-28.082-30.924-6.725-2.644-11.09-9.693-11.09-17.412v-123.009c0-7.719 4.364-14.769 11.09-17.412z" fill="url(#SVGID_4_)"/><g><path d="m181.515 210.985c.863-6.688.604-13.489-.777-20.107.366-.012.724-.029 1.108-.029 11.652 0 14.352 5.4 19.468 5.4 6.253 0 8.811-7.815 8.811-11.652 0-11.084-20.747-12.505-28.278-12.505-2.713 0-5.445.192-8.129.588-2.533-4.298-5.644-8.35-9.335-12.042-6.407-6.407-16.794-6.407-23.2 0l-43.413 43.413v72.453c0 7.719 4.364 14.769 11.09 17.412 13.072 5.138 23.431 16.544 28.082 30.924 2.385 7.374 8.976 12.198 16.218 12.198h28.53c-5.927-26.89-26.1-48.431-52.21-56.297l15.31-15.31c4.678 7.064 17.576 12.809 32.369 12.809 20.604 0 35.525-11.084 35.525-31.546-.003-22.593-17.933-29.856-31.169-35.709zm-4.786 47.362c-8.497 0-13.292-4.345-17.408-7.449l5.06-5.06c3.652-3.652 6.734-7.657 9.253-11.904 9.095 4.226 16.879 7.887 16.879 15.033 0 6.822-7.247 9.38-13.784 9.38z" fill="url(#SVGID_5_)"/><path d="m272.222 179.481c-1.563-4.973-7.957-7.389-14.494-7.389s-12.932 2.415-14.494 7.389l-26.431 86.682c-.142.568-.284 1.137-.284 1.563 0 5.257 8.1 9.094 14.21 9.094 3.552 0 6.395-1.137 7.247-4.121l4.832-17.763h29.983l4.831 17.763c.853 2.984 3.695 4.121 7.247 4.121 6.111 0 14.21-3.837 14.21-9.094 0-.426-.143-.995-.284-1.563zm-24.867 58.404 10.373-38.083 10.373 38.083z" fill="url(#SVGID_6_)"/><path d="m361.889 257.495h-32.399v-77.871c0-4.69-5.542-6.679-11.083-6.679-5.542 0-11.084 1.989-11.084 6.679v90.375c0 4.547 4.831 6.821 9.663 6.821h44.904c4.263 0 6.394-4.832 6.394-9.664 0-4.829-2.131-9.661-6.395-9.661z" fill="url(#SVGID_7_)"/><path d="m437.488 257.495h-38.083v-24.157h21.315c4.689 0 6.679-4.547 6.679-8.384 0-4.547-2.416-8.668-6.679-8.668h-21.315v-24.016h38.083c4.263 0 6.679-4.547 6.679-9.805 0-4.547-1.99-9.521-6.679-9.521h-50.588c-4.832 0-9.663 2.274-9.663 6.821v90.234c0 4.547 4.831 6.821 9.663 6.821h50.587c4.689 0 6.679-4.974 6.679-9.521.001-5.257-2.415-9.804-6.678-9.804z" fill="url(#SVGID_8_)"/></g><g><path d="m157.468 189.209c0-4.405 4.121-8.526 14.21-8.526 11.653 0 14.352 5.4 19.468 5.4 6.253 0 8.811-7.816 8.811-11.652 0-11.084-20.746-12.505-28.278-12.505-17.763 0-36.378 8.1-36.378 29.415 0 33.252 45.046 30.268 45.046 47.461 0 6.821-7.247 9.379-13.784 9.379-13.215 0-17.478-10.515-24.157-10.515-5.4 0-9.663 7.105-9.663 11.936 0 9.378 15.631 18.473 34.246 18.473 20.604 0 35.525-11.084 35.525-31.546 0-35.81-45.046-33.11-45.046-47.32z" fill="url(#SVGID_9_)"/><g><path d="m171.679 180.683c2.432 0 4.457.243 6.213.616-2.687-6.882-6.688-13.366-12.001-19.074-15.795 1.621-30.589 10.114-30.589 29.115 0 26.529 28.671 29.993 40.265 39.041 3.906-7.738 6.045-16.137 6.4-24.603-11.88-6.263-24.498-9.048-24.498-16.569-.001-4.405 4.12-8.526 14.21-8.526z" fill="url(#SVGID_10_)"/><path d="m142.406 237.666c-5.4 0-9.663 7.105-9.663 11.936 0 5.479 5.34 10.858 13.489 14.386l16.185-16.185c-10.057-1.869-14.086-10.137-20.011-10.137z" fill="url(#SVGID_11_)"/></g><path d="m262.056 169.314c-1.563-4.973-7.957-7.389-14.494-7.389s-12.931 2.415-14.494 7.389l-26.431 86.682c-.142.568-.284 1.137-.284 1.563 0 5.257 8.1 9.094 14.21 9.094 3.552 0 6.395-1.137 7.247-4.121l4.832-17.763h29.983l4.831 17.763c.852 2.984 3.695 4.121 7.247 4.121 6.111 0 14.21-3.837 14.21-9.094 0-.426-.142-.995-.284-1.563zm-24.868 58.404 10.373-38.083 10.373 38.083z" fill="url(#SVGID_12_)"/><g fill="url(#SVGID_13_)"><path d="m351.723 247.328h-32.399v-77.871c0-4.69-5.542-6.679-11.084-6.679s-11.084 1.989-11.084 6.679v90.375c0 4.547 4.831 6.821 9.663 6.821h44.904c4.263 0 6.394-4.832 6.394-9.664 0-4.829-2.131-9.661-6.394-9.661z"/><path d="m427.321 247.328h-38.083v-24.157h21.315c4.689 0 6.679-4.547 6.679-8.384 0-4.547-2.416-8.668-6.679-8.668h-21.315v-24.015h38.083c4.263 0 6.679-4.547 6.679-9.805 0-4.547-1.99-9.521-6.679-9.521h-50.587c-4.832 0-9.663 2.274-9.663 6.821v90.234c0 4.547 4.831 6.821 9.663 6.821h50.587c4.689 0 6.679-4.973 6.679-9.521 0-5.258-2.416-9.805-6.679-9.805z"/></g></g><path d="m478.077 60.039h-41.025c17.63 0 31.923 14.292 31.923 31.923v246.077c0 17.63-14.292 31.923-31.923 31.923h41.025c17.63 0 31.923-14.292 31.923-31.923v-246.078c0-17.63-14.292-31.922-31.923-31.922z" fill="url(#SVGID_15_)"/></g><path d="m112.701 263.965 34.904-34.904c23.527-23.527 23.527-61.673 0-85.2-6.407-6.407-16.794-6.407-23.2 0l-66.555 66.554c-27.543 27.543-43.017 64.9-43.017 103.852v98.34h74.919c41.921 0 76.695-33.542 76.951-75.462.211-34.517-22.616-63.724-54.002-73.18z" fill="url(#SVGID_16_)"/><path d="m112.701 263.965 34.904-34.904c23.527-23.527 23.527-61.673 0-85.2-6.407-6.407-16.794-6.407-23.2 0l-9.244 9.244c15.594 23.404 13.072 55.308-7.576 75.956l-18.703 18.703c-7.237 7.237-5.982 19.35 2.647 24.853 21.26 13.558 35.32 37.403 35.155 64.528-.256 41.92-35.03 75.462-76.951 75.462h40.02c41.921 0 76.695-33.542 76.951-75.462.21-34.517-22.617-63.724-54.003-73.18z" fill="url(#SVGID_17_)"/><path d="m190.523 449.961h-178.009c-6.911 0-12.514-5.603-12.514-12.514v-10.501c0-10.761 8.724-19.484 19.485-19.484h164.069c10.761 0 19.485 8.724 19.485 19.484v10.501c-.001 6.911-5.604 12.514-12.516 12.514z" fill="url(#SVGID_18_)"/></g></svg>