<svg xmlns="http://www.w3.org/2000/svg" xmlns:xlink="http://www.w3.org/1999/xlink" width="30" height="30" viewBox="0 0 30 30">
  <defs>
    <linearGradient id="linear-gradient" x1="0.5" x2="0.5" y2="1" gradientUnits="objectBoundingBox">
      <stop offset="0" stop-color="#2af598"/>
      <stop offset="1" stop-color="#009efd"/>
    </linearGradient>
  </defs>
  <g id="icon_domain" transform="translate(0)">
    <path id="Path_12378" data-name="Path 12378" d="M420.437,73.124a.585.585,0,0,1-.414-.171l-.008-.008a.586.586,0,0,1,.828-.828l.008.008a.585.585,0,0,1-.414,1Zm0,0" transform="translate(-395.243 -67.729)" fill="url(#linear-gradient)"/>
    <path id="Path_12379" data-name="Path 12379" d="M103.449,221.209a.539.539,0,0,0-.553.429l-.6,1.953-.59-1.859c-.118-.354-.32-.53-.6-.53q-.4,0-.568.53l-.6,1.859-.6-1.953a.552.552,0,0,0-.561-.429.532.532,0,0,0-.4.166.559.559,0,0,0-.16.4.618.618,0,0,0,.045.236l1.01,2.706c.146.384.375.575.684.575q.436,0,.613-.523l.553-1.636.553,1.636q.182.523.611.523.471,0,.686-.575l1.01-2.706a.786.786,0,0,0,.043-.236.553.553,0,0,0-.566-.568Zm0,0" transform="translate(-92.453 -208.241)" fill="url(#linear-gradient)"/>
    <path id="Path_12380" data-name="Path 12380" d="M321.836,221.209a.539.539,0,0,0-.553.429l-.6,1.953-.59-1.859q-.177-.53-.6-.53-.4,0-.568.53l-.6,1.859-.6-1.953a.551.551,0,0,0-.56-.429.536.536,0,0,0-.4.166.559.559,0,0,0-.159.4.618.618,0,0,0,.045.236l1.01,2.706c.148.384.375.575.686.575.289,0,.493-.174.611-.523l.553-1.636.553,1.636c.123.349.327.523.611.523.316,0,.543-.191.686-.575l1.01-2.706a.752.752,0,0,0,.045-.236.556.556,0,0,0-.568-.568Zm0,0" transform="translate(-298.043 -208.241)" fill="url(#linear-gradient)"/>
    <path id="Path_12381" data-name="Path 12381" d="M212.64,221.209a.539.539,0,0,0-.553.429l-.6,1.953-.59-1.859q-.177-.53-.6-.53-.4,0-.568.53l-.6,1.859-.6-1.953a.551.551,0,0,0-.56-.429.533.533,0,0,0-.4.166.56.56,0,0,0-.16.4.623.623,0,0,0,.045.236l1.01,2.706c.148.384.375.575.686.575q.434,0,.611-.523l.553-1.636.553,1.636c.123.349.325.523.611.523q.471,0,.686-.575l1.01-2.706a.739.739,0,0,0,.043-.236.554.554,0,0,0-.566-.568Zm0,0" transform="translate(-195.246 -208.241)" fill="url(#linear-gradient)"/>
    <path id="Path_12382" data-name="Path 12382" d="M27.152,6.2a.586.586,0,0,0-.948.687A13.77,13.77,0,0,1,28.081,10.5,14.035,14.035,0,0,0,22.03,6.9a15.473,15.473,0,0,0-1.774-3.584,10.025,10.025,0,0,0-1.32-1.573A13.744,13.744,0,0,1,22.976,3.7a.585.585,0,1,0,.676-.956A15,15,0,0,0,4.393,25.606,15,15,0,0,0,30,15,14.891,14.891,0,0,0,27.152,6.2Zm-.259,10.554V15.585h1.9C28.5,17.863,26.5,19.976,23.3,21.375a2.145,2.145,0,0,0-.6-.556c.117-.509.22-1.032.306-1.562h1.4a2.5,2.5,0,0,0,2.5-2.5Zm-1.522-7.02a6.944,6.944,0,0,1,3.42,4.675h-1.9V13.255a2.5,2.5,0,0,0-2.5-2.5H23a23.251,23.251,0,0,0-.537-2.47,14.642,14.642,0,0,1,2.9,1.452Zm-3.555,1.018H15.585V8.473A2.138,2.138,0,0,0,17.021,7.1a21.456,21.456,0,0,1,4.093.744,21.508,21.508,0,0,1,.7,2.916ZM15.585,1.218a6.005,6.005,0,0,1,3.707,2.756A13.489,13.489,0,0,1,20.627,6.5a23.018,23.018,0,0,0-3.557-.573,2.137,2.137,0,0,0-1.485-1.548Zm.374,5.208A.959.959,0,1,1,15,5.466.96.96,0,0,1,15.958,6.426ZM14.414,8.473v2.283H8.184a21.479,21.479,0,0,1,.7-2.916A21.461,21.461,0,0,1,12.978,7.1a2.139,2.139,0,0,0,1.436,1.376Zm0-7.255v3.16a2.137,2.137,0,0,0-1.485,1.548A23.037,23.037,0,0,0,9.372,6.5a13.486,13.486,0,0,1,1.336-2.524,6.006,6.006,0,0,1,3.705-2.756Zm-3.357.527A10.036,10.036,0,0,0,9.743,3.312,15.459,15.459,0,0,0,7.97,6.9a14.046,14.046,0,0,0-6.043,3.593,13.89,13.89,0,0,1,9.129-8.744ZM5.72,19.257H7c.085.526.188,1.048.306,1.561a2.151,2.151,0,0,0-.6.556c-3.2-1.4-5.2-3.511-5.493-5.79H3.222v1.173a2.5,2.5,0,0,0,2.5,2.5Zm-2.5-6v1.158H1.21a6.944,6.944,0,0,1,3.42-4.675,14.643,14.643,0,0,1,2.9-1.452A23.316,23.316,0,0,0,7,10.757H5.72a2.5,2.5,0,0,0-2.5,2.5ZM1.93,19.519A12.824,12.824,0,0,0,6.3,22.476c0,.051-.006.1-.006.156a2.133,2.133,0,0,0,2.13,2.13,2.17,2.17,0,0,0,.219-.011,11.726,11.726,0,0,0,2.423,3.507A13.891,13.891,0,0,1,1.93,19.519Zm5.533,3.113a.959.959,0,1,1,.959.959A.96.96,0,0,1,7.463,22.631Zm6.951,6.151c-1.779-.287-3.448-1.875-4.685-4.47a2.147,2.147,0,0,0,.536-.614,23.8,23.8,0,0,0,4.149.456Zm0-5.8a22.65,22.65,0,0,1-3.863-.421A2.132,2.132,0,0,0,8.434,20.5c-.093-.41-.177-.826-.248-1.244h6.228Zm-8.694-4.9a1.329,1.329,0,0,1-1.326-1.328v-3.5A1.329,1.329,0,0,1,5.72,11.928H24.4a1.329,1.329,0,0,1,1.326,1.328v3.5A1.329,1.329,0,0,1,24.4,18.086Zm15.857,3.586a.959.959,0,0,1,.285.043h0a.959.959,0,1,1-.285-.043Zm-2.128.889a22.645,22.645,0,0,1-3.864.421V19.257h6.228q-.108.632-.248,1.244a2.132,2.132,0,0,0-2.117,2.059Zm-3.864,6.221V24.153a23.824,23.824,0,0,0,4.149-.455,2.142,2.142,0,0,0,.536.614c-1.236,2.6-2.9,4.183-4.685,4.47Zm3.352-.525a11.709,11.709,0,0,0,2.421-3.507,2.171,2.171,0,0,0,.219.011,2.133,2.133,0,0,0,2.13-2.13c0-.052,0-.1-.006-.155a12.828,12.828,0,0,0,4.37-2.958,13.892,13.892,0,0,1-9.134,8.739Zm0,0" transform="translate(0)" fill="url(#linear-gradient)"/>
  </g>
</svg>
