<svg id="icon_resellerhost" xmlns="http://www.w3.org/2000/svg" width="34.574" height="34.575" viewBox="0 0 34.574 34.575">
  <path id="Path_11785" data-name="Path 11785" d="M34.574,19.592V16.135c0-1.963-5.559-2.255-7.491-2.3V2.881a.576.576,0,0,0-.576-.576H20.745V.576A.576.576,0,0,0,20.168,0H.576A.576.576,0,0,0,0,.576v4.61a.576.576,0,0,0,.576.576H3.457v.576H.576A.576.576,0,0,0,0,6.915v4.61a.576.576,0,0,0,.576.576H3.457v.576H.576A.576.576,0,0,0,0,13.253v4.61a.576.576,0,0,0,.576.576H3.457v.576H.576A.576.576,0,0,0,0,19.592V24.2a.576.576,0,0,0,.576.576H3.457v6.339a.576.576,0,0,0,.576.576H18.44v.576c0,2.241,7.241,2.3,8.067,2.3s8.067-.064,8.067-2.3V28.812c0-.591-.485-1.068-1.465-1.441.981-.372,1.465-.849,1.465-1.441V22.473c0-.591-.485-1.068-1.465-1.441.981-.372,1.465-.849,1.465-1.441Zm-1.21-3.436a.619.619,0,0,1-.053.045c-.019.014-.04.029-.062.043s-.05.032-.078.048-.058.03-.086.046-.065.032-.1.048-.073.032-.112.048l-.123.05c-.043.017-.09.032-.137.048s-.094.033-.145.049l-.162.05c-.055.017-.108.032-.165.048l-.187.049c-.063.016-.122.031-.187.046l-.212.048c-.071.016-.135.03-.206.044l-.24.046-.22.04-.27.044-.234.036c-.1.014-.2.026-.3.04-.082.01-.164.022-.249.032-.1.013-.213.024-.321.035-.089.009-.173.019-.268.028-.112.01-.23.019-.346.028l-.283.023c-.124.009-.255.015-.384.023-.095.005-.186.012-.282.015-.153.008-.313.012-.472.017-.078,0-.153.006-.23.007q-.363.009-.743.009a20.274,20.274,0,0,1-6.142-.773c-.1-.037-.187-.072-.264-.106l-.062-.028a1.6,1.6,0,0,1-.4-.245l.005-.005a.852.852,0,0,1,.074-.058l.006-.005c.033-.024.077-.051.127-.079l.041-.022c.042-.023.093-.048.147-.073l.064-.03c.072-.032.154-.065.247-.1l.02-.008a20.289,20.289,0,0,1,6.139-.774c3.989,0,6.464.708,6.88,1.152-.007.005-.013.013-.023.021Zm-10.026,5.58.046,0a30.64,30.64,0,0,0,3.124.157,30.625,30.625,0,0,0,3.073-.153l.1-.009c.183-.02.358-.044.536-.066.143-.018.288-.033.43-.053a6.068,6.068,0,0,1,2.737.857c-.008.008-.014.016-.023.024l-.05.042c-.019.014-.042.03-.066.046s-.047.03-.074.045-.058.032-.091.048l-.1.046-.115.05c-.039.017-.079.032-.12.048l-.138.05c-.047.017-.095.032-.145.048l-.161.049-.168.048c-.058.016-.121.032-.184.048l-.191.047-.207.046-.211.046-.234.044c-.079.014-.149.028-.23.042l-.259.042-.245.038c-.084.012-.189.025-.288.038l-.261.033c-.1.012-.207.023-.312.034l-.274.028c-.112.01-.23.019-.346.028-.093.008-.185.016-.281.023-.126.009-.259.015-.39.023-.092,0-.181.011-.275.015-.155.008-.316.012-.477.017-.077,0-.15.006-.228.007q-.357.009-.738.009c-.327,0-.649-.006-.985-.017-.1,0-.2-.005-.3-.01l-.19-.009c-.119,0-.237-.01-.371-.021-.219-.01-.429-.026-.683-.044-.338-.029-.658-.062-.973-.1a14.874,14.874,0,0,1-2.143-.408c-.115-.033-.22-.066-.318-.1-.057-.02-.115-.038-.179-.063-.122-.045-.225-.088-.313-.127-.034-.016-.057-.029-.086-.044-.046-.022-.1-.046-.131-.066s-.051-.031-.074-.047-.047-.028-.063-.04l-.049-.038-.021-.019h0a.857.857,0,0,1,.07-.058l.01-.008c.033-.024.076-.05.126-.079l.043-.024c.042-.023.089-.046.143-.071l.07-.032c.07-.03.149-.063.237-.1l.03-.012a11.357,11.357,0,0,1,2-.476c.115.017.239.029.357.044.205.024.406.052.616.074Zm-6.05-2.72V18.44H18.44v.576ZM25.931,3.457V13.838a23.116,23.116,0,0,0-5.186.6V13.253a.576.576,0,0,0-.576-.576H17.287V12.1h2.881a.576.576,0,0,0,.576-.576V6.915a.576.576,0,0,0-.576-.576H17.287V5.762h2.881a.576.576,0,0,0,.576-.576V3.457ZM1.152,1.152h18.44V4.61H1.152ZM4.61,5.762H16.135v.576H4.61ZM1.152,7.491h18.44v3.457H1.152ZM4.61,12.1H16.135v.576H4.61ZM1.152,13.83h18.44v.992l-.01,0-.039.019c-.058.028-.123.057-.186.092l-.073.041q-.086.048-.173.105c-.023.015-.045.029-.068.045a1.955,1.955,0,0,0-.217.177c-.007.007-.013.015-.02.023a1.4,1.4,0,0,0-.159.187c-.017.023-.03.047-.045.071a1.126,1.126,0,0,0-.089.181c-.01.026-.021.052-.03.08a1.017,1.017,0,0,0-.043.289v1.152H1.152ZM4.61,18.44H16.135v.576H4.61ZM1.152,20.168H18.615l.006.008a1.36,1.36,0,0,0,.154.184c.016.017.029.037.046.054a2,2,0,0,0,.244.2l.018.01a2.646,2.646,0,0,0,.244.151c.037.02.071.035.108.053s.1.051.147.072l.01,0v.255l-.01,0-.039.019c-.058.028-.123.057-.186.092l-.073.041q-.086.048-.173.105c-.023.015-.045.029-.068.045a1.955,1.955,0,0,0-.217.177c-.007.007-.013.015-.02.023a1.4,1.4,0,0,0-.159.187c-.017.023-.03.047-.045.071a1.126,1.126,0,0,0-.089.181c-.01.026-.021.052-.03.08a1.017,1.017,0,0,0-.043.289v1.152H1.152ZM4.61,30.541V24.778H18.44v1.152c0,.591.484,1.068,1.465,1.441-.981.372-1.465.849-1.465,1.441v1.729Zm18.728-2.466c.021,0,.042,0,.063.005a30.631,30.631,0,0,0,3.107.156,30.625,30.625,0,0,0,3.073-.153l.1-.009c.183-.02.358-.044.536-.066.143-.018.288-.033.43-.053a6.068,6.068,0,0,1,2.737.857c-.008.008-.014.016-.023.024l-.05.042c-.019.014-.042.03-.066.046s-.047.03-.074.045-.058.032-.091.048l-.1.046-.115.05c-.039.017-.079.032-.12.048l-.138.05c-.047.017-.095.032-.145.048l-.161.049-.168.048c-.058.016-.121.032-.184.048l-.191.047-.207.046-.211.046-.234.044c-.079.014-.149.028-.23.042l-.259.042-.245.038c-.084.012-.189.025-.288.038l-.261.033c-.1.012-.207.023-.312.034l-.274.028c-.112.01-.23.019-.346.028-.093.008-.185.016-.281.023-.126.009-.259.015-.39.023-.092,0-.181.011-.275.015-.155.008-.316.012-.477.017-.077,0-.15.006-.228.007q-.357.009-.738.009t-.743-.009c-.078,0-.151-.005-.228-.007-.16,0-.322-.009-.477-.017-.094,0-.183-.01-.275-.015-.131-.008-.263-.014-.39-.023-.1-.006-.188-.015-.282-.023-.115-.009-.231-.018-.346-.028-.094-.009-.183-.019-.275-.029s-.21-.021-.311-.033-.173-.022-.261-.033l-.288-.038c-.1-.013-.163-.025-.244-.038l-.259-.042c-.086-.014-.153-.028-.23-.042l-.233-.044c-.075-.015-.142-.03-.211-.046s-.14-.03-.206-.046l-.191-.047c-.062-.016-.125-.032-.184-.048s-.115-.032-.168-.048-.11-.032-.162-.049l-.145-.048c-.047-.016-.095-.033-.138-.05l-.121-.048c-.039-.016-.08-.033-.115-.05l-.1-.046c-.031-.015-.063-.032-.091-.048s-.051-.03-.074-.045-.046-.031-.066-.046a.6.6,0,0,1-.05-.042.18.18,0,0,1-.023-.024,6.081,6.081,0,0,1,2.737-.857c.124.018.257.031.385.047.2.025.39.051.592.073Zm10.084,4.156c-.3.437-2.8,1.191-6.915,1.191s-6.62-.754-6.915-1.191v-2.11l.012.005c.115.051.23.1.357.147l.093.034c.131.047.266.091.4.133h.005c.14.041.288.079.434.115l.1.025c.3.071.618.133.939.187l.1.017c.324.053.651.1.974.134l.1.011c.323.036.64.065.944.088l.1.007c.3.022.588.039.853.052l.075,0c.261.012.5.02.7.026h.058c.2.005.359.008.481.008h.355c.122,0,.285,0,.481-.008h.058c.2-.006.44-.014.7-.026l.075,0c.264-.013.551-.03.853-.052l.1-.007c.3-.024.621-.053.945-.088l.1-.011c.323-.037.651-.081.974-.134l.1-.017c.32-.054.634-.115.939-.187l.1-.025c.148-.036.293-.074.433-.115h.006q.211-.062.4-.133l.093-.034c.124-.047.245-.1.357-.147l.012-.005ZM30.565,26.8a30.082,30.082,0,0,1-6.158.207c-.684-.046-1.345-.115-1.959-.207a6.194,6.194,0,0,1-2.856-.871V23.783q.168.076.361.147c.067.027.148.055.236.084.115.036.23.072.357.109a16.112,16.112,0,0,0,2.316.444c.33.042.666.077,1.02.106l.058,0c.218.016.437.032.645.041.129.012.263.018.437.025l.146.007q.165.014.331.01.5.018,1.007.018h.178c.122,0,.283,0,.478-.008h.067c.2-.005.436-.013.692-.025l.087,0c.261-.013.544-.03.842-.051l.106-.008c.3-.023.614-.052.934-.087l.11-.013c.32-.037.642-.08.962-.132l.115-.02c.156-.026.312-.053.464-.084h.011c.153-.03.3-.063.45-.1l.119-.03c.14-.034.277-.07.41-.109l.026-.007c.136-.041.267-.084.394-.129l.107-.039c.115-.044.23-.09.337-.138l.026-.01.012,2.087c-.075.139-.761.6-2.869.929Zm0-6.339a30.082,30.082,0,0,1-6.158.207c-.683-.046-1.343-.115-1.955-.207a11.528,11.528,0,0,1-2.087-.491c-.078-.028-.147-.058-.211-.082l-.016-.008a2.533,2.533,0,0,1-.539-.3l-.007,0V17.448c.051.023.1.04.141.058l.07.03.166.062a21.113,21.113,0,0,0,6.538.843h.178c.122,0,.283,0,.478-.008h.067c.2-.005.436-.013.692-.025l.087,0c.261-.013.544-.03.842-.051l.106-.008c.3-.023.614-.052.934-.087l.11-.013c.32-.037.642-.08.962-.132l.115-.02c.156-.026.312-.053.464-.084h.011c.153-.03.3-.063.45-.1l.119-.03c.14-.034.277-.07.41-.109l.026-.007c.136-.041.267-.084.394-.129l.107-.039c.115-.044.23-.09.337-.138l.026-.01.012,2.087C33.358,19.673,32.673,20.138,30.565,20.463Zm0,0" transform="translate(0 0)" fill="#515d73"/>
  <path id="Path_11786" data-name="Path 11786" d="M88.576,121.152H99.525a.576.576,0,0,0,0-1.152H88.576a.576.576,0,0,0,0,1.152Zm0,0" transform="translate(-81.661 -111.356)" fill="#515d73"/>
  <path id="Path_11787" data-name="Path 11787" d="M88.576,33.152H99.525a.576.576,0,0,0,0-1.152H88.576a.576.576,0,0,0,0,1.152Zm0,0" transform="translate(-81.661 -29.695)" fill="#515d73"/>
  <path id="Path_11788" data-name="Path 11788" d="M88.576,297.152H98.948a.576.576,0,1,0,0-1.152H88.576a.576.576,0,1,0,0,1.152Zm0,0" transform="translate(-81.661 -274.679)" fill="#515d73"/>
  <path id="Path_11789" data-name="Path 11789" d="M88.576,209.152H98.948a.576.576,0,1,0,0-1.152H88.576a.576.576,0,0,0,0,1.152Zm0,0" transform="translate(-81.661 -193.018)" fill="#515d73"/>
  <path id="Path_11790" data-name="Path 11790" d="M34.881,32.576A.576.576,0,0,0,34.3,32H32.576a.576.576,0,0,0,0,1.152H34.3A.576.576,0,0,0,34.881,32.576Zm0,0" transform="translate(-29.695 -29.695)" fill="#515d73"/>
  <path id="Path_11791" data-name="Path 11791" d="M34.881,120.576A.576.576,0,0,0,34.3,120H32.576a.576.576,0,0,0,0,1.152H34.3A.576.576,0,0,0,34.881,120.576Zm0,0" transform="translate(-29.695 -111.356)" fill="#515d73"/>
  <path id="Path_11792" data-name="Path 11792" d="M34.881,208.576A.576.576,0,0,0,34.3,208H32.576a.576.576,0,0,0,0,1.152H34.3A.576.576,0,0,0,34.881,208.576Zm0,0" transform="translate(-29.695 -193.018)" fill="#515d73"/>
  <path id="Path_11793" data-name="Path 11793" d="M34.881,296.576A.576.576,0,0,0,34.3,296H32.576a.576.576,0,1,0,0,1.152H34.3A.576.576,0,0,0,34.881,296.576Zm0,0" transform="translate(-29.695 -274.679)" fill="#515d73"/>
</svg>
