<svg id="icon_vpshost" xmlns="http://www.w3.org/2000/svg" width="34.572" height="34.567" viewBox="0 0 34.572 34.567">
  <path id="Path_11794" data-name="Path 11794" d="M320.086,344.043h1.08v1.08h-1.08Zm0,0" transform="translate(-298.476 -320.817)" fill="#515d73"/>
  <path id="Path_11795" data-name="Path 11795" d="M352.086,344.043h1.08v1.08h-1.08Zm0,0" transform="translate(-328.315 -320.817)" fill="#515d73"/>
  <path id="Path_11796" data-name="Path 11796" d="M384.086,344.043h1.08v1.08h-1.08Zm0,0" transform="translate(-358.155 -320.817)" fill="#515d73"/>
  <path id="Path_11797" data-name="Path 11797" d="M320.086,280.043h1.08v1.08h-1.08Zm0,0" transform="translate(-298.476 -261.138)" fill="#515d73"/>
  <path id="Path_11798" data-name="Path 11798" d="M352.086,280.043h1.08v1.08h-1.08Zm0,0" transform="translate(-328.315 -261.138)" fill="#515d73"/>
  <path id="Path_11799" data-name="Path 11799" d="M384.086,280.043h1.08v1.08h-1.08Zm0,0" transform="translate(-358.155 -261.138)" fill="#515d73"/>
  <path id="Path_11800" data-name="Path 11800" d="M320.086,216.043h1.08v1.08h-1.08Zm0,0" transform="translate(-298.476 -201.459)" fill="#515d73"/>
  <path id="Path_11801" data-name="Path 11801" d="M352.086,216.043h1.08v1.08h-1.08Zm0,0" transform="translate(-328.315 -201.459)" fill="#515d73"/>
  <path id="Path_11802" data-name="Path 11802" d="M384.086,216.043h1.08v1.08h-1.08Zm0,0" transform="translate(-358.155 -201.459)" fill="#515d73"/>
  <path id="Path_11803" data-name="Path 11803" d="M320.086,152.043h1.08v1.08h-1.08Zm0,0" transform="translate(-298.476 -141.779)" fill="#515d73"/>
  <path id="Path_11804" data-name="Path 11804" d="M352.086,152.043h1.08v1.08h-1.08Zm0,0" transform="translate(-328.315 -141.779)" fill="#515d73"/>
  <path id="Path_11805" data-name="Path 11805" d="M384.086,152.043h1.08v1.08h-1.08Zm0,0" transform="translate(-358.155 -141.779)" fill="#515d73"/>
  <path id="Path_11806" data-name="Path 11806" d="M416.086,344.043h4.321v1.08h-4.321Zm0,0" transform="translate(-387.995 -320.817)" fill="#515d73"/>
  <path id="Path_11807" data-name="Path 11807" d="M416.086,280.043h4.321v1.08h-4.321Zm0,0" transform="translate(-387.995 -261.138)" fill="#515d73"/>
  <path id="Path_11808" data-name="Path 11808" d="M416.086,216.043h4.321v1.08h-4.321Zm0,0" transform="translate(-387.995 -201.459)" fill="#515d73"/>
  <path id="Path_11809" data-name="Path 11809" d="M31.9,8.116a17.285,17.285,0,1,0,0,18.363h2.649V8.116Zm-1.29,0H19.427v10.9l-2.862-.818-1.458-2.914V13.506l1.29-1.032,1.338-5.35,2.1-1.169H24.7L27.25,4.537l-.008-.013a16.247,16.247,0,0,1,3.371,3.592ZM1.064,17.3A16.136,16.136,0,0,1,5.2,6.5h2.16l1.8,1.35v4.177l-.928,1.624L6.095,14.718l-1.25,1.877v3.153l3.349,2.232.671,1.566-.426,1.488L5.787,26.478H3.927A16.105,16.105,0,0,1,1.064,17.3Zm16.2,16.2a16.1,16.1,0,0,1-6.748-1.478L12.555,30.8h3.726l4.154-1.557,3.917,2.611A16.165,16.165,0,0,1,17.266,33.5Zm8.164-2.228-4.854-3.235-4.487,1.683H12.254l-2.829,1.7.05.083a16.308,16.308,0,0,1-4.739-3.941H6.061l3.29-1.794.655-2.293-.949-2.214L5.925,19.168V16.919l.91-1.365,2.178-1.089,1.232-2.155v-5L7.725,5.415H6.267A16.2,16.2,0,0,1,26.294,3.832L24.418,4.875H19.557L16.8,6.407l-1.363,5.452-1.411,1.129v2.547L15.808,19.1l3.618,1.033v6.343H30.616a16.252,16.252,0,0,1-5.186,4.793ZM33.468,25.4H20.507v-3.24H33.468Zm0-4.321H20.507v-3.24H33.468Zm0-4.321H20.507v-3.24H33.468Zm0-4.321H20.507V9.2H33.468Zm0,0" transform="translate(0.023 -0.012)" fill="#515d73"/>
  <path id="Path_11810" data-name="Path 11810" d="M416.086,152.043h4.321v1.08h-4.321Zm0,0" transform="translate(-387.995 -141.779)" fill="#515d73"/>
</svg>
