<svg id="icon_dedicatedhost" xmlns="http://www.w3.org/2000/svg" width="35.16" height="34.575" viewBox="0 0 35.16 34.575">
  <path id="Path_11811" data-name="Path 11811" d="M8.637,6.5a2.637,2.637,0,1,0,2.637,2.637A2.64,2.64,0,0,0,8.637,6.5Zm0,4.1A1.465,1.465,0,1,1,10.1,9.137,1.467,1.467,0,0,1,8.637,10.6Z" transform="translate(-2.484 -2.984)" fill="#515d73"/>
  <g id="Group_8647" data-name="Group 8647">
    <circle id="Ellipse_1776" data-name="Ellipse 1776" cx="1" cy="1" r="1" transform="translate(28.924 7)" fill="#515d73"/>
    <circle id="Ellipse_1883" data-name="Ellipse 1883" cx="1" cy="1" r="1" transform="translate(28.924 4)" fill="#515d73"/>
    <circle id="Ellipse_1779" data-name="Ellipse 1779" cx="1" cy="1" r="1" transform="translate(25.924 7)" fill="#515d73"/>
    <circle id="Ellipse_1882" data-name="Ellipse 1882" cx="1" cy="1" r="1" transform="translate(25.924 4)" fill="#515d73"/>
    <circle id="Ellipse_1805" data-name="Ellipse 1805" cx="1" cy="1" r="1" transform="translate(22.924 7)" fill="#515d73"/>
    <circle id="Ellipse_1881" data-name="Ellipse 1881" cx="1" cy="1" r="1" transform="translate(22.924 4)" fill="#515d73"/>
    <circle id="Ellipse_1806" data-name="Ellipse 1806" cx="1" cy="1" r="1" transform="translate(19.924 7)" fill="#515d73"/>
    <circle id="Ellipse_1880" data-name="Ellipse 1880" cx="1" cy="1" r="1" transform="translate(19.924 4)" fill="#515d73"/>
  </g>
  <g id="Group_8648" data-name="Group 8648" transform="translate(0 11)">
    <circle id="Ellipse_1776-2" data-name="Ellipse 1776" cx="1" cy="1" r="1" transform="translate(28.924 7)" fill="#515d73"/>
    <circle id="Ellipse_1883-2" data-name="Ellipse 1883" cx="1" cy="1" r="1" transform="translate(28.924 4)" fill="#515d73"/>
    <circle id="Ellipse_1779-2" data-name="Ellipse 1779" cx="1" cy="1" r="1" transform="translate(25.924 7)" fill="#515d73"/>
    <circle id="Ellipse_1882-2" data-name="Ellipse 1882" cx="1" cy="1" r="1" transform="translate(25.924 4)" fill="#515d73"/>
    <circle id="Ellipse_1805-2" data-name="Ellipse 1805" cx="1" cy="1" r="1" transform="translate(22.924 7)" fill="#515d73"/>
    <circle id="Ellipse_1881-2" data-name="Ellipse 1881" cx="1" cy="1" r="1" transform="translate(22.924 4)" fill="#515d73"/>
    <circle id="Ellipse_1806-2" data-name="Ellipse 1806" cx="1" cy="1" r="1" transform="translate(19.924 7)" fill="#515d73"/>
    <circle id="Ellipse_1880-2" data-name="Ellipse 1880" cx="1" cy="1" r="1" transform="translate(19.924 4)" fill="#515d73"/>
  </g>
  <g id="Group_8649" data-name="Group 8649" transform="translate(0 22)">
    <circle id="Ellipse_1776-3" data-name="Ellipse 1776" cx="1" cy="1" r="1" transform="translate(28.924 7)" fill="#515d73"/>
    <circle id="Ellipse_1883-3" data-name="Ellipse 1883" cx="1" cy="1" r="1" transform="translate(28.924 4)" fill="#515d73"/>
    <circle id="Ellipse_1779-3" data-name="Ellipse 1779" cx="1" cy="1" r="1" transform="translate(25.924 7)" fill="#515d73"/>
    <circle id="Ellipse_1882-3" data-name="Ellipse 1882" cx="1" cy="1" r="1" transform="translate(25.924 4)" fill="#515d73"/>
    <circle id="Ellipse_1805-3" data-name="Ellipse 1805" cx="1" cy="1" r="1" transform="translate(22.924 7)" fill="#515d73"/>
    <circle id="Ellipse_1881-3" data-name="Ellipse 1881" cx="1" cy="1" r="1" transform="translate(22.924 4)" fill="#515d73"/>
    <circle id="Ellipse_1806-3" data-name="Ellipse 1806" cx="1" cy="1" r="1" transform="translate(19.924 7)" fill="#515d73"/>
    <circle id="Ellipse_1880-3" data-name="Ellipse 1880" cx="1" cy="1" r="1" transform="translate(19.924 4)" fill="#515d73"/>
  </g>
  <path id="Path_11812" data-name="Path 11812" d="M35.16,10.106V3.2A2.7,2.7,0,0,0,32.46.5H2.7A2.7,2.7,0,0,0,0,3.2v6.9A2.685,2.685,0,0,0,1.041,12.22,2.687,2.687,0,0,0,0,14.335v6.9a2.685,2.685,0,0,0,1.041,2.114A2.687,2.687,0,0,0,0,25.469v6.9a2.7,2.7,0,0,0,2.7,2.7H32.459a2.7,2.7,0,0,0,2.7-2.7V25.469a2.685,2.685,0,0,0-1.041-2.114A2.684,2.684,0,0,0,35.16,21.24V14.335a2.685,2.685,0,0,0-1.041-2.114A2.685,2.685,0,0,0,35.16,10.106ZM33.988,25.469v6.9A1.53,1.53,0,0,1,32.46,33.9H2.7a1.529,1.529,0,0,1-1.528-1.528V25.469A1.53,1.53,0,0,1,2.7,23.941H32.459A1.53,1.53,0,0,1,33.988,25.469Zm0-11.134v6.9a1.53,1.53,0,0,1-1.528,1.528H2.7A1.529,1.529,0,0,1,1.172,21.24V14.335A1.53,1.53,0,0,1,2.7,12.806H32.459A1.53,1.53,0,0,1,33.988,14.335ZM2.7,11.634a1.53,1.53,0,0,1-1.528-1.528V3.2A1.53,1.53,0,0,1,2.7,1.672H32.459A1.53,1.53,0,0,1,33.988,3.2v6.9a1.53,1.53,0,0,1-1.528,1.528H2.7Z" transform="translate(0 -0.5)" fill="#515d73"/>
  <path id="Path_11813" data-name="Path 11813" d="M8.637,30.774A2.637,2.637,0,1,0,6,28.137,2.64,2.64,0,0,0,8.637,30.774Zm0-4.1a1.465,1.465,0,1,1-1.465,1.465A1.467,1.467,0,0,1,8.637,26.672Z" transform="translate(-2.484 -10.85)" fill="#515d73"/>
  <path id="Path_11814" data-name="Path 11814" d="M8.637,49.774A2.637,2.637,0,1,0,6,47.137,2.64,2.64,0,0,0,8.637,49.774Zm0-4.1a1.465,1.465,0,1,1-1.465,1.465A1.467,1.467,0,0,1,8.637,45.672Z" transform="translate(-2.484 -18.715)" fill="#515d73"/>
</svg>
