<svg id="icon_cloudhost" xmlns="http://www.w3.org/2000/svg" width="34.636" height="34.602" viewBox="0 0 34.636 34.602">
  <path id="Path_11815" data-name="Path 11815" d="M34.024,31.956H22.49V30.8a.577.577,0,0,0-.577-.577H19.607V28.5a.577.577,0,0,0-.577-.577H17.877V25.613H27.1a.577.577,0,0,0,.577-.577V21c.214,0,.422-.012.628-.031a6.92,6.92,0,1,0-1.8-13.709A7.5,7.5,0,0,0,12.8,3.568a3.99,3.99,0,0,0-1.841-.446A4.041,4.041,0,0,0,6.92,7.159,6.92,6.92,0,0,0,6.92,21v4.037a.577.577,0,0,0,.577.577h9.227v2.307H15.57a.577.577,0,0,0-.577.577v1.73H12.687a.577.577,0,0,0-.577.577v1.153H.577a.577.577,0,0,0,0,1.153H12.11v1.153a.577.577,0,0,0,.577.577h9.227a.577.577,0,0,0,.577-.577V33.109H34.024a.577.577,0,0,0,0-1.153Zm-7.5-16.724H8.074v-3.46H26.527ZM8.074,16.386H26.527v3.46H8.074Zm-6.92-2.307A5.773,5.773,0,0,1,6.92,8.312a5.232,5.232,0,0,1,.571.031.577.577,0,0,0,.628-.692,2.471,2.471,0,0,1-.046-.492,2.887,2.887,0,0,1,2.883-2.883,2.819,2.819,0,0,1,1.687.551.577.577,0,0,0,.846-.183A6.343,6.343,0,0,1,25.374,7.735c0,.067,0,.134,0,.2a.577.577,0,0,0,.732.595,5.766,5.766,0,1,1,2.1,11.287c-.173.015-.346.026-.524.026V11.2a.577.577,0,0,0-.577-.577H7.5a.577.577,0,0,0-.577.577v8.65a5.773,5.773,0,0,1-5.767-5.767ZM8.074,21H26.527v3.46H8.074ZM21.337,33.686H13.264V31.379H15.57a.577.577,0,0,0,.577-.577v-1.73h2.307V30.8a.577.577,0,0,0,.577.577h2.307Zm0,0" transform="translate(0 -0.237)" fill="#515d73"/>
  <path id="Path_11816" data-name="Path 11816" d="M130.307,297.411a1.153,1.153,0,1,1-1.153-1.153A1.153,1.153,0,0,1,130.307,297.411Zm0,0" transform="translate(-118.773 -274.919)" fill="#515d73"/>
  <path id="Path_11817" data-name="Path 11817" d="M188.687,304.835a.577.577,0,0,0-.577-.577H176.577a.577.577,0,0,0,0,1.153H188.11A.577.577,0,0,0,188.687,304.835Zm0,0" transform="translate(-163.313 -282.343)" fill="#515d73"/>
  <path id="Path_11818" data-name="Path 11818" d="M130.307,233.411a1.153,1.153,0,1,1-1.153-1.153A1.153,1.153,0,0,1,130.307,233.411Zm0,0" transform="translate(-118.773 -215.533)" fill="#515d73"/>
  <path id="Path_11819" data-name="Path 11819" d="M188.11,240.258H176.577a.577.577,0,0,0,0,1.153H188.11a.577.577,0,0,0,0-1.153Zm0,0" transform="translate(-163.313 -222.956)" fill="#515d73"/>
  <path id="Path_11820" data-name="Path 11820" d="M130.307,169.411a1.153,1.153,0,1,1-1.153-1.153A1.153,1.153,0,0,1,130.307,169.411Zm0,0" transform="translate(-118.773 -156.146)" fill="#515d73"/>
  <path id="Path_11821" data-name="Path 11821" d="M176.577,177.411H188.11a.577.577,0,0,0,0-1.153H176.577a.577.577,0,0,0,0,1.153Zm0,0" transform="translate(-163.313 -163.57)" fill="#515d73"/>
</svg>
