<svg id="Capa_1" enable-background="new 0 0 509.997 509.997" height="512" viewBox="0 0 509.997 509.997" width="512" xmlns="http://www.w3.org/2000/svg"><g><path d="m370.997 0c-70.03 0-127 56.97-127 127 0 18.66 4.11 37.06 11.96 53.83l-239.569 239.56c-5.85 5.86-5.85 15.36 0 21.22 30.399 30.399 56.406 56.39 64 64 5.86 5.85 15.36 5.85 21.22 0 5.85-5.86 5.85-15.36 0-21.22l-13.401-13.39 33-33h33.79c8.28 0 15-6.72 15-15v-25h25c8.28 0 15-6.72 15-15v-33.79l107.17-107.17c16.77 7.85 35.17 11.96 53.83 11.96 70.03 0 127-56.97 127-127 0-70.017-56.96-127-127-127zm28.081 182h-68.08c-8.266 0-15-6.719-15-15v-68c0-23.71 19.29-43 43-43 22.74 0 41.41 17.73 42.9 40.1 22.36 1.49 40.1 20.17 40.1 42.9-.001 23.68-19.241 42.96-42.92 43z" fill="#fed843"/><path d="m497.997 127c0 70.03-56.97 127-127 127-18.66 0-37.06-4.11-53.83-11.96l-107.17 107.17v33.79c0 8.28-6.72 15-15 15h-25v25c0 8.28-6.72 15-15 15h-33.79l-33 33 13.4 13.39c5.85 5.86 5.85 15.36 0 21.22-5.86 5.85-15.36 5.85-21.22 0-4.57-4.58-26.82-26.83-44-44l284.01-284.01c2.71 2.72 6.46 4.4 10.6 4.4h68.08c23.68-.04 42.92-19.32 42.92-43 0-22.73-17.74-41.41-40.1-42.9l58.86-58.86c23 23 37.24 54.74 37.24 89.76z" fill="#fabe2c"/><path d="m459.348 218.15c-19.452-77.056-71.221-83.818-98.66-36.15h42.31c6.74 0 17.47 11.19 25.08 35.79 11.772 37.5 10.57 92.815-4.85 127.49-7.45 16.77-15.56 22.72-20.23 22.72-.188 0-.375-.016-.562-.031-4.739-.451-12.508-6.571-19.668-22.689-11.618-26.126-14.524-62.314-11.78-91.28-10.239 0-20.353-1.262-29.82-3.56 0 3.126-5.995 50.37 9.921 96.178 8.068 23.086 22.647 47.749 46.878 51.038 24.707 3.355 42.458-17.199 52.681-40.196 17.729-39.881 19.345-97.296 8.7-139.31z" fill="#9f5f4e"/></g></svg>