<svg id="Capa_1" enable-background="new 0 0 512 512" height="512" viewBox="0 0 512 512" width="512" xmlns="http://www.w3.org/2000/svg"><g><g><g><g><path d="m7.5 86.973c0-44.281 36.215-80.103 80.643-79.464 43.035.619 78.028 35.912 78.3 78.95.152 24.102-10.428 45.734-27.24 60.407-1.774 1.548-1.519 4.374.508 5.573l14.975 8.86c2.421 1.432 1.405 5.144-1.408 5.143l-67.81-.017c-43.197-.802-77.968-36.064-77.968-79.452z" fill="#7acaa6"/></g></g><path d="m154.686 161.299-14.975-8.86c-2.016-1.193-2.296-4.014-.531-5.554 17.004-14.829 27.64-36.775 27.255-61.198-.667-42.245-34.859-76.922-77.092-78.153-5.989-.174-11.833.316-17.467 1.399 36.505 6.998 64.325 39.175 64.567 77.526.117 18.573-6.138 35.679-16.708 49.264-6.382 8.203-4.308 20.099 4.637 25.391l.313.185c2.395 1.417 1.423 5.057-1.32 5.136l29.912.007c2.814.001 3.83-3.71 1.409-5.143z" fill="#57be92"/><g><g><path d="m394.73 295.967h-180.286c-45.029 0-69.67-52.476-40.911-87.124l1.599-1.927c12.67-15.264 19.605-34.478 19.605-54.315v-34.766c.001-60.937 49.399-110.335 110.335-110.335 60.936 0 110.334 49.398 110.334 110.334v35.94c0 20.045 7.081 39.446 19.992 54.779 29.119 34.578 4.537 87.414-40.668 87.414z" fill="#c59191"/><path d="m489.5 385.31v119.19h-369.83v-118.29c0-26.78 16.05-50.95 40.74-61.34l59.69-25.96 20.11-8.74c15.25-6.63 25.12-21.67 25.12-38.3v-7.72h78.52v7.32c0 16.71 9.96 31.81 25.31 38.39l80.75 34.61c24.07 10.67 39.59 34.52 39.59 60.84z" fill="#fff"/><path d="m220.099 327.335c20.376 6.088 50.368 12.582 86.925 11.943 34.301-.599 62.459-7.269 82.051-13.527l9.735-23.182-29.646-12.706c-15.358-6.583-25.315-21.684-25.315-38.393v-7.315h-78.523v7.713c0 16.63-9.865 31.676-25.116 38.307l-24.011 10.44z" fill="#ffcebf"/><path d="m449.914 324.473-60.828-26.071-.011.001v206.097h100.425v-119.186c0-26.325-15.518-50.176-39.586-60.841z" fill="#8795de"/><path d="m220.1 298.91v205.59h-100.43v-118.29c0-26.78 16.05-50.95 40.74-61.34z" fill="#8795de"/><g><path d="m326.895 228.159h-17.576c-8 0-14.485-6.485-14.485-14.485 0-8 6.485-14.485 14.485-14.485h17.576c8 0 14.485 6.485 14.485 14.485 0 8-6.485 14.485-14.485 14.485z" fill="#fff"/><path d="m309.319 206.688c-3.852 0-6.985 3.134-6.985 6.985s3.134 6.985 6.985 6.985h17.576c3.852 0 6.985-3.134 6.985-6.985s-3.134-6.985-6.985-6.985z"/></g><g><circle cx="304.587" cy="380.737" r="7.243"/></g></g><g><path d="m331.806 287.253c9.033 0 17.642-1.814 25.489-5.088-8.417-7.77-13.446-18.825-13.446-30.695v-7.315h-78.523v7.713c0 6.008-1.293 11.806-3.657 17.078 11.89 11.334 27.976 18.307 45.7 18.307z" fill="#ffb09e"/><path d="m383.068 126.031v64.959c0 36.596-29.667 66.262-66.262 66.262h-24.438c-36.596 0-66.262-29.667-66.262-66.262v-64.959c0-23.807 19.3-43.107 43.107-43.107h70.748c23.808.001 43.107 19.3 43.107 43.107z" fill="#ffcebf"/><path d="m326.895 228.159h-17.576c-8 0-14.485-6.485-14.485-14.485 0-8 6.485-14.485 14.485-14.485h17.576c8 0 14.485 6.485 14.485 14.485 0 8-6.485 14.485-14.485 14.485z" fill="#685e68"/><g><path d="m320.246 65.732c1.683-21.225 22.002-35.31 41.45-42.605 32.171 19.277 53.709 54.475 53.709 94.707v7.585c-1.779.373-3.549.7-5.298.961-10.714 1.6-19.838.908-26.071 0-40.165-5.351-65.822-35.014-63.79-60.648z" fill="#b98080"/><path d="m305.072 7.5c24.918 0 47.904 8.264 66.374 22.195-9.214 16.033-30.371 47.732-70.045 71.199-29.452 17.422-57.223 23.276-74.325 25.487h-32.337v-8.547c-.001-60.936 49.397-110.334 110.333-110.334z" fill="#c59191"/></g></g></g><path d="m428.409 504.5h-240.086l-13.242-124.918c-.939-8.86 6.007-16.581 14.916-16.581h236.737c8.91 0 15.856 7.721 14.916 16.581z" fill="#efedef"/><path d="m426.734 363h-30c8.91 0 15.856 7.721 14.917 16.581l-13.242 124.919h30l13.242-124.918c.939-8.861-6.007-16.582-14.917-16.582z" fill="#e5e1e5"/><g><path d="m504.5 512h-497c-4.143 0-7.5-3.358-7.5-7.5s3.357-7.5 7.5-7.5h497c4.143 0 7.5 3.358 7.5 7.5s-3.357 7.5-7.5 7.5z" fill="#c9bfc8"/></g><circle cx="308.366" cy="433.75" fill="#c9bfc8" r="21"/></g><path d="m116.973 94.471c4.142 0 7.5-3.358 7.5-7.5s-3.358-7.5-7.5-7.5-7.5 3.358-7.5 7.5 3.358 7.5 7.5 7.5zm-60 0c4.142 0 7.5-3.358 7.5-7.5s-3.358-7.5-7.5-7.5-7.5 3.358-7.5 7.5 3.358 7.5 7.5 7.5zm30 0c4.142 0 7.5-3.358 7.5-7.5s-3.358-7.5-7.5-7.5-7.5 3.358-7.5 7.5 3.358 7.5 7.5 7.5zm-1.645 79.453c.046.001.092.001.138.001l67.809.017h.004c4.685 0 8.662-3.035 9.899-7.553 1.238-4.52-.641-9.159-4.673-11.544l-10.313-6.102c16.576-16.429 25.899-38.845 25.751-62.331-.297-46.968-38.739-85.727-85.693-86.403-48.655-.699-88.25 38.658-88.25 86.964 0 46.323 38.168 85.948 85.328 86.951zm-48.878-138.211c13.83-13.632 32.11-20.977 51.585-20.706 38.853.559 70.662 32.633 70.908 71.499.133 20.969-8.859 40.91-24.671 54.708-2.644 2.306-4.029 5.767-3.709 9.258.32 3.489 2.313 6.637 5.328 8.42l.075.044-50.426-.012c-38.981-.748-70.54-32.862-70.54-71.951 0-19.421 7.618-37.625 21.45-51.26zm468.05 461.287h-7.5v-111.69c0-29.262-17.291-55.834-44.135-67.733l-39.526-16.941c9.618-3.035 18.307-8.447 25.377-15.954 10.667-11.325 16.784-26.692 16.784-42.161 0-14.214-4.966-27.63-14.363-38.801-11.754-13.957-18.227-31.695-18.227-49.949v-35.94c0-31.478-12.259-61.066-34.517-83.313-22.258-22.26-51.849-34.518-83.322-34.518-64.972 0-117.83 52.858-117.83 117.83v34.77c.004 18.888-7.419 36.917-19.481 51.45-15.181 18.29-18.335 43.019-8.23 64.536 7.5 15.972 21.028 27.447 37.223 32.304l-39.25 17.068c-27.537 11.588-45.331 38.379-45.331 68.253v88.29c0 4.142 3.357 7.5 7.5 7.5s7.5-3.358 7.5-7.5v-88.29c0-23.822 14.189-45.187 36.231-54.462l49.198-21.394v17.034.054 28.057h-22.603c-6.37 0-12.467 2.716-16.728 7.452-4.26 4.736-6.318 11.085-5.646 17.419l12.363 116.629h-172.487c-4.143 0-7.5 3.358-7.5 7.5s3.357 7.5 7.5 7.5h180.806.073 240.028.009.01 76.074c4.143 0 7.5-3.358 7.5-7.5s-3.357-7.5-7.5-7.5zm-74.839-283.622c7.091 8.43 10.839 18.507 10.839 29.142 0 11.687-4.63 23.305-12.703 31.877-8.548 9.075-20.291 14.073-33.066 14.073h-9.774l-12.839-5.503c-11.215-4.81-18.887-15.121-20.455-26.99 23.141-12.46 38.908-36.914 38.908-64.987v-56.383c2.195.149 4.388.23 6.575.23 3.607 0 7.2-.205 10.765-.609v19.542c-.001 21.784 7.725 42.954 21.75 59.608zm-122.768 118.401c-26.831.475-53.46-2.925-79.293-10.09v-17.857l2.169-.943c.017-.007.034-.015.052-.022l13.38-5.818c14.894-6.475 25.419-19.737 28.61-35.235 6.531 1.899 13.424 2.937 20.56 2.937h24.439c7.163 0 14.082-1.046 20.635-2.959 3.296 15.427 13.861 28.57 28.762 34.962l14.28 6.12c.009.004.018.008.027.011l1.058.453v16.877c-24.272 7.232-49.367 11.122-74.679 11.564zm74.678 4.052v19.67h-153.971v-18.28c24.314 6.375 49.278 9.601 74.411 9.601 1.714 0 3.429-.015 5.144-.045 25.19-.44 50.174-4.121 74.416-10.946zm26.339-216.727c-20.659 2.791-43.946-2.743-59.99-15.174-3.273-2.536-7.984-1.94-10.522 1.335-2.537 3.274-1.939 7.985 1.335 10.522 10.489 8.126 23.14 13.85 36.838 16.736v40.831c-3.604 8.214-7.616 15.045-16.661 22.507-3.808 3.142-7.976 5.751-12.44 7.821-3.645-7.113-11.048-11.995-19.574-11.995h-17.576c-12.123 0-21.985 9.863-21.985 21.985s9.862 21.985 21.985 21.985h17.576c10.202 0 18.802-6.986 21.271-16.424 10.033-3.823 26.392-17.461 26.396-17.466-5.079 27.267-29.035 47.98-57.752 47.98h-24.441c-32.4 0-58.76-26.359-58.76-58.76v-57.974c25.473-3.993 49.538-12.613 71.608-25.667 33.604-19.877 55.159-45.851 68.167-66.372 22.257 19.823 34.918 48.242 34.525 78.13zm-74.031 94.589c-.011 3.843-3.139 6.966-6.984 6.966h-17.576c-3.852 0-6.985-3.134-6.985-6.985s3.134-6.985 6.985-6.985h17.576c3.844 0 6.971 3.121 6.984 6.962zm-131.639-95.863c0-56.701 46.129-102.83 102.831-102.83 20.335 0 39.767 5.87 56.372 16.798-11.971 19.189-32.12 43.865-63.861 62.641-21.775 12.88-45.66 21.103-70.994 24.441h-.468c-.003 0-.006 0-.01 0s-.006 0-.01 0h-23.86zm-29.134 144.38c-7.605-16.198-5.231-34.813 6.187-48.569 14.327-17.261 22.964-38.589 22.948-61.041v-18.72h16.37v57.11c0 28.089 15.787 52.555 38.949 65.008-1.449 11.959-9.098 22.406-20.34 27.294l-11.908 5.178h-10.871c-17.891 0-33.729-10.062-41.335-26.26zm261.087 116.581-12.531 118.209h-226.592l-12.531-118.209c-.227-2.143.441-4.205 1.882-5.806 1.441-1.602 3.422-2.484 5.576-2.484h236.737c2.154 0 4.135.882 5.576 2.484 1.441 1.601 2.109 3.663 1.883 5.806zm47.807 118.209h-45.255l12.363-116.627c.672-6.335-1.387-12.684-5.646-17.42-4.261-4.736-10.357-7.452-16.728-7.452h-30.164v-29.646c.001-.091.002-.181 0-.272v-15.815l50.301 21.559c21.34 9.46 35.129 30.649 35.129 53.983zm-173.635-91.75c-15.715 0-28.5 12.785-28.5 28.5s12.785 28.5 28.5 28.5 28.5-12.785 28.5-28.5-12.785-28.5-28.5-28.5zm0 42c-7.444 0-13.5-6.056-13.5-13.5s6.056-13.5 13.5-13.5 13.5 6.056 13.5 13.5-6.055 13.5-13.5 13.5z"/></g></svg>