<svg xmlns="http://www.w3.org/2000/svg" width="76" height="76" viewBox="0 0 76 76">
  <g id="icon_easy" transform="translate(-301 -1273)">
    <g id="lightbulb" transform="translate(307 1279)">
      <path id="Path_9625" data-name="Path 9625" d="M312,432h15.021v5.365H312Zm0,0" transform="translate(-270.156 -374.063)" fill="#fc8294"/>
      <path id="Path_9626" data-name="Path 9626" d="M167.5,64.68V60.968a10.729,10.729,0,1,1,6.437,0V64.68Zm0,0" transform="translate(-138.535 -34.639)" fill="#32e2a9"/>
      <path id="Path_9627" data-name="Path 9627" d="M56,432H71.021v5.365H56Zm0,0" transform="translate(-48.489 -374.063)" fill="#fc8294"/>
      <g id="Group_6449" data-name="Group 6449" transform="translate(0)">
        <path id="Path_9628" data-name="Path 9628" d="M306.74,152.828l-1.033-3.095-1.059-12.749a1.073,1.073,0,0,0-1.073-.984h-5.364a1.073,1.073,0,0,0-1.073,1l-1.052,14.737-3.813,5.724h-2.991l-1.875-4.69a1.073,1.073,0,0,0-1.212-.653l-5.365,1.073a1.073,1.073,0,0,0-.845,1.244l2.146,11.8a1.069,1.069,0,0,0,.3.566l2.909,2.9v4.92h-1.073a1.073,1.073,0,0,0-1.073,1.073v5.365a1.073,1.073,0,0,0,1.073,1.073h15.021a1.073,1.073,0,0,0,1.073-1.073V175.7a1.073,1.073,0,0,0-1.073-1.073h-1.073V171.85l3.977-3.977a1.065,1.065,0,0,0,.222-.322L306.7,157.9a1.083,1.083,0,0,0,.092-.437v-4.292a1.081,1.081,0,0,0-.054-.339Zm-8.529,27.161H285.336V176.77h12.875Zm6.437-22.758-4.118,9.265-4.151,4.151a1.073,1.073,0,0,0-.314.759v3.219h-8.583V169.26a1.073,1.073,0,0,0-.314-.759l-2.981-2.981-1.9-10.435,3.454-.691,1.814,4.535a1.074,1.074,0,0,0,1,.675h4.292a1.073,1.073,0,0,0,.893-.477l4.292-6.437a1.088,1.088,0,0,0,.18-.52l1-14.024h3.378l.987,11.891a1.1,1.1,0,0,0,.051.25l1.022,3.054Zm0,0" transform="translate(-242.42 -117.761)" fill="#01358d"/>
        <path id="Path_9629" data-name="Path 9629" d="M25.965,153.187,20.6,152.115a1.072,1.072,0,0,0-1.207.653l-1.88,4.69H14.522l-3.815-5.724L9.657,137a1.073,1.073,0,0,0-1.073-1H3.219a1.073,1.073,0,0,0-1.073.984L1.088,149.732l-1.033,3.1a1.08,1.08,0,0,0-.054.337v4.292a1.074,1.074,0,0,0,.092.435l4.292,9.656a1.06,1.06,0,0,0,.222.322l3.977,3.978v2.774H7.511A1.073,1.073,0,0,0,6.438,175.7v5.365a1.073,1.073,0,0,0,1.073,1.073H22.531a1.073,1.073,0,0,0,1.073-1.073V175.7a1.073,1.073,0,0,0-1.073-1.073H21.459V169.7l2.9-2.9a1.072,1.072,0,0,0,.3-.566l2.146-11.8a1.073,1.073,0,0,0-.841-1.244Zm-4.506,26.8H8.584V176.77H21.458Zm1.15-14.469L19.627,168.5a1.073,1.073,0,0,0-.314.759v5.365H10.729v-3.219a1.073,1.073,0,0,0-.314-.759L6.264,166.5,2.146,157.23v-3.89l1.018-3.054a1.1,1.1,0,0,0,.054-.25l.987-11.891H7.585l1,14.024a1.092,1.092,0,0,0,.178.52l4.292,6.437a1.074,1.074,0,0,0,.895.477H18.24a1.074,1.074,0,0,0,1-.675l1.814-4.535,3.454.691Zm0,0" transform="translate(0 -117.76)" fill="#01358d"/>
        <path id="Path_9630" data-name="Path 9630" d="M232,0h2.146V2.146H232Zm0,0" transform="translate(-200.886)" fill="#4f9af5"/>
        <path id="Path_9631" data-name="Path 9631" d="M149.492,31.006l1.518-1.518,1.517,1.518-1.517,1.517Zm0,0" transform="translate(-129.443 -25.534)" fill="#4f9af5"/>
        <path id="Path_9632" data-name="Path 9632" d="M120,112h2.146v2.146H120Zm0,0" transform="translate(-103.907 -96.979)" fill="#4f9af5"/>
        <path id="Path_9633" data-name="Path 9633" d="M149.492,189.4l1.518-1.517,1.517,1.517-1.517,1.517Zm0,0" transform="translate(-129.443 -162.685)" fill="#4f9af5"/>
        <path id="Path_9634" data-name="Path 9634" d="M307.887,189.4l1.517-1.517,1.517,1.517-1.517,1.517Zm0,0" transform="translate(-266.596 -162.685)" fill="#4f9af5"/>
        <path id="Path_9635" data-name="Path 9635" d="M344,112h2.146v2.146H344Zm0,0" transform="translate(-297.865 -96.979)" fill="#4f9af5"/>
        <path id="Path_9636" data-name="Path 9636" d="M307.887,31.006l1.517-1.518,1.517,1.518L309.4,32.523Zm0,0" transform="translate(-266.596 -25.534)" fill="#4f9af5"/>
        <path id="Path_9637" data-name="Path 9637" d="M175.594,43.81a11.8,11.8,0,1,0-16.094,11v6.17a2.146,2.146,0,0,0,2.146,2.146h4.292a2.146,2.146,0,0,0,2.146-2.146v-6.17A11.749,11.749,0,0,0,175.594,43.81ZM161.646,60.977V58.831h4.292v2.146Zm5.365-8.069V47.473l2.9-2.9L168.4,43.052l-3.219,3.219a1.073,1.073,0,0,0-.314.759v9.656h-2.146V47.029a1.073,1.073,0,0,0-.314-.759l-3.219-3.219-1.517,1.517,2.9,2.9v5.434a9.656,9.656,0,1,1,6.437,0Zm0,0" transform="translate(-131.605 -27.717)" fill="#01358d"/>
      </g>
    </g>
    <rect id="Rectangle_1045" data-name="Rectangle 1045" width="76" height="76" transform="translate(301 1273)" fill="none"/>
  </g>
</svg>
