<svg xmlns="http://www.w3.org/2000/svg" width="76" height="76" viewBox="0 0 76 76">
  <g id="icon_automatic" transform="translate(-715 -1273)">
    <g id="cleaner" transform="translate(723 1276.685)">
      <path id="Path_9638" data-name="Path 9638" d="M67.36,42.715a1.013,1.013,0,0,1-1.013,1.013H64.322A1.013,1.013,0,0,0,63.31,44.74,25.315,25.315,0,0,1,31.918,68.335,25.006,25.006,0,0,1,24.829,65.3,25.315,25.315,0,0,1,12.678,44.74a1.013,1.013,0,0,0-1.013-1.013H9.64a1.013,1.013,0,0,1-1.013-1.013h0a29.367,29.367,0,1,1,58.733,0Z" transform="translate(-7.602 -7.96)" fill="#8dceff"/>
      <path id="Path_9639" data-name="Path 9639" d="M63.31,48.16A1.013,1.013,0,0,1,62.3,49.173H60.272a1.013,1.013,0,0,0-1.013,1.013A25.315,25.315,0,0,1,27.867,73.78a25.8,25.8,0,0,1-3.038-1.013A25.315,25.315,0,0,1,12.678,52.211,1.013,1.013,0,0,0,11.665,51.2H9.64a1.013,1.013,0,0,1-1.013-1.013h0A29.367,29.367,0,0,1,49.011,23.978,29.367,29.367,0,0,1,63.31,48.16Z" transform="translate(-7.602 -15.43)" fill="#8dceff"/>
      <path id="Path_9640" data-name="Path 9640" d="M164.821,163.891V164.9a13.873,13.873,0,0,1-.891,4.051,14.225,14.225,0,0,1-3.332,5.063,12.183,12.183,0,0,1-1.154,1.013,14.458,14.458,0,0,1-1.316.922l-.354.2a13.941,13.941,0,0,1-7.129,1.914,13.291,13.291,0,0,1-2.025-.152,13.651,13.651,0,0,1-5.063-1.762l-.354-.2a14.462,14.462,0,0,1-1.316-.922,12.168,12.168,0,0,1-1.154-1.013,14.228,14.228,0,0,1-3.332-5.063,13.863,13.863,0,0,1-.932-4.051v-1.013a14.18,14.18,0,0,1,12.152-14.035,14.891,14.891,0,0,1,2.025-.142A14.177,14.177,0,0,1,164.821,163.891Z" transform="translate(-120.252 -128.123)" fill="#32e2a9"/>
      <path id="Path_9641" data-name="Path 9641" d="M160.771,164.941v1.013A13.872,13.872,0,0,1,159.88,170a14.225,14.225,0,0,1-3.332,5.063,12.179,12.179,0,0,1-1.154,1.013,14.454,14.454,0,0,1-1.316.922l-.354.2a13.649,13.649,0,0,1-5.063,1.762A13.651,13.651,0,0,1,143.6,177.2l-.354-.2a14.452,14.452,0,0,1-1.316-.922,12.168,12.168,0,0,1-1.154-1.013A14.228,14.228,0,0,1,137.44,170a13.856,13.856,0,0,1-.972-4.051v-1.013a14.18,14.18,0,0,1,12.152-14.035,14.179,14.179,0,0,1,12.152,14.035Z" transform="translate(-120.253 -129.173)" fill="#32e2a9"/>
      <circle id="Ellipse_1677" data-name="Ellipse 1677" cx="4.051" cy="4.051" r="4.051" transform="translate(26.339 31.717)" fill="#f9556d"/>
      <path id="Path_9642" data-name="Path 9642" d="M410.145,407.539a1.013,1.013,0,0,1-.587-1.843,32.834,32.834,0,0,0,9.873-11.139,1.025,1.025,0,0,1,1.782,1.013,34.871,34.871,0,0,1-10.532,11.787A1,1,0,0,1,410.145,407.539Z" transform="translate(-360.513 -343.417)" fill="#01358d"/>
      <path id="Path_9643" data-name="Path 9643" d="M376.6,385.27a1.013,1.013,0,0,1-.527-1.833,28.569,28.569,0,0,0,10.653-11.595,1.014,1.014,0,0,1,1.813.911,30.6,30.6,0,0,1-11.413,12.364A1.007,1.007,0,0,1,376.6,385.27Z" transform="translate(-331.014 -323.366)" fill="#01358d"/>
      <path id="Path_9644" data-name="Path 9644" d="M11.152,407.54a1.008,1.008,0,0,1-.587-.182A34.883,34.883,0,0,1,.134,395.571a1.025,1.025,0,0,1,1.782-1.013A32.834,32.834,0,0,0,11.79,405.7a1.013,1.013,0,0,1-.638,1.843Z" transform="translate(0 -343.418)" fill="#01358d"/>
      <path id="Path_9645" data-name="Path 9645" d="M38.6,385.271a1.01,1.01,0,0,1-.527-.152,30.6,30.6,0,0,1-11.412-12.364,1.014,1.014,0,0,1,1.813-.911,28.568,28.568,0,0,0,10.653,11.595,1.013,1.013,0,0,1-.527,1.833Z" transform="translate(-23.394 -323.367)" fill="#01358d"/>
      <path id="Path_9646" data-name="Path 9646" d="M30.477,62.1A26.33,26.33,0,0,1,4.148,36.78H2.123A2.024,2.024,0,0,1,.1,34.694a30.379,30.379,0,1,1,60.759,0,2.04,2.04,0,0,1-2.025,2.086H56.805A26.277,26.277,0,0,1,30.477,62.1ZM4.148,34.755A2.025,2.025,0,0,1,6.173,36.72,24.4,24.4,0,0,0,24.654,59.372a24.69,24.69,0,0,0,11.645,0A24.4,24.4,0,0,0,54.78,36.72a2.025,2.025,0,0,1,2.025-1.965h2.025a28.354,28.354,0,1,0-56.708,0Z" transform="translate(-0.085 0)" fill="#01358d"/>
      <path id="Path_9647" data-name="Path 9647" d="M216.772,428.514a2.615,2.615,0,0,1,0,.284,25.6,25.6,0,0,1-12.152,0,2.615,2.615,0,0,1,0-.284,6.076,6.076,0,0,1,12.152,0Z" transform="translate(-180.305 -368.443)" fill="#f9556d"/>
      <path id="Path_9648" data-name="Path 9648" d="M203.2,423.028a26.6,26.6,0,0,1-6.309-.759,1.012,1.012,0,0,1-.77-.871,3.685,3.685,0,0,1-.01-.395,7.089,7.089,0,1,1,14.177,0,3.635,3.635,0,0,1,0,.395,1.012,1.012,0,0,1-.77.871A26.566,26.566,0,0,1,203.2,423.028Zm-5.063-2.542a24.691,24.691,0,0,0,10.076,0,5.063,5.063,0,0,0-10.076,0Z" transform="translate(-172.812 -360.932)" fill="#01358d"/>
      <path id="Path_9649" data-name="Path 9649" d="M106.581,72.119h-2.248a1.013,1.013,0,0,1-.891-.557,21.266,21.266,0,0,0-37.883,0,1.013,1.013,0,0,1-.891.557H62.41A1.013,1.013,0,0,1,61.4,71.1a1,1,0,0,1,.089-.413l.142-.3a25.317,25.317,0,0,1,45.752,0l.142.3a1.011,1.011,0,0,1-.943,1.427Z" transform="translate(-54.104 -45.465)" fill="#8dceff"/>
      <path id="Path_9650" data-name="Path 9650" d="M99.011,65.658H96.763a2.026,2.026,0,0,1-1.792-1.1,20.253,20.253,0,0,0-36.08,0,2.026,2.026,0,0,1-1.792,1.1H54.839A2.025,2.025,0,0,1,52.986,62.8l.142-.3a26.33,26.33,0,0,1,47.6,0l.142.314a2.023,2.023,0,0,1-1.854,2.845Zm-22.086-16.2A24.446,24.446,0,0,0,54.961,63.349l-.132.283H57.1a22.278,22.278,0,0,1,39.675,0h2.248l-.132-.294A24.436,24.436,0,0,0,76.925,49.456Z" transform="translate(-46.533 -37.992)" fill="#01358d"/>
      <path id="Path_9651" data-name="Path 9651" d="M143.134,171.495a15.018,15.018,0,0,1-7.6-2.025l-.385-.223a15.349,15.349,0,0,1-1.4-1.013,13.3,13.3,0,0,1-1.246-1.094,15.189,15.189,0,0,1-3.544-5.408,14.891,14.891,0,0,1-1.013-4.354v-1.073a15,15,0,0,1,1.468-6.511,15.19,15.19,0,0,1,27.453,0,15,15,0,0,1,1.458,6.511v1.1a14.82,14.82,0,0,1-1.013,4.324,15.182,15.182,0,0,1-3.565,5.428,13.3,13.3,0,0,1-1.246,1.094,15.248,15.248,0,0,1-1.4,1.013,4.406,4.406,0,0,1-.435.243A14.917,14.917,0,0,1,143.134,171.495Zm0-28.354a13.235,13.235,0,0,0-11.9,7.524,12.984,12.984,0,0,0-1.266,5.64v.922a12.922,12.922,0,0,0,.83,3.787,13.165,13.165,0,0,0,3.1,4.7,11.058,11.058,0,0,0,1.063.932,13.852,13.852,0,0,0,1.235.861l.273.162a13.245,13.245,0,0,0,13.164,0l.324-.182a13.676,13.676,0,0,0,1.276-.841,11.053,11.053,0,0,0,1.063-.932A13.156,13.156,0,0,0,155.4,161a12.855,12.855,0,0,0,.9-3.747v-.952a12.986,12.986,0,0,0-1.266-5.64A13.235,13.235,0,0,0,143.134,143.141Z" transform="translate(-112.742 -120.538)" fill="#01358d"/>
      <path id="Path_9652" data-name="Path 9652" d="M218.235,236.543a5.063,5.063,0,1,1,5.063-5.063A5.064,5.064,0,0,1,218.235,236.543Zm0-8.1a3.038,3.038,0,1,0,3.038,3.038A3.038,3.038,0,0,0,218.235,228.442Z" transform="translate(-187.843 -195.712)" fill="#01358d"/>
      <path id="Path_9653" data-name="Path 9653" d="M248.275,183.2a1.013,1.013,0,0,1-1.013-1.013v-5.894a1.013,1.013,0,1,1,2.025,0v5.894A1.012,1.012,0,0,1,248.275,183.2Z" transform="translate(-217.883 -150.651)" fill="#01358d"/>
      <path id="Path_9654" data-name="Path 9654" d="M276.9,289.694a1.011,1.011,0,0,1-.719-.294l-2.683-2.683a1.013,1.013,0,0,1,1.428-1.428l2.684,2.684a1.013,1.013,0,0,1-.719,1.732Z" transform="translate(-240.787 -247.374)" fill="#01358d"/>
      <path id="Path_9655" data-name="Path 9655" d="M248.275,453.068a1.013,1.013,0,0,1-1.013-1.013v-3.038a1.013,1.013,0,1,1,2.025,0v3.038A1.012,1.012,0,0,1,248.275,453.068Z" transform="translate(-217.883 -390.972)" fill="#01358d"/>
    </g>
    <rect id="Rectangle_1046" data-name="Rectangle 1046" width="76" height="76" transform="translate(715 1273)" fill="none"/>
  </g>
</svg>
