<svg xmlns="http://www.w3.org/2000/svg" width="76" height="76" viewBox="0 0 76 76">
  <g id="icon_takecommand" transform="translate(-1129 -1273)">
    <g id="Group_6451" data-name="Group 6451" transform="translate(225 -153)">
      <path id="Path_9658" data-name="Path 9658" d="M11.484,63.053c0-.024,0-.047,0-.071-.022,0-.043-.007-.065-.007H10.384a1.922,1.922,0,0,0-1.916,1.916v2.068a1.922,1.922,0,0,0,1.916,1.916h1.038c.021,0,.041-.006.061-.006Z" transform="translate(906.034 1401.209)" fill="#d4fbff"/>
      <path id="Path_9660" data-name="Path 9660" d="M41.263,3.776c-12.022,0-21.8,10.256-21.8,22.863,0,.532.024,1.06.058,1.587a6.384,6.384,0,0,1,3.1-1.256c0-.111-.008-.221-.008-.331,0-10.871,8.369-19.715,18.654-19.715s18.654,8.844,18.654,19.715c0,.111-.006.221-.008.331a6.382,6.382,0,0,1,3.1,1.256c.034-.526.058-1.055.058-1.587,0-12.606-9.78-22.863-21.8-22.863Z" transform="translate(900.553 1430.725)" fill="#32e2a9"/>
      <path id="Path_9661" data-name="Path 9661" d="M20.91,49.585a6.427,6.427,0,0,0-6.427,6.427v6.477a6.427,6.427,0,0,0,6.427,6.427H23.1V49.585Z" transform="translate(903.035 1407.885)" fill="#fff"/>
      <path id="Path_9662" data-name="Path 9662" d="M14.483,59.012v4.973a6.427,6.427,0,0,0,6.427,6.427H23.1V52.585H20.91A6.426,6.426,0,0,0,14.483,59.012Z" transform="translate(903.035 1406.39)" fill="#32e2a9"/>
      <path id="Path_9663" data-name="Path 9663" d="M33.681,47.358h-.871A1.138,1.138,0,0,0,31.671,48.5V67.783a1.138,1.138,0,0,0,1.138,1.138h.871a1.138,1.138,0,0,0,1.138-1.138V48.5A1.138,1.138,0,0,0,33.681,47.358Z" transform="translate(894.465 1408.996)" fill="#6dc9f7"/>
      <path id="Path_9664" data-name="Path 9664" d="M96.407,49.585H94.215v19.33h2.192a6.427,6.427,0,0,0,6.427-6.427V56.012A6.427,6.427,0,0,0,96.407,49.585Z" transform="translate(863.281 1407.885)" fill="#fff"/>
      <path id="Path_9665" data-name="Path 9665" d="M96.407,52.585H94.215V70.411h2.192a6.427,6.427,0,0,0,6.427-6.427V59.011A6.427,6.427,0,0,0,96.407,52.585Z" transform="translate(863.281 1406.39)" fill="#32e2a9"/>
      <path id="Path_9666" data-name="Path 9666" d="M89.946,47.358h-.871A1.138,1.138,0,0,0,87.936,48.5V67.783a1.138,1.138,0,0,0,1.138,1.138h.871a1.138,1.138,0,0,0,1.138-1.138V48.5A1.138,1.138,0,0,0,89.946,47.358Z" transform="translate(866.412 1408.996)" fill="#6dc9f7"/>
      <path id="Path_9667" data-name="Path 9667" d="M58.222,42.947H53.888a5.069,5.069,0,0,0-5.069,5.069v11.23a5.069,5.069,0,0,0,5.069,5.069h4.334a5.069,5.069,0,0,0,5.069-5.069V48.016A5.069,5.069,0,0,0,58.222,42.947Z" transform="translate(885.915 1411.195)" fill="#f9556d"/>
      <path id="Path_9668" data-name="Path 9668" d="M61.068,106.966H56.246a2.1,2.1,0,0,1-2.1-2.1V99.007c-.024,0-.047.008-.072.008H52.762c-.025,0-.048-.006-.072-.008v5.862a2.1,2.1,0,0,1-2.1,2.1H45.771a2.238,2.238,0,0,0-2.238,2.238v.441H63.307V109.2a2.239,2.239,0,0,0-2.239-2.238Z" transform="translate(888.551 1383.244)" fill="#f9556d"/>
      <g id="Group_6450" data-name="Group 6450" transform="translate(931.833 1462.841)">
        <path id="Path_9669" data-name="Path 9669" d="M62.328,88.015H58.983a.937.937,0,0,0-.938.938v.338a.937.937,0,0,0,.938.938h.078V92.6a.937.937,0,0,0,.938.938h1.314a.937.937,0,0,0,.938-.938V90.228h.078a.937.937,0,0,0,.938-.938v-.338A.938.938,0,0,0,62.328,88.015Z" transform="translate(-50.518 -74.116)" fill="#0089ef"/>
        <path id="Path_9670" data-name="Path 9670" d="M81.156,60.3H80.6a.588.588,0,0,0-.589.588V63.81a.589.589,0,0,0,.589.589h.554a.589.589,0,0,0,.589-.589V60.884A.588.588,0,0,0,81.156,60.3Z" transform="translate(-61.471 -60.296)" fill="#0089ef"/>
        <path id="Path_9671" data-name="Path 9671" d="M44.177,60.3h-.554a.588.588,0,0,0-.589.588V63.81a.589.589,0,0,0,.589.589h.554a.589.589,0,0,0,.589-.589V60.884A.589.589,0,0,0,44.177,60.3Z" transform="translate(-43.034 -60.296)" fill="#0089ef"/>
      </g>
      <path id="Path_9672" data-name="Path 9672" d="M60.989,32.46h-.917a6.913,6.913,0,0,0-2.521-5.136c.021-.393.036-.787.036-1.183,0-3.8-1.745-9.052-3.366-12.326a.5.5,0,1,0-.9.445c1.571,3.173,3.262,8.244,3.262,11.881,0,.172-.008.342-.012.514a6.875,6.875,0,0,0-2.14-.786C54.294,14.846,45.76,5.924,35.284,5.924s-19.01,8.922-19.149,19.944a6.875,6.875,0,0,0-2.14.786c0-.171-.012-.342-.012-.514,0-12.33,9.555-22.361,21.3-22.361A20.467,20.467,0,0,1,47.175,7.6a.5.5,0,1,0,.581-.818,21.458,21.458,0,0,0-12.472-4c-12.3,0-22.3,10.481-22.3,23.364,0,.4.015.79.036,1.183A6.913,6.913,0,0,0,10.5,32.459h-.61a2.42,2.42,0,0,0-2.418,2.417v2.069a2.42,2.42,0,0,0,2.418,2.417h.609a6.931,6.931,0,0,0,6.917,6.715H19.2a1.636,1.636,0,0,0,1.546,1.117h.871a1.642,1.642,0,0,0,1.64-1.64V26.269a1.642,1.642,0,0,0-1.64-1.64h-.871A1.637,1.637,0,0,0,19.2,25.745H17.412c-.092,0-.181.011-.272.014.194-10.418,8.255-18.832,18.144-18.832s17.95,8.414,18.144,18.832c-.091,0-.181-.014-.272-.014H51.371a1.636,1.636,0,0,0-1.546-1.117h-.871a1.642,1.642,0,0,0-1.64,1.64V45.555a1.642,1.642,0,0,0,1.64,1.64h.871a1.637,1.637,0,0,0,1.546-1.117h1.784a6.931,6.931,0,0,0,6.917-6.715h.917a2.42,2.42,0,0,0,2.418-2.417V34.877a2.421,2.421,0,0,0-2.418-2.417ZM8.471,36.946V34.877a1.416,1.416,0,0,1,1.415-1.414h.6v4.9h-.6A1.417,1.417,0,0,1,8.471,36.946ZM20.105,26.269a.638.638,0,0,1,.637-.637h.871a.638.638,0,0,1,.637.637V45.555a.638.638,0,0,1-.637.637h-.871a.638.638,0,0,1-.637-.637Zm-1,.479V45.075h-1.69a5.931,5.931,0,0,1-5.925-5.925V32.673a5.931,5.931,0,0,1,5.925-5.925Zm31.36,18.807a.638.638,0,0,1-.637.637h-.871a.638.638,0,0,1-.637-.637V26.269a.638.638,0,0,1,.637-.637h.871a.638.638,0,0,1,.637.637Zm8.618-6.4a5.931,5.931,0,0,1-5.925,5.925H51.465V26.748h1.691a5.931,5.931,0,0,1,5.925,5.925Zm3.324-2.2a1.416,1.416,0,0,1-1.415,1.414h-.906v-4.9h.906A1.417,1.417,0,0,1,62.4,34.877Z" transform="translate(906.532 1431.224)" fill="#3a2c60"/>
      <path id="Path_9673" data-name="Path 9673" d="M93.209,17.867a.5.5,0,0,0,.825-.57,17.08,17.08,0,0,0-3.121-3.536.5.5,0,0,0-.668.749A16.2,16.2,0,0,1,93.209,17.867Z" transform="translate(865.344 1425.811)" fill="#3a2c60"/>
      <path id="Path_9674" data-name="Path 9674" d="M62.444,50.67v-.912a.5.5,0,0,0-1,0v.912a1.092,1.092,0,0,0-.865,1.066v.98h-.167v-5.2a5.576,5.576,0,0,0-5.57-5.57H50.5a5.576,5.576,0,0,0-5.57,5.57v5.2h-.167v-.98a1.091,1.091,0,0,0-.865-1.066v-.912a.5.5,0,0,0-1,0v.912a1.092,1.092,0,0,0-.865,1.066v2.926a1.091,1.091,0,0,0,.865,1.066v3.336a7.642,7.642,0,0,0,6.7,7.568,1.442,1.442,0,0,0,.978,1.065v1.93a1.44,1.44,0,0,0,.866,1.319V76.42a1.6,1.6,0,0,1-1.6,1.6H45.022a2.742,2.742,0,0,0-2.739,2.74V81.2a.5.5,0,0,0,.5.5H62.558a.5.5,0,0,0,.5-.5v-.441a2.743,2.743,0,0,0-2.739-2.74H55.5a1.6,1.6,0,0,1-1.6-1.6V70.946a1.44,1.44,0,0,0,.866-1.319V67.7a1.441,1.441,0,0,0,.978-1.065,7.642,7.642,0,0,0,6.7-7.568V55.728a1.092,1.092,0,0,0,.865-1.066V51.737A1.092,1.092,0,0,0,62.444,50.67Zm-.137,3.993a.087.087,0,0,1-.087.087h-.554a.087.087,0,0,1-.087-.087V51.737a.087.087,0,0,1,.087-.087h.554a.087.087,0,0,1,.087.087Zm-13.03-11.54V44.99a.5.5,0,0,0,1,0V43.063a.481.481,0,0,0-.02-.1c.082,0,.162-.013.245-.013h1.689a.469.469,0,0,0-.023.113V44.99a.5.5,0,1,0,1,0V43.063a.5.5,0,0,0-.023-.113h1.689c.1,0,.2.009.3.016a.488.488,0,0,0-.078.253V44.99a.5.5,0,0,0,1,0V43.218a.455.455,0,0,0-.021-.1,4.572,4.572,0,0,1,3.36,4.4v1.622H55.849a.5.5,0,0,0,0,1h3.558v1.325H55.849a.5.5,0,0,0,0,1h3.558v1.325H55.849a.5.5,0,0,0,0,1h3.558v1.325H55.849a.5.5,0,0,0,0,1h3.558v1.622a4.572,4.572,0,0,1-3.339,4.394V61.888a.5.5,0,0,0-1,0V63.3c-.075,0-.149.012-.225.012H53.173V61.888a.5.5,0,1,0-1,0v1.426H50.5c-.076,0-.15-.008-.225-.012V61.888a.5.5,0,1,0-1,0v1.254a4.572,4.572,0,0,1-3.339-4.394V57.238h3.557a.5.5,0,1,0,0-1H45.937V54.91h3.557a.5.5,0,1,0,0-1H45.937V52.583h3.557a.5.5,0,0,0,0-1H45.937V50.255h3.557a.5.5,0,0,0,0-1H45.937V47.517a4.572,4.572,0,0,1,3.339-4.394Zm-6.24,8.614a.087.087,0,0,1,.087-.087h.554a.087.087,0,0,1,.087.087v2.926a.087.087,0,0,1-.087.087h-.554a.087.087,0,0,1-.087-.087ZM55.5,79.019H60.32a1.739,1.739,0,0,1,1.735,1.676H43.287a1.739,1.739,0,0,1,1.735-1.676h4.823a2.6,2.6,0,0,0,2.6-2.6V71.066H52.9v5.353A2.6,2.6,0,0,0,55.5,79.019Zm-.718-12.7a.437.437,0,0,1-.436.436h-.078a.5.5,0,0,0-.5.5v2.368a.437.437,0,0,1-.436.436H52.014a.437.437,0,0,1-.436-.436V67.26a.5.5,0,0,0-.5-.5H51a.437.437,0,0,1-.436-.436v-.338A.437.437,0,0,1,51,65.548h3.345a.437.437,0,0,1,.436.436v.338Zm.952-.7a1.438,1.438,0,0,0-1.389-1.082H51a1.438,1.438,0,0,0-1.389,1.082A6.641,6.641,0,0,1,43.9,59.065V55.729a1.092,1.092,0,0,0,.865-1.066v-.944h.167v5.028a5.576,5.576,0,0,0,5.57,5.57h4.335a5.576,5.576,0,0,0,5.57-5.57V53.719h.167v.944a1.091,1.091,0,0,0,.865,1.066v3.336A6.641,6.641,0,0,1,55.732,65.627Z" transform="translate(889.298 1411.693)" fill="#3a2c60"/>
    </g>
    <rect id="Rectangle_1047" data-name="Rectangle 1047" width="76" height="76" transform="translate(1129 1273)" fill="none"/>
  </g>
</svg>
