<svg xmlns="http://www.w3.org/2000/svg" width="76" height="76" viewBox="0 0 76 76">
  <g id="icon_artificial" transform="translate(-1543 -1273)">
    <g id="chip_1_" data-name="chip (1)" transform="translate(1551 1280.999)">
      <path id="Path_9675" data-name="Path 9675" d="M160.112,163.86H139.5a3.747,3.747,0,0,1-3.747-3.747V139.506a3.747,3.747,0,0,1,3.747-3.747h20.608a3.747,3.747,0,0,1,3.747,3.747v20.608A3.747,3.747,0,0,1,160.112,163.86Z" transform="translate(-119.894 -119.894)" fill="#f9556d"/>
      <path id="Path_9676" data-name="Path 9676" d="M181.351,182.289H160.744a.937.937,0,0,1-.937-.937V160.745a.937.937,0,0,1,.937-.937h20.608a.937.937,0,0,1,.937.937v20.608A.937.937,0,0,1,181.351,182.289Z" transform="translate(-141.133 -141.133)" fill="#99e9df"/>
      <g id="Group_6452" data-name="Group 6452" transform="translate(2.75 20.548)">
        <circle id="Ellipse_1678" data-name="Ellipse 1678" cx="1.873" cy="1.873" r="1.873" fill="#4bd7c8"/>
        <circle id="Ellipse_1679" data-name="Ellipse 1679" cx="1.873" cy="1.873" r="1.873" transform="translate(50.583 14.988)" fill="#4bd7c8"/>
      </g>
      <g id="Group_6453" data-name="Group 6453" transform="translate(0.877 12.119)">
        <circle id="Ellipse_1680" data-name="Ellipse 1680" cx="1.873" cy="1.873" r="1.873" transform="translate(0 31.847)" fill="#99e9df"/>
        <circle id="Ellipse_1681" data-name="Ellipse 1681" cx="1.873" cy="1.873" r="1.873" transform="translate(54.329)" fill="#99e9df"/>
      </g>
      <g id="Group_6454" data-name="Group 6454" transform="translate(20.547 2.751)">
        <circle id="Ellipse_1682" data-name="Ellipse 1682" cx="1.873" cy="1.873" r="1.873" transform="translate(14.988)" fill="#4bd7c8"/>
        <circle id="Ellipse_1683" data-name="Ellipse 1683" cx="1.873" cy="1.873" r="1.873" transform="translate(0 50.583)" fill="#4bd7c8"/>
      </g>
      <g id="Group_6455" data-name="Group 6455" transform="translate(12.118 0.878)">
        <circle id="Ellipse_1684" data-name="Ellipse 1684" cx="1.873" cy="1.873" r="1.873" fill="#32e2a9"/>
        <circle id="Ellipse_1685" data-name="Ellipse 1685" cx="1.873" cy="1.873" r="1.873" transform="translate(31.847 54.329)" fill="#32e2a9"/>
      </g>
      <path id="Path_9677" data-name="Path 9677" d="M192.286,193.182a.937.937,0,0,1,.7.313,3.292,3.292,0,0,0,2.463,1.079,3.033,3.033,0,0,0,3.134-2.612.938.938,0,0,1,.462-.734,3.244,3.244,0,0,0,1.673-2.743,3.059,3.059,0,0,0-.923-2.151.937.937,0,0,1,0-1.318,3.06,3.06,0,0,0,.923-2.151,3.332,3.332,0,0,0-2.57-3.1.937.937,0,0,1-.654-1.111,2.087,2.087,0,0,0,.062-.47,2.5,2.5,0,0,0-2.634-2.342,2.787,2.787,0,0,0-1.97.792.965.965,0,0,1-1.328,0,2.787,2.787,0,0,0-1.97-.792,2.5,2.5,0,0,0-2.634,2.342,2.176,2.176,0,0,0,.05.461.936.936,0,0,1-.656,1.1,3.336,3.336,0,0,0-2.556,3.12,2.975,2.975,0,0,0,.709,1.9.937.937,0,0,1,.023,1.161,3.453,3.453,0,0,0-.732,2.088,3.646,3.646,0,0,0,1.694,3,.938.938,0,0,1,.417.772,3.011,3.011,0,0,0,3.158,2.789,3.292,3.292,0,0,0,2.463-1.079A.936.936,0,0,1,192.286,193.182Z" transform="translate(-162.372 -155.292)" fill="#32e2a9"/>
      <path id="Path_9678" data-name="Path 9678" d="M143.916,29.039H129.805V27.045h3.807a.876.876,0,0,0,0-1.753h-3.807V23.3h2.643a3.662,3.662,0,0,0,2.607-1.08l5.764-5.764a2.748,2.748,0,1,0-1.239-1.239l-5.764,5.764a1.921,1.921,0,0,1-1.367.566h-2.643V19.612a4.628,4.628,0,0,0-4.623-4.623h-1.934V7.23a2.75,2.75,0,1,0-1.753,0v7.758H119.5V11.181a.876.876,0,1,0-1.753,0v3.807h-1.994V.877a.876.876,0,0,0-1.753,0V14.988h-1.994V11.181a.876.876,0,1,0-1.753,0v3.807h-1.994V12.345a3.662,3.662,0,0,0-1.08-2.607l-5.766-5.766a2.751,2.751,0,1,0-1.239,1.239l5.766,5.766a1.921,1.921,0,0,1,.566,1.367v2.643h-1.934a4.643,4.643,0,0,0-1.155.146.876.876,0,0,0,.437,1.7,2.886,2.886,0,0,1,.718-.09h20.607a2.874,2.874,0,0,1,2.87,2.87V40.219a2.887,2.887,0,0,1-.09.718.876.876,0,1,0,1.7.436,4.638,4.638,0,0,0,.145-1.154V38.285h7.758a2.75,2.75,0,1,0,0-1.753h-7.758V34.538h3.807a.876.876,0,1,0,0-1.753h-3.807V30.792h14.111a.876.876,0,1,0,0-1.753Zm-2.578-15.753a1,1,0,1,1,0,1.41h0a1,1,0,0,1,0-1.41ZM122.372,3.627a1,1,0,1,1-1,1A1,1,0,0,1,122.372,3.627ZM98.249,3.456a1,1,0,1,1,1.41,0h0A1,1,0,0,1,98.249,3.456Zm41.92,32.956a1,1,0,1,1-1,1A1,1,0,0,1,140.169,36.412Z" transform="translate(-84.964)" fill="#01358d"/>
      <path id="Path_9679" data-name="Path 9679" d="M44.617,189.127l-5.766-5.766a1.921,1.921,0,0,1-.566-1.367V179.35h1.934a4.64,4.64,0,0,0,1.155-.146.876.876,0,1,0-.437-1.7,2.885,2.885,0,0,1-.718.09H19.611a2.874,2.874,0,0,1-2.87-2.87V154.12a2.883,2.883,0,0,1,.09-.718.876.876,0,0,0-1.7-.437,4.633,4.633,0,0,0-.146,1.155v1.934H7.229a2.75,2.75,0,1,0,0,1.753h7.758V159.8H11.18a.876.876,0,1,0,0,1.753h3.807v1.994H.876a.876.876,0,0,0,0,1.753H14.987v1.994H11.18a.876.876,0,1,0,0,1.753h3.807v1.994H12.344a3.662,3.662,0,0,0-2.607,1.08l-5.764,5.764a2.748,2.748,0,1,0,1.24,1.239l5.764-5.764a1.921,1.921,0,0,1,1.367-.566h2.643v1.934a4.628,4.628,0,0,0,4.623,4.623h1.934v7.758a2.75,2.75,0,1,0,1.753,0V179.35h1.994v3.807a.876.876,0,1,0,1.753,0V179.35h1.994v14.111a.876.876,0,0,0,1.753,0V179.35h1.994v3.807a.876.876,0,0,0,1.753,0V179.35h1.994v2.643a3.662,3.662,0,0,0,1.08,2.607l5.766,5.766a2.75,2.75,0,1,0,1.239-1.239Zm-39.994-31.2a1,1,0,1,1,1-1A1,1,0,0,1,4.623,157.927ZM3.455,181.052a1,1,0,1,1,0-1.41h0a1,1,0,0,1,0,1.41Zm18.966,9.659a1,1,0,1,1,1-1A1,1,0,0,1,22.421,190.711Zm24.123,1.581a1,1,0,1,1,0-1.41A1,1,0,0,1,46.543,192.293Z" transform="translate(0 -134.508)" fill="#01358d"/>
      <path id="Path_9680" data-name="Path 9680" d="M178.464,185.138v0a3.879,3.879,0,0,0,4.038,3.687,4.181,4.181,0,0,0,3.161-1.4,4.181,4.181,0,0,0,3.161,1.4,3.905,3.905,0,0,0,4.029-3.459,4.1,4.1,0,0,0,2.116-3.506,3.95,3.95,0,0,0-1.219-2.81,3.951,3.951,0,0,0,1.219-2.81,4.233,4.233,0,0,0-3.248-3.978,2.992,2.992,0,0,0,.086-.706,3.378,3.378,0,0,0-3.511-3.218,3.646,3.646,0,0,0-2.634,1.094,3.646,3.646,0,0,0-2.634-1.094,3.378,3.378,0,0,0-3.511,3.218,2.992,2.992,0,0,0,.086.706,4.233,4.233,0,0,0-3.248,3.978,3.849,3.849,0,0,0,.923,2.494,4.334,4.334,0,0,0-.923,2.658A4.514,4.514,0,0,0,178.464,185.138Zm2.435-11.3h.023a.876.876,0,0,0,.744-1.338c-.007-.011-.013-.022-.02-.032l-.012-.016c-.014-.019-.027-.038-.043-.056v0a1.3,1.3,0,0,1-.321-.841,1.787,1.787,0,0,1,3.516,0,.876.876,0,1,0,1.753,0,1.787,1.787,0,0,1,3.516,0,1.232,1.232,0,0,1-.131.552,4.867,4.867,0,0,0-1.438.361.876.876,0,1,0,.681,1.615,3.164,3.164,0,0,1,1.212-.245h.048a2.63,2.63,0,0,1,2.79,2.4,2.338,2.338,0,0,1-1.349,2.035.876.876,0,0,0,0,1.55,2.338,2.338,0,0,1,1.349,2.035,2.242,2.242,0,0,1-.772,1.648,3.934,3.934,0,0,0-2.3-1.855.876.876,0,0,0-.525,1.672,1.988,1.988,0,0,1,1.494,1.814,2.317,2.317,0,0,1-4.57,0v-5.62a2.134,2.134,0,0,1,2.285-1.934.876.876,0,1,0,0-1.753,4.284,4.284,0,0,0-2.285.649v-1.119a.876.876,0,1,0-1.753,0v4.865a4.175,4.175,0,0,0-.968-.448.876.876,0,0,0-.525,1.672,1.988,1.988,0,0,1,1.494,1.814v1.873a2.317,2.317,0,0,1-4.57,0,1.767,1.767,0,0,1,.545-1.251.876.876,0,0,0-1.236-1.243,3.727,3.727,0,0,0-.541.679,2.673,2.673,0,0,1-.877-1.932,2.985,2.985,0,0,1,2.478-2.774.876.876,0,1,0-.392-1.708,5.339,5.339,0,0,0-1.608.655,2.115,2.115,0,0,1-.478-1.325A2.631,2.631,0,0,1,180.9,173.84Z" transform="translate(-155.749 -148.668)"/>
    </g>
    <g id="chip_1_2" data-name="chip (1)" transform="translate(1551 1280.999)">
      <path id="Path_9675-2" data-name="Path 9675" d="M160.112,163.86H139.5a3.747,3.747,0,0,1-3.747-3.747V139.506a3.747,3.747,0,0,1,3.747-3.747h20.608a3.747,3.747,0,0,1,3.747,3.747v20.608A3.747,3.747,0,0,1,160.112,163.86Z" transform="translate(-119.894 -119.894)" fill="#f9556d"/>
      <path id="Path_9676-2" data-name="Path 9676" d="M181.351,182.289H160.744a.937.937,0,0,1-.937-.937V160.745a.937.937,0,0,1,.937-.937h20.608a.937.937,0,0,1,.937.937v20.608A.937.937,0,0,1,181.351,182.289Z" transform="translate(-141.133 -141.133)" fill="#99e9df"/>
      <g id="Group_6452-2" data-name="Group 6452" transform="translate(2.75 20.548)">
        <circle id="Ellipse_1678-2" data-name="Ellipse 1678" cx="1.873" cy="1.873" r="1.873" fill="#4bd7c8"/>
        <circle id="Ellipse_1679-2" data-name="Ellipse 1679" cx="1.873" cy="1.873" r="1.873" transform="translate(50.583 14.988)" fill="#4bd7c8"/>
      </g>
      <g id="Group_6453-2" data-name="Group 6453" transform="translate(0.877 12.119)">
        <circle id="Ellipse_1680-2" data-name="Ellipse 1680" cx="1.873" cy="1.873" r="1.873" transform="translate(0 31.847)" fill="#99e9df"/>
        <circle id="Ellipse_1681-2" data-name="Ellipse 1681" cx="1.873" cy="1.873" r="1.873" transform="translate(54.329)" fill="#99e9df"/>
      </g>
      <g id="Group_6454-2" data-name="Group 6454" transform="translate(20.547 2.751)">
        <circle id="Ellipse_1682-2" data-name="Ellipse 1682" cx="1.873" cy="1.873" r="1.873" transform="translate(14.988)" fill="#4bd7c8"/>
        <circle id="Ellipse_1683-2" data-name="Ellipse 1683" cx="1.873" cy="1.873" r="1.873" transform="translate(0 50.583)" fill="#4bd7c8"/>
      </g>
      <g id="Group_6455-2" data-name="Group 6455" transform="translate(12.118 0.878)">
        <circle id="Ellipse_1684-2" data-name="Ellipse 1684" cx="1.873" cy="1.873" r="1.873" fill="#32e2a9"/>
        <circle id="Ellipse_1685-2" data-name="Ellipse 1685" cx="1.873" cy="1.873" r="1.873" transform="translate(31.847 54.329)" fill="#32e2a9"/>
      </g>
      <path id="Path_9677-2" data-name="Path 9677" d="M192.286,193.182a.937.937,0,0,1,.7.313,3.292,3.292,0,0,0,2.463,1.079,3.033,3.033,0,0,0,3.134-2.612.938.938,0,0,1,.462-.734,3.244,3.244,0,0,0,1.673-2.743,3.059,3.059,0,0,0-.923-2.151.937.937,0,0,1,0-1.318,3.06,3.06,0,0,0,.923-2.151,3.332,3.332,0,0,0-2.57-3.1.937.937,0,0,1-.654-1.111,2.087,2.087,0,0,0,.062-.47,2.5,2.5,0,0,0-2.634-2.342,2.787,2.787,0,0,0-1.97.792.965.965,0,0,1-1.328,0,2.787,2.787,0,0,0-1.97-.792,2.5,2.5,0,0,0-2.634,2.342,2.176,2.176,0,0,0,.05.461.936.936,0,0,1-.656,1.1,3.336,3.336,0,0,0-2.556,3.12,2.975,2.975,0,0,0,.709,1.9.937.937,0,0,1,.023,1.161,3.453,3.453,0,0,0-.732,2.088,3.646,3.646,0,0,0,1.694,3,.938.938,0,0,1,.417.772,3.011,3.011,0,0,0,3.158,2.789,3.292,3.292,0,0,0,2.463-1.079A.936.936,0,0,1,192.286,193.182Z" transform="translate(-162.372 -155.292)" fill="#32e2a9"/>
      <path id="Path_9678-2" data-name="Path 9678" d="M143.916,29.039H129.805V27.045h3.807a.876.876,0,0,0,0-1.753h-3.807V23.3h2.643a3.662,3.662,0,0,0,2.607-1.08l5.764-5.764a2.748,2.748,0,1,0-1.239-1.239l-5.764,5.764a1.921,1.921,0,0,1-1.367.566h-2.643V19.612a4.628,4.628,0,0,0-4.623-4.623h-1.934V7.23a2.75,2.75,0,1,0-1.753,0v7.758H119.5V11.181a.876.876,0,1,0-1.753,0v3.807h-1.994V.877a.876.876,0,0,0-1.753,0V14.988h-1.994V11.181a.876.876,0,1,0-1.753,0v3.807h-1.994V12.345a3.662,3.662,0,0,0-1.08-2.607l-5.766-5.766a2.751,2.751,0,1,0-1.239,1.239l5.766,5.766a1.921,1.921,0,0,1,.566,1.367v2.643h-1.934a4.643,4.643,0,0,0-1.155.146.876.876,0,0,0,.437,1.7,2.886,2.886,0,0,1,.718-.09h20.607a2.874,2.874,0,0,1,2.87,2.87V40.219a2.887,2.887,0,0,1-.09.718.876.876,0,1,0,1.7.436,4.638,4.638,0,0,0,.145-1.154V38.285h7.758a2.75,2.75,0,1,0,0-1.753h-7.758V34.538h3.807a.876.876,0,1,0,0-1.753h-3.807V30.792h14.111a.876.876,0,1,0,0-1.753Zm-2.578-15.753a1,1,0,1,1,0,1.41h0a1,1,0,0,1,0-1.41ZM122.372,3.627a1,1,0,1,1-1,1A1,1,0,0,1,122.372,3.627ZM98.249,3.456a1,1,0,1,1,1.41,0h0A1,1,0,0,1,98.249,3.456Zm41.92,32.956a1,1,0,1,1-1,1A1,1,0,0,1,140.169,36.412Z" transform="translate(-84.964)" fill="#01358d"/>
      <path id="Path_9679-2" data-name="Path 9679" d="M44.617,189.127l-5.766-5.766a1.921,1.921,0,0,1-.566-1.367V179.35h1.934a4.64,4.64,0,0,0,1.155-.146.876.876,0,1,0-.437-1.7,2.885,2.885,0,0,1-.718.09H19.611a2.874,2.874,0,0,1-2.87-2.87V154.12a2.883,2.883,0,0,1,.09-.718.876.876,0,0,0-1.7-.437,4.633,4.633,0,0,0-.146,1.155v1.934H7.229a2.75,2.75,0,1,0,0,1.753h7.758V159.8H11.18a.876.876,0,1,0,0,1.753h3.807v1.994H.876a.876.876,0,0,0,0,1.753H14.987v1.994H11.18a.876.876,0,1,0,0,1.753h3.807v1.994H12.344a3.662,3.662,0,0,0-2.607,1.08l-5.764,5.764a2.748,2.748,0,1,0,1.24,1.239l5.764-5.764a1.921,1.921,0,0,1,1.367-.566h2.643v1.934a4.628,4.628,0,0,0,4.623,4.623h1.934v7.758a2.75,2.75,0,1,0,1.753,0V179.35h1.994v3.807a.876.876,0,1,0,1.753,0V179.35h1.994v14.111a.876.876,0,0,0,1.753,0V179.35h1.994v3.807a.876.876,0,0,0,1.753,0V179.35h1.994v2.643a3.662,3.662,0,0,0,1.08,2.607l5.766,5.766a2.75,2.75,0,1,0,1.239-1.239Zm-39.994-31.2a1,1,0,1,1,1-1A1,1,0,0,1,4.623,157.927ZM3.455,181.052a1,1,0,1,1,0-1.41h0a1,1,0,0,1,0,1.41Zm18.966,9.659a1,1,0,1,1,1-1A1,1,0,0,1,22.421,190.711Zm24.123,1.581a1,1,0,1,1,0-1.41A1,1,0,0,1,46.543,192.293Z" transform="translate(0 -134.508)" fill="#01358d"/>
      <path id="Path_9680-2" data-name="Path 9680" d="M178.464,185.138v0a3.879,3.879,0,0,0,4.038,3.687,4.181,4.181,0,0,0,3.161-1.4,4.181,4.181,0,0,0,3.161,1.4,3.905,3.905,0,0,0,4.029-3.459,4.1,4.1,0,0,0,2.116-3.506,3.95,3.95,0,0,0-1.219-2.81,3.951,3.951,0,0,0,1.219-2.81,4.233,4.233,0,0,0-3.248-3.978,2.992,2.992,0,0,0,.086-.706,3.378,3.378,0,0,0-3.511-3.218,3.646,3.646,0,0,0-2.634,1.094,3.646,3.646,0,0,0-2.634-1.094,3.378,3.378,0,0,0-3.511,3.218,2.992,2.992,0,0,0,.086.706,4.233,4.233,0,0,0-3.248,3.978,3.849,3.849,0,0,0,.923,2.494,4.334,4.334,0,0,0-.923,2.658A4.514,4.514,0,0,0,178.464,185.138Zm2.435-11.3h.023a.876.876,0,0,0,.744-1.338c-.007-.011-.013-.022-.02-.032l-.012-.016c-.014-.019-.027-.038-.043-.056v0a1.3,1.3,0,0,1-.321-.841,1.787,1.787,0,0,1,3.516,0,.876.876,0,1,0,1.753,0,1.787,1.787,0,0,1,3.516,0,1.232,1.232,0,0,1-.131.552,4.867,4.867,0,0,0-1.438.361.876.876,0,1,0,.681,1.615,3.164,3.164,0,0,1,1.212-.245h.048a2.63,2.63,0,0,1,2.79,2.4,2.338,2.338,0,0,1-1.349,2.035.876.876,0,0,0,0,1.55,2.338,2.338,0,0,1,1.349,2.035,2.242,2.242,0,0,1-.772,1.648,3.934,3.934,0,0,0-2.3-1.855.876.876,0,0,0-.525,1.672,1.988,1.988,0,0,1,1.494,1.814,2.317,2.317,0,0,1-4.57,0v-5.62a2.134,2.134,0,0,1,2.285-1.934.876.876,0,1,0,0-1.753,4.284,4.284,0,0,0-2.285.649v-1.119a.876.876,0,1,0-1.753,0v4.865a4.175,4.175,0,0,0-.968-.448.876.876,0,0,0-.525,1.672,1.988,1.988,0,0,1,1.494,1.814v1.873a2.317,2.317,0,0,1-4.57,0,1.767,1.767,0,0,1,.545-1.251.876.876,0,0,0-1.236-1.243,3.727,3.727,0,0,0-.541.679,2.673,2.673,0,0,1-.877-1.932,2.985,2.985,0,0,1,2.478-2.774.876.876,0,1,0-.392-1.708,5.339,5.339,0,0,0-1.608.655,2.115,2.115,0,0,1-.478-1.325A2.631,2.631,0,0,1,180.9,173.84Z" transform="translate(-155.749 -148.668)"/>
    </g>
    <rect id="Rectangle_1048" data-name="Rectangle 1048" width="76" height="76" transform="translate(1543 1273)" fill="none"/>
  </g>
</svg>
