<svg xmlns="http://www.w3.org/2000/svg" xmlns:xlink="http://www.w3.org/1999/xlink" width="58" height="51" viewBox="0 0 58 51">
  <defs>
    <clipPath id="clip-path">
      <rect id="Rectangle_1598" data-name="Rectangle 1598" width="58" height="51" transform="translate(1287 3543)" fill="#fff" stroke="#707070" stroke-width="1"/>
    </clipPath>
  </defs>
  <g id="icon_security" transform="translate(-1287 -3543)" clip-path="url(#clip-path)">
    <g id="shield" transform="translate(1280.4 3538.232)">
      <path id="Path_12108" data-name="Path 12108" d="M56.139,12.354c-5.524-.129-17.516-4.47-20.367-7.369a.773.773,0,0,0-1.073,0c-2.85,2.9-14.842,7.238-20.367,7.369a.751.751,0,0,0-.732.751c0,16.106,2.533,33.745,21.32,42.453a.752.752,0,0,0,.632,0c18.784-8.709,21.317-26.347,21.317-42.453a.751.751,0,0,0-.73-.751Zm-20.9,41.691C17.772,45.77,15.177,29.163,15.1,13.819c5.822-.437,16.5-4.319,20.132-7.3,3.631,2.978,14.31,6.859,20.132,7.3C55.291,29.163,52.7,45.77,35.234,54.046Z" fill="#f9556d"/>
      <path id="Path_12109" data-name="Path 12109" d="M77.208,22.216a65.053,65.053,0,0,0,8.353,2.73.751.751,0,1,0,.365-1.457,63.548,63.548,0,0,1-8.156-2.665.751.751,0,1,0-.563,1.393Z" transform="translate(-36.036 -9.132)" fill="#f9556d"/>
      <path id="Path_12110" data-name="Path 12110" d="M59.908,47.5a12.332,12.332,0,0,0-1.647-6.166.743.743,0,0,0-.092-.161,12.462,12.462,0,0,0-7.226-5.6.706.706,0,0,0-.092-.027,12.354,12.354,0,0,0-6.713,0,.819.819,0,0,0-.088.025,12.462,12.462,0,0,0-7.228,5.6.748.748,0,0,0-.094.163,12.365,12.365,0,0,0,0,12.329.748.748,0,0,0,.094.163,12.464,12.464,0,0,0,7.239,5.6.748.748,0,0,0,.093.027,12.351,12.351,0,0,0,6.683,0,.687.687,0,0,0,.092-.026,12.462,12.462,0,0,0,7.24-5.6.743.743,0,0,0,.092-.161A12.331,12.331,0,0,0,59.908,47.5ZM48.247,58.377v-4.25h3.924a12.01,12.01,0,0,1-1.917,3.924A10.855,10.855,0,0,1,48.247,58.377Zm-3.51-.325a12.005,12.005,0,0,1-1.917-3.924h3.924v4.25a10.856,10.856,0,0,1-2.007-.326Zm-8.123-9.8h3.8a25.154,25.154,0,0,0,.49,4.378H37.871A10.82,10.82,0,0,1,36.615,48.247Zm1.256-5.881H40.9a25.16,25.16,0,0,0-.488,4.378h-3.8a10.82,10.82,0,0,1,1.256-4.379Zm8.874-5.752v4.25H42.82a12,12,0,0,1,1.917-3.924,10.857,10.857,0,0,1,2.007-.326Zm3.51.325a12.014,12.014,0,0,1,1.917,3.924H48.247v-4.25a10.855,10.855,0,0,1,2.008.326Zm8.123,9.8h-3.8a25.175,25.175,0,0,0-.49-4.378H57.12a10.833,10.833,0,0,1,1.257,4.378Zm-5.3,0H48.247V42.366h4.307a23.862,23.862,0,0,1,.522,4.378Zm-6.331-4.379v4.378H41.915a23.811,23.811,0,0,1,.524-4.378Zm-4.829,5.881h4.829v4.378H42.438a23.834,23.834,0,0,1-.523-4.378Zm6.332,4.378V48.247h4.828a23.829,23.829,0,0,1-.524,4.378Zm6.331-4.378h3.8a10.833,10.833,0,0,1-1.256,4.378H54.09A25.185,25.185,0,0,0,54.578,48.247Zm1.57-7.383H53.734a16.65,16.65,0,0,0-1.145-3.012,10.982,10.982,0,0,1,3.561,3.011ZM42.4,37.851a16.618,16.618,0,0,0-1.145,3.012H38.841A10.982,10.982,0,0,1,42.4,37.851ZM38.839,54.128h2.415A16.65,16.65,0,0,0,42.4,57.139a10.985,10.985,0,0,1-3.558-3.012Zm13.748,3.012a16.65,16.65,0,0,0,1.145-3.012h2.415a10.981,10.981,0,0,1-3.558,3.012Z" transform="translate(-12.261 -17.302)" fill="#f9556d"/>
    </g>
  </g>
</svg>
