<svg xmlns="http://www.w3.org/2000/svg" xmlns:xlink="http://www.w3.org/1999/xlink" width="58" height="51" viewBox="0 0 58 51">
  <defs>
    <clipPath id="clip-path">
      <rect id="Rectangle_1594" data-name="Rectangle 1594" width="58" height="51" transform="translate(190 3871)" fill="#fff" stroke="#707070" stroke-width="1"/>
    </clipPath>
  </defs>
  <g id="icon_domain" transform="translate(-190 -3871)" clip-path="url(#clip-path)">
    <g id="domain" transform="translate(189.25 3866.25)">
      <path id="Path_12138" data-name="Path 12138" d="M52.064,43.11a.736.736,0,0,0,.135-.235,25.337,25.337,0,0,0,0-25.39.736.736,0,0,0-.135-.235A25.537,25.537,0,0,0,37.246,5.758a.741.741,0,0,0-.2-.059,25.3,25.3,0,0,0-13.734,0,.755.755,0,0,0-.2.056A25.534,25.534,0,0,0,8.3,17.25a.736.736,0,0,0-.135.235,25.337,25.337,0,0,0,0,25.39.736.736,0,0,0,.135.235A25.534,25.534,0,0,0,23.1,54.6a.757.757,0,0,0,.206.059,25.3,25.3,0,0,0,13.739,0,.75.75,0,0,0,.217-.061,25.537,25.537,0,0,0,14.8-11.488ZM30.931,54.088V43.377H41.194a27.035,27.035,0,0,1-4.674,9.871,23.838,23.838,0,0,1-5.589.84Zm-7.091-.84a27.018,27.018,0,0,1-4.674-9.871H29.429V54.087a23.839,23.839,0,0,1-5.589-.84ZM6.271,30.93H9.578v5.9a.752.752,0,0,0,.751.751h6.144c.2,1.469.458,2.906.773,4.292H9.317A23.761,23.761,0,0,1,6.271,30.931ZM9.318,18.483h7.928c-.315,1.386-.574,2.823-.773,4.292H10.329a.752.752,0,0,0-.751.752v5.9H6.271A23.761,23.761,0,0,1,9.317,18.484ZM29.429,6.271V16.982H19.165A27.035,27.035,0,0,1,23.84,7.11a23.838,23.838,0,0,1,5.589-.84Zm7.091.84a27.018,27.018,0,0,1,4.674,9.871H30.931V6.271a23.838,23.838,0,0,1,5.589.84ZM54.088,29.429H50.781v-5.9a.752.752,0,0,0-.751-.751H43.886c-.2-1.469-.458-2.906-.773-4.292h7.929a23.762,23.762,0,0,1,3.046,10.944ZM51.041,41.876H43.113c.315-1.386.574-2.823.773-4.292H50.03a.752.752,0,0,0,.751-.752v-5.9h3.307a23.761,23.761,0,0,1-3.046,10.944Zm-20.112,0V37.584h11.44c-.206,1.473-.472,2.91-.8,4.292ZM11.081,36.081v-11.8h38.2v11.8ZM42.369,22.776H30.931V18.484h10.64C41.9,19.866,42.164,21.3,42.369,22.776ZM29.427,18.484v4.292H17.991c.206-1.473.472-2.91.8-4.292Zm-11.437,19.1H29.429v4.292H18.788c-.326-1.382-.593-2.819-.8-4.292Zm20.969,14.85a31.8,31.8,0,0,0,3.79-9.056h7.377a24.056,24.056,0,0,1-11.168,9.054ZM50.126,16.982H42.748a31.831,31.831,0,0,0-3.79-9.056,24.06,24.06,0,0,1,11.167,9.056ZM21.4,7.926a31.824,31.824,0,0,0-3.79,9.056H10.234A24.057,24.057,0,0,1,21.4,7.927ZM10.234,43.377h7.377A31.81,31.81,0,0,0,21.4,52.433a24.06,24.06,0,0,1-11.167-9.056Z" fill="#f9556d"/>
      <path id="Path_12139" data-name="Path 12139" d="M36.659,61.159l-1.493-4.534H33.913l-1.5,4.534-1.355-4.534H29.794L31.8,62.956h1.143l1.594-4.7,1.585,4.7h1.152l2-6.331H38.013Z" transform="translate(-14.295 -29.611)" fill="#f9556d"/>
      <path id="Path_12140" data-name="Path 12140" d="M59.285,62.956h1.152l2-6.331H61.173l-1.354,4.534-1.493-4.534H57.073l-1.5,4.534-1.354-4.534H52.954l2.009,6.331h1.143l1.594-4.7Z" transform="translate(-27.515 -29.611)" fill="#f9556d"/>
      <path id="Path_12141" data-name="Path 12141" d="M79.266,62.956l1.594-4.7,1.585,4.7H83.6l2-6.331H84.333l-1.355,4.534-1.493-4.534H80.233l-1.5,4.534-1.355-4.534H76.114l2.009,6.331Z" transform="translate(-40.735 -29.611)" fill="#f9556d"/>
    </g>
  </g>
</svg>
