<svg xmlns="http://www.w3.org/2000/svg" xmlns:xlink="http://www.w3.org/1999/xlink" width="58" height="51" viewBox="0 0 58 51">
  <defs>
    <clipPath id="clip-path">
      <rect id="Rectangle_1595" data-name="Rectangle 1595" width="58" height="51" transform="translate(742 3871)" fill="#fff" stroke="#707070" stroke-width="1"/>
    </clipPath>
  </defs>
  <g id="icon_email" transform="translate(-742 -3871)" clip-path="url(#clip-path)">
    <g id="email_2_" data-name="email (2)" transform="translate(745.999 3870.996)">
      <g id="Group_8413" data-name="Group 8413" transform="translate(0.001 0.004)">
        <g id="Group_8412" data-name="Group 8412">
          <path id="Path_12142" data-name="Path 12142" d="M50.851,19.448a.8.8,0,0,0-.035-.172.847.847,0,0,0-.048-.146.761.761,0,0,0-.085-.13.8.8,0,0,0-.113-.131c-.014-.012-.019-.028-.034-.04L42.384,12.5V5.935a2.543,2.543,0,0,0-2.543-2.543H30.654L26.976.536a2.514,2.514,0,0,0-3.092,0L20.205,3.392H11.019A2.543,2.543,0,0,0,8.475,5.935V12.5L.326,18.829c-.014.012-.02.028-.034.04A.8.8,0,0,0,.179,19a.757.757,0,0,0-.085.13.836.836,0,0,0-.048.146.8.8,0,0,0-.035.17c0,.018-.01.033-.01.051V48.321a2.515,2.515,0,0,0,.5,1.5c.005.008.006.017.012.024s.019.014.027.024a2.531,2.531,0,0,0,2,1H48.318a2.531,2.531,0,0,0,2.011-1c.007-.008.017-.011.023-.019s.007-.016.012-.024a2.515,2.515,0,0,0,.5-1.5V19.5C50.861,19.481,50.852,19.465,50.851,19.448ZM24.921,1.874a.813.813,0,0,1,1.011,0l1.956,1.518H22.971ZM2.755,49.168,24.921,31.951a.814.814,0,0,1,1.011,0L48.1,49.168Zm46.411-1.322L26.976,30.613a2.515,2.515,0,0,0-3.092,0L1.694,47.847V20.79L15.585,31.577a.848.848,0,0,0,1.039-1.34L2.512,19.278l5.964-4.634v6.55a.848.848,0,0,0,1.7,0V5.935a.848.848,0,0,1,.848-.848H39.841a.848.848,0,0,1,.848.848V21.194a.848.848,0,1,0,1.7,0v-6.55l5.964,4.634L34.21,30.256A.848.848,0,1,0,35.249,31.6L49.165,20.79V47.847Z" transform="translate(-0.001 -0.004)" fill="#f9556d"/>
          <path id="Path_12143" data-name="Path 12143" d="M173.919,81.8V78.41a10.173,10.173,0,1,0-10.173,10.173.848.848,0,0,0,0-1.7,8.477,8.477,0,1,1,8.477-8.477V81.8a1.7,1.7,0,1,1-3.391,0V78.41a.848.848,0,1,0-1.7,0,3.391,3.391,0,1,1-3.391-3.391.848.848,0,1,0,0-1.7,5.086,5.086,0,1,0,3.427,8.834,3.382,3.382,0,0,0,6.745-.357Z" transform="translate(-138.318 -61.459)" fill="#f9556d"/>
        </g>
      </g>
    </g>
  </g>
</svg>
