<svg xmlns="http://www.w3.org/2000/svg" xmlns:xlink="http://www.w3.org/1999/xlink" width="58" height="51" viewBox="0 0 58 51">
  <defs>
    <clipPath id="clip-path">
      <rect id="Rectangle_1593" data-name="Rectangle 1593" width="58" height="51" transform="translate(1294 3871)" fill="#fff" stroke="#707070" stroke-width="1"/>
    </clipPath>
  </defs>
  <g id="icon_ecommercetools" transform="translate(-1294 -3871)" clip-path="url(#clip-path)">
    <g id="online-shop" transform="translate(1294 3830.919)">
      <g id="Group_8415" data-name="Group 8415" transform="translate(0 40.081)">
        <g id="Group_8414" data-name="Group 8414">
          <path id="Path_12144" data-name="Path 12144" d="M54.426,40.081H3.574A3.651,3.651,0,0,0,0,43.8V79.672a3.651,3.651,0,0,0,3.574,3.716h17.2l-.7,5.786H17.195a.884.884,0,0,0,0,1.767h23.61a.884.884,0,0,0,0-1.767H37.923l-.7-5.786h17.2A3.651,3.651,0,0,0,58,79.672V43.8A3.651,3.651,0,0,0,54.426,40.081ZM21.79,89.174l.7-5.786h3.127l.307,1.275a3.148,3.148,0,0,0,6.162,0l.307-1.275h3.127l.7,5.786Zm5.574-5.786h3.272l-.2.847a1.464,1.464,0,0,1-2.865,0ZM56.3,79.672h0a1.915,1.915,0,0,1-1.875,1.949H3.574A1.915,1.915,0,0,1,1.7,79.672V43.8a1.915,1.915,0,0,1,1.875-1.949H54.426A1.915,1.915,0,0,1,56.3,43.8Z" transform="translate(0 -40.081)" fill="#f9556d"/>
        </g>
      </g>
      <g id="Group_8417" data-name="Group 8417" transform="translate(3.776 43.857)">
        <g id="Group_8416" data-name="Group 8416">
          <path id="Path_12145" data-name="Path 12145" d="M78.264,72.146H32.947a.883.883,0,0,0-.883.883v33.987a.883.883,0,0,0,.883.883h1.888a.883.883,0,0,0,0-1.767h-1V73.913H78.264a.883.883,0,1,0,0-1.767Z" transform="translate(-32.064 -72.146)" fill="#f9556d"/>
        </g>
      </g>
      <g id="Group_8419" data-name="Group 8419" transform="translate(7.141 43.857)">
        <g id="Group_8418" data-name="Group 8418">
          <path id="Path_12146" data-name="Path 12146" d="M126.362,72.146h-1.888a.883.883,0,0,0,0,1.767h1v32.221H81.045a.883.883,0,0,0,0,1.767h45.316a.883.883,0,0,0,.883-.883V73.029A.883.883,0,0,0,126.362,72.146Z" transform="translate(-80.162 -72.146)" fill="#f9556d"/>
        </g>
      </g>
      <g id="Group_8421" data-name="Group 8421" transform="translate(14.963 49.522)">
        <g id="Group_8420" data-name="Group 8420">
          <path id="Path_12147" data-name="Path 12147" d="M162.4,124.356a.883.883,0,0,0-.655-.338l-20.77-.944h-.049a1.83,1.83,0,0,0-.734-.988l-2.544-1.7a.883.883,0,0,0-.98,1.47l2.543,1.7a.061.061,0,0,1,.025.034l3.24,11.339a2.781,2.781,0,0,0,.481.946l-1.185,2.371a1.816,1.816,0,0,0,.08,1.778,1.835,1.835,0,0,0,.453.5,2.771,2.771,0,1,0,4.988.368h8.053a2.771,2.771,0,1,0,5.063-.229.882.882,0,0,0-.592-1.537h-16.41a.061.061,0,0,1-.054-.088l1.092-2.184a2.772,2.772,0,0,0,.691.088,2.844,2.844,0,0,0,.33-.019l12.412-1.46a3.707,3.707,0,0,0,3.209-2.962l1.485-7.424A.883.883,0,0,0,162.4,124.356Zm-4.472,16.533a1,1,0,1,1-1,1A1.006,1.006,0,0,1,157.929,140.89Zm-13.217,0a1,1,0,1,1-1,1A1.006,1.006,0,0,1,144.712,140.89Zm-2.166-12.152-1.107-3.874,3.531.161.612,3.714Zm2.714,6.427a1,1,0,0,1-1.084-.722l-1.125-3.938h2.823l.742,4.5Zm5.178-.609-2.065.243-.708-4.294h2.773Zm0-5.818h-3.064l-.6-3.632,3.663.167Zm4.473,5.292-2.707.318V130.5h3.026Zm.479-5.292H152.2v-3.385l3.478.158Zm3.965,3.414a1.944,1.944,0,0,1-1.683,1.553l-.968.114.3-3.314h2.68Zm.683-3.414h-2.874l.285-3.146,3.189.145Z" transform="translate(-136.276 -120.241)" fill="#f9556d"/>
        </g>
      </g>
    </g>
  </g>
</svg>
