<svg xmlns="http://www.w3.org/2000/svg" width="41.38" height="35.986" viewBox="0 0 41.38 35.986">
  <g id="icon_whatsapp" transform="translate(-596.5 -3345.5)">
    <g id="Group_6440" data-name="Group 6440" transform="translate(538.364 3282.536)">
      <path id="Path_9612" data-name="Path 9612" d="M68.494,89.9,70,84.538a10.759,10.759,0,1,1,4.02,3.938Zm5.812-3.382.329.2a8.936,8.936,0,1,0-2.876-2.812l.222.345-.869,3.088Z" transform="translate(0 0)" fill="#1bd741"/>
      <path id="Path_9613" data-name="Path 9613" d="M150.016,152.865l-.7-.038a.844.844,0,0,0-.6.205,3.182,3.182,0,0,0-1.046,1.6,4.86,4.86,0,0,0,1.127,3.809,11.333,11.333,0,0,0,6.109,4.441,2.977,2.977,0,0,0,2.521-.312,2.255,2.255,0,0,0,.981-1.431l.112-.521a.362.362,0,0,0-.2-.4l-2.36-1.088a.362.362,0,0,0-.438.108l-.927,1.2a.265.265,0,0,1-.3.089,7.256,7.256,0,0,1-3.927-3.36.268.268,0,0,1,.034-.3l.886-1.025a.362.362,0,0,0,.059-.379l-1.017-2.38A.362.362,0,0,0,150.016,152.865Z" transform="translate(-73.755 -78.79)" fill="#1bd741"/>
    </g>
    <g id="conversation-speech-bubbles-" transform="translate(597 3345.065)">
      <path id="Path_9614" data-name="Path 9614" d="M20.19.935C9.039.935,0,8.039,0,16.8A14.169,14.169,0,0,0,5.347,27.554c-.127,2.754-.7,6.458-2.717,8.367,3.856,0,7.8-2.538,10.147-4.367a24.939,24.939,0,0,0,7.413,1.108c11.151,0,20.19-7.1,20.19-15.863S31.34.935,20.19.935Z" transform="translate(0 0)" fill="none" stroke="#1bd741" stroke-width="1"/>
    </g>
  </g>
</svg>
