<svg xmlns="http://www.w3.org/2000/svg" width="41.38" height="35.986" viewBox="0 0 41.38 35.986">
  <g id="icon_skype" transform="translate(-472.5 -3345.5)">
    <g id="conversation-speech-bubbles-" transform="translate(473 3345.065)">
      <path id="Path_9614" data-name="Path 9614" d="M20.19.935C9.039.935,0,8.039,0,16.8A14.169,14.169,0,0,0,5.347,27.554c-.127,2.754-.7,6.458-2.717,8.367,3.856,0,7.8-2.538,10.147-4.367a24.939,24.939,0,0,0,7.413,1.108c11.151,0,20.19-7.1,20.19-15.863S31.34.935,20.19.935Z" transform="translate(0 0)" fill="none" stroke="#00aaf2" stroke-width="1"/>
    </g>
    <path id="skype" d="M22.466,37.471a3.007,3.007,0,0,1-.543-1.774s0-.007,0-.011a10.221,10.221,0,0,0-13.731-9.6,3.013,3.013,0,0,1-1.849.088A4.99,4.99,0,0,0,.945,33.9a3.007,3.007,0,0,1,.543,1.774v.011a10.221,10.221,0,0,0,13.731,9.6,3.013,3.013,0,0,1,1.849-.088,4.99,4.99,0,0,0,5.4-7.724ZM12.079,33.854c2.06.49,5.174,1.23,5.174,4.66a3.737,3.737,0,0,1-2.343,3.629,8.513,8.513,0,0,1-3.35.527A7.391,7.391,0,0,1,6.2,40.05a1.537,1.537,0,0,1,2.4-1.916A4.558,4.558,0,0,0,11.56,39.6c2.082.066,2.557-.553,2.619-1.082.075-.646-.5-1.12-2.811-1.669-1.96-.466-4.921-1.17-4.921-4.329,0-.984.4-4.193,5.548-4.193a6.959,6.959,0,0,1,5.249,2.668,1.537,1.537,0,0,1-2.469,1.83,4.617,4.617,0,0,0-2.78-1.425c-1.245-.118-2.474.331-2.474.994C9.52,33.093,9.873,33.329,12.079,33.854Z" transform="translate(481.854 3326.532)" fill="#00aaf2"/>
  </g>
</svg>
