<svg xmlns="http://www.w3.org/2000/svg" width="64" height="64" viewBox="0 0 64 64">
  <g id="Group_7796" data-name="Group 7796" transform="translate(-1424 -2177)">
    <g id="internet_1_" data-name="internet (1)" transform="translate(1435.163 2187.278)">
      <path id="Path_10524" data-name="Path 10524" d="M22,20h1.317v1.317H22Z" transform="translate(-7.232 -6.588)" fill="#01358d" stroke="#01358d" stroke-width="0.3"/>
      <path id="Path_10525" data-name="Path 10525" d="M26,20h1.317v1.317H26Z" transform="translate(-8.599 -6.588)" fill="#01358d" stroke="#01358d" stroke-width="0.3"/>
      <path id="Path_10526" data-name="Path 10526" d="M30,20h1.317v1.317H30Z" transform="translate(-9.966 -6.588)" fill="#01358d" stroke="#01358d" stroke-width="0.3"/>
      <path id="Path_10527" data-name="Path 10527" d="M22,32h1.317v1.317H22Z" transform="translate(-7.232 -10.689)" fill="#01358d" stroke="#01358d" stroke-width="0.3"/>
      <path id="Path_10528" data-name="Path 10528" d="M26,32h1.317v1.317H26Z" transform="translate(-8.599 -10.689)" fill="#01358d" stroke="#01358d" stroke-width="0.3"/>
      <path id="Path_10529" data-name="Path 10529" d="M30,32h1.317v1.317H30Z" transform="translate(-9.966 -10.689)" fill="#01358d" stroke="#01358d" stroke-width="0.3"/>
      <path id="Path_10530" data-name="Path 10530" d="M45.879,35.625l-.3-.149-.3.15a14.022,14.022,0,0,1-5.66,1.495l-.626.03v4.2a10.09,10.09,0,0,0,6.336,9.406l.246.1.246-.1a10.09,10.09,0,0,0,6.336-9.406v-4.2l-.626-.031a14.008,14.008,0,0,1-5.66-1.494Zm4.97,5.724a8.779,8.779,0,0,1-5.266,8.082,8.779,8.779,0,0,1-5.266-8.082V38.391a15.3,15.3,0,0,0,5.266-1.446,15.308,15.308,0,0,0,5.266,1.446Z" transform="translate(-13.042 -11.877)" fill="#01358d" stroke="#01358d" stroke-width="0.3"/>
      <path id="Path_10531" data-name="Path 10531" d="M39.246,22.723a11.462,11.462,0,0,1-4.429-.893,17.112,17.112,0,1,0-16.7,13.4,17,17,0,0,0,6.1-1.124A12.7,12.7,0,0,0,32.4,41.784l.194.059.194-.06a12.715,12.715,0,0,0,9.022-12.215V22.723Zm-5.9-1.634-.751-.45-.751.45a11.463,11.463,0,0,1-5,1.6,21.454,21.454,0,0,0,.468-3.911h6.583A15.821,15.821,0,0,1,33.6,21.23c-.084-.047-.17-.091-.253-.141ZM18.166,33.665l-.052.044-.064-.054a21.963,21.963,0,0,1-5.882-6.982H23.381V27.9A23.162,23.162,0,0,1,18.166,33.665Zm5.215-10.942v2.633H11.567a18.921,18.921,0,0,1-1.327-6.583H25.994a20.082,20.082,0,0,1-.509,3.95ZM2.333,18.773h6.59a20.446,20.446,0,0,0,1.227,6.583H4.081a15.692,15.692,0,0,1-1.748-6.583ZM18.115,2.515a25.954,25.954,0,0,1,5.632,7.043H12.483A25.954,25.954,0,0,1,18.115,2.515Zm6.279,8.359A17.8,17.8,0,0,1,26,17.457H10.234a17.8,17.8,0,0,1,1.6-6.583Zm9.5,6.583H27.314a19.015,19.015,0,0,0-1.464-6.583h6.3A15.692,15.692,0,0,1,33.9,17.457Zm-24.981,0H2.333a15.682,15.682,0,0,1,1.748-6.583h6.3a19.015,19.015,0,0,0-1.464,6.583Zm22.468-7.9h-6.13a26.29,26.29,0,0,0-5.269-7.126,15.813,15.813,0,0,1,11.4,7.126ZM16.245,2.431a26.29,26.29,0,0,0-5.269,7.126H4.846a15.813,15.813,0,0,1,11.4-7.126ZM4.846,26.672h5.849a21.333,21.333,0,0,0,5.494,7.119A15.812,15.812,0,0,1,4.846,26.672Zm15.189,7.121a24.35,24.35,0,0,0,3.372-3.6,12.9,12.9,0,0,0,.4,2.653A15.6,15.6,0,0,1,20.034,33.794ZM40.5,29.567a11.405,11.405,0,0,1-7.9,10.9,11.4,11.4,0,0,1-7.9-10.9V24.039h1.25l.062,0h.508l0-.018a12.782,12.782,0,0,0,6-1.8l.074-.044.073.044a12.788,12.788,0,0,0,6.576,1.821H40.5Z" transform="translate(-0.056 -0.095)" fill="#01358d" stroke="#01358d" stroke-width="0.3"/>
      <path id="Path_10532" data-name="Path 10532" d="M45.224,45.255l-.931.931,2.44,2.44,5.4-5.4-.931-.931-4.472,4.472Z" transform="translate(-14.85 -14.206)" fill="#01358d" stroke="#01358d" stroke-width="0.3"/>
      <path id="Path_10533" data-name="Path 10533" d="M53.586,17.113a1.985,1.985,0,1,0,1.317-.055A20.949,20.949,0,0,0,48.161,3.411l-.89.97a19.639,19.639,0,0,1,6.315,12.732Zm.747,2.484a.658.658,0,1,1,.658-.658A.659.659,0,0,1,54.334,19.6Z" transform="translate(-15.868 -0.919)" fill="#01358d" stroke="#01358d" stroke-width="0.3"/>
      <path id="Path_10534" data-name="Path 10534" d="M46.04,1.594c-.377-.3-.769-.6-1.165-.872L44.122,1.8c.371.258.739.533,1.091.817Z" transform="translate(-14.792 0)" fill="#01358d" stroke="#01358d" stroke-width="0.3"/>
      <path id="Path_10535" data-name="Path 10535" d="M1.913,44.277l-1.076.758c.274.389.569.779.877,1.158l1.022-.831c-.29-.355-.567-.72-.823-1.085Z" transform="translate(0 -14.884)" fill="#01358d" stroke="#01358d" stroke-width="0.3"/>
      <path id="Path_10536" data-name="Path 10536" d="M21.616,52.4A1.971,1.971,0,0,0,19.77,53.7c-.262.01-.523.024-.787.024A19.812,19.812,0,0,1,4.5,47.4l-.966.9a21.133,21.133,0,0,0,15.444,6.739c.259,0,.515-.014.772-.024A1.971,1.971,0,1,0,21.616,52.4Zm0,2.633a.658.658,0,1,1,.658-.658A.659.659,0,0,1,21.616,55.037Z" transform="translate(-0.923 -15.952)" fill="#01358d" stroke="#01358d" stroke-width="0.3"/>
    </g>
    <circle id="Ellipse_1727" data-name="Ellipse 1727" cx="32" cy="32" r="32" transform="translate(1424 2177)" fill="none"/>
  </g>
</svg>
