<svg xmlns="http://www.w3.org/2000/svg" width="64" height="64" viewBox="0 0 64 64">
  <g id="Group_7797" data-name="Group 7797" transform="translate(-1126 -2177)">
    <g id="idea" transform="translate(1122.224 2189)">
      <g id="Group_7089" data-name="Group 7089" transform="translate(17.776)">
        <g id="Group_7088" data-name="Group 7088" transform="translate(0)">
          <path id="Path_10537" data-name="Path 10537" d="M53.776.012,49.939,2.885l-3.859,9h-3.1L41.758,9.242h.8a2.633,2.633,0,0,0,2.641-2.628V3.961h1.32V0H42.554V3.961h1.32V6.614a1.311,1.311,0,0,1-1.32,1.308H41.148L39.461,4.271l2.021-1.007L34.864.429,33.308,5.875a5.94,5.94,0,1,0-9.238,5.013v.995h-1.6l-.1.541a14.857,14.857,0,0,0-.088,5.08l-4.5,8.027,4.973,1.136v8.32h6.6v5.941H45.194v-9.2A17.2,17.2,0,0,0,52.45,17.6V15.189A15.333,15.333,0,0,0,52.2,12.43l-.1-.547h-1.3l2.971-7.117V.012Zm-9.9,2.641V1.333h1.32v1.32Zm-2.352,9.229h-2.5l-1.2-2.641H40.3Zm-5.8-9.648,2.624,1.124-.619.3,1.969,4.259H37.218L35.609,4.391l-.591.3Zm1.847,9.648H34.632V10.575a1.332,1.332,0,0,1,1.32-1.333h.415ZM34.975,6.19l.8,1.762a2.635,2.635,0,0,0-2.464,2.623v1.308H30.671v-.995a5.965,5.965,0,0,0,2.52-3.806ZM22.75,5.954a4.621,4.621,0,1,1,6.931,4l-.329.19v1.741h-1.32V7.812a1.98,1.98,0,1,0-1.32,0v4.07H25.39V10.142l-.329-.191A4.637,4.637,0,0,1,22.75,5.954Zm4.621.66a.66.66,0,1,1,.66-.66A.661.661,0,0,1,27.371,6.614ZM50.99,13.2a13.868,13.868,0,0,1,.144,1.98V17.6a16.074,16.074,0,0,1-6.971,13.246l-.29.2v8.568h-13.2V33.667h-6.6V25.615l-4.278-.976,3.864-6.89-.038-.236a13.619,13.619,0,0,1-.046-4.31H50.99Zm-1.615-1.32h-1.86L50.806,4.21l1.464.729Zm3.081-8.318-.73-.365.73-.547Z" transform="translate(-17.776)" fill="#01358d" stroke="#01358d" stroke-width="0.3"/>
          <path id="Path_10538" data-name="Path 10538" d="M75.806,111.388a1.742,1.742,0,0,1-1.864-1.864H72.7a3.106,3.106,0,0,0,6.212,0H77.67A1.742,1.742,0,0,1,75.806,111.388Z" transform="translate(-64.985 -94.262)" fill="#01358d" stroke="#01358d" stroke-width="0.3"/>
        </g>
      </g>
    </g>
    <circle id="Ellipse_1725" data-name="Ellipse 1725" cx="32" cy="32" r="32" transform="translate(1126 2177)" fill="none"/>
  </g>
</svg>
