<svg xmlns="http://www.w3.org/2000/svg" width="64" height="64" viewBox="0 0 64 64">
  <g id="Group_8690" data-name="Group 8690" transform="translate(-1275 -2103)">
    <g id="ai" transform="translate(1289.002 2115)">
      <path id="Path_10539" data-name="Path 10539" d="M368.708,163.21h1.926a.642.642,0,0,0,.642-.642v-1.926a.642.642,0,0,0-1.284,0v1.284h-1.284a.642.642,0,0,0,0,1.284Zm0,0" transform="translate(-339.425 -146.761)" fill="#01358d"/>
      <path id="Path_10540" data-name="Path 10540" d="M158.427,109.135a2.568,2.568,0,1,0-2.568-2.568A2.568,2.568,0,0,0,158.427,109.135Zm0-3.852a1.284,1.284,0,1,1-1.284,1.284A1.284,1.284,0,0,1,158.427,105.284Zm0,0" transform="translate(-143.705 -95.38)" fill="#01358d"/>
      <path id="Path_10541" data-name="Path 10541" d="M1.024,13.647a1.789,1.789,0,0,0,.858.219,1.878,1.878,0,0,0,1.766-1.329l4.926-.08-.859.749a.684.684,0,0,0-.145.84l1.171,2.131.026,2.971H5.641a.527.527,0,0,0-.109.023,1.872,1.872,0,0,0-2.086-1.317,2,2,0,0,0,0,3.909,1.872,1.872,0,0,0,2.086-1.317.527.527,0,0,0,.109.023H9.4a.61.61,0,0,0,.445-.2.679.679,0,0,0,.182-.471L10,16.456l2-.792q.2.139.414.255l.423,2.677a.637.637,0,0,0,.618.551h.328v3.3H11.905a.644.644,0,0,0-.626.66V32.74L5.825,38.489a.686.686,0,0,0-.136.72.627.627,0,0,0,.579.408H26.313a.626.626,0,0,0,.578-.408.687.687,0,0,0-.136-.72l-4.2-4.428V30.555l1.4-2.462c2.366,1.5,3.8,2.279,4.235,2.279h3.758a.644.644,0,0,0,.626-.66V26.024L33.646,24.9a.685.685,0,0,0,.184-.467V22.449h.915a1.238,1.238,0,0,0,1.051-.6,1.382,1.382,0,0,0,.095-1.256l-1.948-4.622a5.3,5.3,0,0,0,1.14-3.313A11.542,11.542,0,0,0,29.038,2.349L27.221,1.39a.607.607,0,0,0-.789.207l-.262.384H21.928V.661A.644.644,0,0,0,21.3,0H15.037a.644.644,0,0,0-.626.66V3.3h-.956a.637.637,0,0,0-.618.552L12.414,6.53c-.14.077-.278.162-.414.255L9.588,5.832a.611.611,0,0,0-.762.288L8.194,7.273c-.016,0-.029-.01-.046-.01H4.388v-2.1a2,2,0,0,0,1.226-2.2A1.91,1.91,0,0,0,3.762,1.313,1.91,1.91,0,0,0,1.91,2.959a2,2,0,0,0,1.226,2.2V7.923a.644.644,0,0,0,.626.66H7.511a.674.674,0,0,0,.2.66L9.7,10.968c0,.048,0,.1,0,.147l-6.053.1a1.879,1.879,0,0,0-1.9-1.307A1.915,1.915,0,0,0,.036,11.489a2.015,2.015,0,0,0,.989,2.157Zm2.738,6.822a.661.661,0,1,1,.626-.66A.644.644,0,0,1,3.762,20.468Zm0-17.827a.661.661,0,1,1-.626.66A.644.644,0,0,1,3.762,2.641ZM15.037,19.148h.923a.637.637,0,0,0,.618-.551L17,15.92c.139-.076.278-.162.414-.255l2.414.953a.611.611,0,0,0,.762-.288l.265-.483h2.951a.547.547,0,0,0,.136-.029l1.117,1.569v1.1H22.554v1.321H24l-1.678.707a.661.661,0,0,0-.394.614v1.321H15.037ZM21.844,8.407l-.264-.483h1.6v2.641h-3L21.7,9.244a.685.685,0,0,0,.144-.837Zm1.337,3.478v2.641h-1.6l.264-.483a.685.685,0,0,0-.144-.837l-1.519-1.321ZM18.979,28.2,21.3,30.646v.387H17.543V23.77H18.8v3.962a.679.679,0,0,0,.184.467Zm-3.971,8.777h.029v-.034l2.351-2.832a.682.682,0,0,0,.155-.435V32.353H18.8V38.3H13.91ZM7.78,38.3l4.568-4.815a.679.679,0,0,0,.184-.467V23.77H16.29v9.656l-1.253,1.509V31.693H13.785v4.754L12.247,38.3Zm17.021,0H20.049V32.353H21.3v1.981a.679.679,0,0,0,.184.467Zm-3-8.987-1.754-1.849V23.77h1.879v2.641a.67.67,0,0,0,.294.56c.234.154.445.29.665.434ZM27.138,2.823l1.339.707a10.22,10.22,0,0,1,5.353,9.128,3.931,3.931,0,0,1-1.069,2.722.687.687,0,0,0-.13.735l2.114,5.014H33.2a.644.644,0,0,0-.626.66V23.77h-.108a3.534,3.534,0,0,1-2.582-1.127.6.6,0,0,0-.878.008.686.686,0,0,0-.008.926,4.77,4.77,0,0,0,2.747,1.453l-.242.255a.679.679,0,0,0-.184.467v3.3l-3.073,0a32.838,32.838,0,0,1-4.181-2.436l0,0h0c-.295-.189-.591-.38-.882-.571V21.575l2.738-1.154a.661.661,0,0,0,.394-.614V17.167a.685.685,0,0,0-.125-.4l-1.754-2.465V6.814Zm-11.474-1.5h5.011V2.641a.644.644,0,0,0,.626.66h3.973L23.3,6.219a.678.678,0,0,0-.117.384H20.856l-.265-.483a.611.611,0,0,0-.762-.288l-2.411.953c-.136-.093-.274-.178-.414-.255l-.426-2.677a.637.637,0,0,0-.618-.551h-.3ZM8.922,8.584l.722-1.321,2.225.879a.6.6,0,0,0,.594-.089,3.718,3.718,0,0,1,.763-.469.655.655,0,0,0,.371-.5l.39-2.463H15.43l.39,2.464a.655.655,0,0,0,.371.5,3.754,3.754,0,0,1,.763.469.6.6,0,0,0,.594.089l2.225-.879.722,1.321-1.832,1.589a.678.678,0,0,0-.224.588,3.742,3.742,0,0,1,0,.928.679.679,0,0,0,.224.588l1.832,1.588-.722,1.321-2.225-.879a.6.6,0,0,0-.594.089,3.755,3.755,0,0,1-.763.469.655.655,0,0,0-.371.5l-.39,2.463H13.985L13.6,15.363a.655.655,0,0,0-.371-.5,3.708,3.708,0,0,1-.762-.469.6.6,0,0,0-.595-.089l-2.225.879-.722-1.321,1.832-1.589c.011-.011.022-.024.032-.036a.5.5,0,0,0,.035-.038.647.647,0,0,0,.113-.182l0-.007a.684.684,0,0,0,.04-.228.229.229,0,0,0,0-.028c0-.008,0-.015,0-.023s0-.03,0-.045a3.743,3.743,0,0,1,0-.928.68.68,0,0,0-.224-.588Zm-7.6,3a.63.63,0,0,1,.366-.33.622.622,0,0,1,.751.437.671.671,0,0,1-.367.817.621.621,0,0,1-.788-.427.687.687,0,0,1,.039-.5Zm0,0" fill="#01358d"/>
      <path id="Path_10542" data-name="Path 10542" d="M176.066,320h1.284v1.284h-1.284Zm0,0" transform="translate(-162.294 -293.564)" fill="#01358d"/>
      <path id="Path_10543" data-name="Path 10543" d="M176.066,352h1.284v1.284h-1.284Zm0,0" transform="translate(-162.294 -322.921)" fill="#01358d"/>
      <path id="Path_10544" data-name="Path 10544" d="M224.066,224h1.284v1.284h-1.284Zm0,0" transform="translate(-206.539 -205.495)" fill="#01358d"/>
      <path id="Path_10545" data-name="Path 10545" d="M256.066,224h1.284v1.284h-1.284Zm0,0" transform="translate(-236.035 -205.495)" fill="#01358d"/>
      <path id="Path_10546" data-name="Path 10546" d="M328.066,80h1.284v2.568h-1.284Zm0,0" transform="translate(-302.402 -73.384)" fill="#01358d"/>
      <path id="Path_10547" data-name="Path 10547" d="M328.066,128h1.284v1.284h-1.284Zm0,0" transform="translate(-302.402 -117.425)" fill="#01358d"/>
      <path id="Path_10548" data-name="Path 10548" d="M328.066,160h1.284v1.284h-1.284Zm0,0" transform="translate(-302.402 -146.782)" fill="#01358d"/>
    </g>
    <circle id="Ellipse_1726" data-name="Ellipse 1726" cx="32" cy="32" r="32" transform="translate(1275 2103)" fill="none"/>
  </g>
</svg>
